<svg xmlns="http://www.w3.org/2000/svg" width="195.758" height="139" viewBox="0 0 195.758 139">
  <g id="Grupo_146094" data-name="Grupo 146094" transform="translate(10525.315 6398)">
    <g id="Grupo_145999" data-name="Grupo 145999" transform="translate(-11214 -12128)">
      <g id="Grupo_145981" data-name="Grupo 145981" transform="translate(8338 12133)">
        <rect id="Rectángulo_44555" data-name="Rectángulo 44555" width="139" height="139" rx="69.5" transform="translate(-7607 -6403)" fill="#b0f0fc"/>
        <g id="mareado" transform="translate(-7626.218 -6388.387)">
          <path id="Trazado_194224" data-name="Trazado 194224" d="M349.907,141.829h-.6l.908-12.323h3.26a4.151,4.151,0,0,1,4.151,4.151v.454A7.718,7.718,0,0,1,349.907,141.829Z" transform="translate(-242.055 -103.782)" fill="#e2a770"/>
          <path id="Trazado_194225" data-name="Trazado 194225" d="M132.008,141.829h.6l-.908-12.323h-3.26a4.151,4.151,0,0,0-4.151,4.151v.454A7.718,7.718,0,0,0,132.008,141.829Z" transform="translate(-61.733 -103.782)" fill="#f1b986"/>
          <path id="Trazado_194226" data-name="Trazado 194226" d="M201.3,99.3l-4.065-4.065a7.285,7.285,0,0,1-2.134-5.151V84a.36.36,0,0,0-.553-.3c-2.275,1.406-6.649,2.357-11.671,2.357-5.288,0-9.857-1.055-12.014-2.585a.359.359,0,0,0-.564.3v6.318a7.285,7.285,0,0,1-2.134,5.151L164.1,99.3l.572,7.762c.7,9.443,12.337,15.987,18.028,15.987s17.333-6.544,18.028-15.987C200.727,107.064,201.3,99.3,201.3,99.3Z" transform="translate(-93.635 -66.839)" fill="#f1d0a5"/>
          <path id="Trazado_194227" data-name="Trazado 194227" d="M228.681,96.194a7.285,7.285,0,0,1-2.134-5.151V84.959a.36.36,0,0,0-.553-.3,19.059,19.059,0,0,1-7.392,2.117v.3a7.285,7.285,0,0,0,2.134,5.151l1.332,1.332a8.441,8.441,0,0,1,2.45,6.588l-.288,3.907c-.7,9.443-12.337,15.987-18.028,15.987a11.515,11.515,0,0,1-2.86-.417c3.69,2.778,7.98,4.39,10.805,4.39,5.691,0,17.333-6.544,18.028-15.987l.572-7.762-4.065-4.065Z" transform="translate(-125.082 -67.796)" fill="#f1b986"/>
          <path id="Trazado_194228" data-name="Trazado 194228" d="M179.734,7.5a19.38,19.38,0,0,0-19.545,21.033l.732,9.94,4.065-4.065a7.285,7.285,0,0,0,2.134-5.151V22.938a.359.359,0,0,1,.564-.3c2.157,1.529,6.726,2.585,12.014,2.585,5.022,0,9.4-.952,11.671-2.357a.36.36,0,0,1,.553.3v6.084a7.285,7.285,0,0,0,2.134,5.151l4.065,4.065.734-9.963A19.512,19.512,0,0,0,179.734,7.5Z" transform="translate(-90.457 -6.01)" fill="#fde9e0"/>
          <path id="Trazado_194229" data-name="Trazado 194229" d="M200.055,286.728a14.307,14.307,0,0,0,14.306-14.114h-.249a4.184,4.184,0,0,1-4.184-4.184v-4.192c-3.464,2.369-7.288,3.726-9.88,3.726s-6.416-1.357-9.88-3.726v4.192a4.184,4.184,0,0,1-4.184,4.184h-.236a14.307,14.307,0,0,0,14.306,14.115Z" transform="translate(-110.985 -211.752)" fill="#e2a770"/>
          <path id="Trazado_194230" data-name="Trazado 194230" d="M180.019,325.485a19.3,19.3,0,0,0,19.272-19.08h-4.966a14.307,14.307,0,0,1-28.612,0h-4.966a19.3,19.3,0,0,0,19.272,19.08Z" transform="translate(-90.949 -245.543)" fill="#f1f1f4"/>
          <path id="Trazado_194231" data-name="Trazado 194231" d="M148.6,334V320.382A13.977,13.977,0,0,0,134.619,306.4h-2.712a19.273,19.273,0,0,1-38.544,0H90.637A13.977,13.977,0,0,0,76.66,320.382V334H87.738v11.748h49.793V334Z" transform="translate(-23.564 -245.543)" fill="#f18385"/>
          <path id="Trazado_194232" data-name="Trazado 194232" d="M76.66,445.352v10.614a1.134,1.134,0,0,0,1.134,1.134h9.944V445.352Z" transform="translate(-23.564 -356.891)" fill="#f1d0a5"/>
          <path id="Trazado_194233" data-name="Trazado 194233" d="M76.66,484.5v2.838a1.134,1.134,0,0,0,1.134,1.134h9.944V484.5Z" transform="translate(-23.564 -388.261)" fill="#f1b986"/>
          <path id="Trazado_194234" data-name="Trazado 194234" d="M383.109,445.352V457.1h9.93a1.134,1.134,0,0,0,1.134-1.134V445.352Z" transform="translate(-269.142 -356.891)" fill="#f1d0a5"/>
          <path id="Trazado_194235" data-name="Trazado 194235" d="M386.039,445.352a9.683,9.683,0,0,1-2.929,5.2V457.1h9.93a1.134,1.134,0,0,0,1.134-1.134V445.352Z" transform="translate(-269.143 -356.891)" fill="#f1b986"/>
          <path id="Trazado_194236" data-name="Trazado 194236" d="M175.649,474.126H132.432V478.1h49.793v-6.544A9.661,9.661,0,0,1,175.649,474.126Z" transform="translate(-68.258 -377.889)" fill="#fde9e0"/>
          <path id="Trazado_194237" data-name="Trazado 194237" d="M378.276,307.086a13.933,13.933,0,0,1,4.08,9.869v15.676a9.744,9.744,0,0,1-.19,1.92H390.3V320.928A13.98,13.98,0,0,0,378.276,307.086Z" transform="translate(-265.269 -246.089)" fill="#fccbcc"/>
          <path id="Trazado_194238" data-name="Trazado 194238" d="M251.761,149.923a4.833,4.833,0,0,0,4.827-4.827v-5.859a1.49,1.49,0,0,0-2.98,0V145.1a1.85,1.85,0,0,1-1.848,1.848,1.49,1.49,0,0,0,0,2.979Z" transform="translate(-162.69 -110.386)"/>
          <path id="Trazado_194239" data-name="Trazado 194239" d="M225.035,219.589a1.489,1.489,0,0,0,1.988-.7,4.373,4.373,0,0,1,8.03-.1,1.49,1.49,0,0,0,2.656-1.35,7.348,7.348,0,0,0-13.371.163,1.49,1.49,0,0,0,.7,1.988Z" transform="translate(-141.791 -170.867)"/>
          <path id="Trazado_194240" data-name="Trazado 194240" d="M91.3,59.748a1.49,1.49,0,1,0,.6-2.918c-7.024-1.45-8.078-2.95-8.194-3.165.081-.153.625-.945,3.488-1.926a1.49,1.49,0,1,0-.966-2.818c-3.709,1.271-5.511,2.823-5.511,4.745C80.72,56.325,84.082,58.258,91.3,59.748Z" transform="translate(-26.818 -39.138)"/>
          <path id="Trazado_194241" data-name="Trazado 194241" d="M425.159,5.942,424.045,5.3l1.114-.643a1.49,1.49,0,1,0-1.49-2.58l-1.114.643V1.49a1.49,1.49,0,0,0-2.979,0V2.718L418.512,2.1a1.49,1.49,0,1,0-1.49,2.58l1.064.614-1.064.614a1.49,1.49,0,1,0,1.49,2.58l1.064-.614V9.165a1.49,1.49,0,0,0,2.979,0V7.879l1.114.643a1.49,1.49,0,0,0,1.49-2.58Z" transform="translate(-295.722)"/>
          <path id="Trazado_194242" data-name="Trazado 194242" d="M53.533,118.436V117.15l1.114.643a1.49,1.49,0,1,0,1.49-2.58l-1.114-.643,1.114-.643a1.49,1.49,0,0,0-1.49-2.58l-1.114.643v-1.229a1.49,1.49,0,1,0-2.979,0v1.229l-1.064-.614a1.49,1.49,0,0,0-1.49,2.58l1.064.614L48,115.184a1.49,1.49,0,0,0,1.49,2.58l1.064-.614v1.286a1.49,1.49,0,1,0,2.979,0Z" transform="translate(0 -87.566)"/>
          <path id="Trazado_194243" data-name="Trazado 194243" d="M128.609,59.373h-7.927a2.7,2.7,0,0,1-2.694-2.694v-3.42c4.275-3.115,7.754-7.615,8.145-12.923l.061-.831a9.22,9.22,0,0,0,8.422-9.174v-.454a5.647,5.647,0,0,0-5.641-5.64h-1.657l.12-1.625a21.241,21.241,0,0,0-2.865-12.275c1.864.231,3.621.5,5.246.8,7.069,1.326,9.125,2.891,9.328,3.384-.108.2-1.165,1.758-8.516,3.234a1.49,1.49,0,0,0,.587,2.921c7.448-1.5,10.916-3.45,10.916-6.151,0-2.725-3.532-4.692-11.115-6.191-2.623-.518-5.592-.942-8.8-1.264a20.822,20.822,0,0,0-31.32.052c-2.46.255-4.774.571-6.884.944A1.49,1.49,0,1,0,84.528,11c1.275-.225,2.628-.428,4.045-.61A21.44,21.44,0,0,0,85.8,22.634l.118,1.6H84.261a5.647,5.647,0,0,0-5.641,5.64v.454A9.22,9.22,0,0,0,87.042,39.5l.061.831c.391,5.309,3.867,9.806,8.145,12.923v3.42a2.7,2.7,0,0,1-2.694,2.694H84.626A15.484,15.484,0,0,0,69.16,74.839v4.02a1.49,1.49,0,1,0,2.979,0v-4.02A12.5,12.5,0,0,1,84.626,62.352h1.3a20.763,20.763,0,0,0,41.39,0h1.29A12.5,12.5,0,0,1,141.1,74.839V86.972H133V81.558a1.49,1.49,0,1,0-2.979,0V98.72h-46.8V81.559a1.49,1.49,0,1,0-2.979,0v5.413h-8.1v-1.16a1.49,1.49,0,0,0-2.979,0V99.076a2.627,2.627,0,0,0,2.624,2.624h69.667a2.627,2.627,0,0,0,2.624-2.624V74.839a15.484,15.484,0,0,0-15.467-15.467Zm.365-32.158a2.664,2.664,0,0,1,2.661,2.661v.454a6.238,6.238,0,0,1-5.219,6.146c.134-1.817.457-6.2.682-9.262h1.876ZM106.617,2.98a17.559,17.559,0,0,1,10.859,3.705,169.337,169.337,0,0,0-21.853.035,17.681,17.681,0,0,1,10.994-3.74Zm14.089,6.943a18.258,18.258,0,0,1,3.759,12.468c-.609,8.273-.079,1.065-.495,6.719l-1.765-1.765a5.757,5.757,0,0,1-1.7-4.1V17.164a1.85,1.85,0,0,0-2.826-1.57c-2.1,1.3-6.373,2.135-10.888,2.135-5.454,0-9.531-1.16-11.152-2.31a1.848,1.848,0,0,0-2.915,1.51v6.318a5.757,5.757,0,0,1-1.7,4.1L89.265,29.11l-.493-6.7A18.374,18.374,0,0,1,92.423,9.967a162.628,162.628,0,0,1,28.283-.044ZM81.6,30.329v-.454a2.664,2.664,0,0,1,2.661-2.661h1.876c.46,6.244.3,4.12.682,9.261A6.238,6.238,0,0,1,81.6,30.329Zm8.475,9.787-.521-7.081,3.583-3.583a8.718,8.718,0,0,0,2.57-6.2V18.831c5.611,2.44,16,2.512,21.822.153v4.264a8.717,8.717,0,0,0,2.57,6.2l3.583,3.583c-.631,8.575-.228,3.1-.521,7.082-.575,7.812-10.7,14.606-16.543,14.606-5.463,0-15.94-6.42-16.543-14.607Zm16.549,38.337a17.848,17.848,0,0,1-17.7-16.1h1.995a15.8,15.8,0,0,0,24.96,11.123,1.49,1.49,0,1,0-1.747-2.414,12.723,12.723,0,0,1-7.5,2.426A12.875,12.875,0,0,1,93.9,62.191a5.684,5.684,0,0,0,4.331-5.513V55.144a18.759,18.759,0,0,0,8.39,2.558,18.759,18.759,0,0,0,8.39-2.558v1.534a5.684,5.684,0,0,0,4.345,5.517,12.645,12.645,0,0,1-1.225,4.136,1.49,1.49,0,0,0,2.672,1.318,15.606,15.606,0,0,0,1.534-5.3h1.994A17.847,17.847,0,0,1,106.624,78.453ZM72.14,89.952h8.1V98.72h-8.1ZM133.01,98.72V89.952H141.1V98.72Z" transform="translate(-17.554 0)"/>
        </g>
        <g id="microorganismo" transform="translate(-7649.315 -6351.351)">
          <g id="Grupo_145979" data-name="Grupo 145979" transform="translate(25.747 3.54)">
            <circle id="Elipse_1263" data-name="Elipse 1263" cx="4.139" cy="4.139" r="4.139" transform="translate(11.037 21.749)" fill="#f18385"/>
            <path id="Trazado_194244" data-name="Trazado 194244" d="M234.275,150.623a4.139,4.139,0,1,1,0,5.853,4.139,4.139,0,0,1,0-5.853Zm9.755,9.755a9.657,9.657,0,1,0-13.658,0A9.657,9.657,0,0,0,244.03,160.379Z" transform="translate(-222.025 -127.662)" fill="#fde9e0" fill-rule="evenodd"/>
            <path id="Trazado_194245" data-name="Trazado 194245" d="M195.73,44.829a9.657,9.657,0,1,1,0,13.658A9.657,9.657,0,0,1,195.73,44.829Zm-3.9,17.56a15.176,15.176,0,0,0,21.462,0L224.02,51.658A15.176,15.176,0,0,0,202.559,30.2L191.828,40.927a15.176,15.176,0,0,0,0,21.462Z" transform="translate(-187.383 -25.769)" fill="#18bab9" fill-rule="evenodd"/>
          </g>
          <g id="Grupo_145980" data-name="Grupo 145980" transform="translate(-0.001 -0.001)">
            <path id="Trazado_194246" data-name="Trazado 194246" d="M259.32,183.482a5.513,5.513,0,1,0-1.615-3.9A5.477,5.477,0,0,0,259.32,183.482Zm1.943-5.853a2.764,2.764,0,1,1-.81,1.955A2.756,2.756,0,0,1,261.263,177.628Z" transform="translate(-222.295 -150.154)"/>
            <path id="Trazado_194247" data-name="Trazado 194247" d="M236.407,149.552a11.144,11.144,0,0,0-1.106-.968,1.374,1.374,0,1,0-1.67,2.183,8.4,8.4,0,0,1,.832.728,8.283,8.283,0,1,1-11.714,0,8.458,8.458,0,0,1,.833-.729,1.374,1.374,0,1,0-1.67-2.182,11.193,11.193,0,0,0-1.106.968,11.031,11.031,0,1,0,15.6,0Z" transform="translate(-187.683 -127.923)"/>
            <path id="Trazado_194248" data-name="Trazado 194248" d="M69.333,22.012l-1.405-.376a16.918,16.918,0,0,0,0-5.876l1.405-.376a1.374,1.374,0,0,0-.711-2.655l-1.4.374a16.359,16.359,0,0,0-2.94-5.095l1.02-1.02a1.374,1.374,0,0,0-1.943-1.943l-1.02,1.02a16.359,16.359,0,0,0-5.095-2.94l.374-1.4a1.374,1.374,0,1,0-2.654-.711l-.376,1.405a16.918,16.918,0,0,0-5.876,0l-.376-1.4a1.374,1.374,0,1,0-2.654.711l.374,1.4a16.359,16.359,0,0,0-5.095,2.94l-1.02-1.02A1.374,1.374,0,1,0,38,6.987l.979.979-3.422,3.422-.979-.979a1.374,1.374,0,1,0-1.943,1.943l.979.979-3.422,3.422-.979-.979a1.374,1.374,0,0,0-1.943,1.943l1.02,1.02a16.388,16.388,0,0,0-3.566,7.287c-.216,0-.442-.012-.674-.023a5.3,5.3,0,0,0-4.439,1.335,5.3,5.3,0,0,0-1.335,4.439c.055,1.147.057,1.773-.533,2.363s-1.215.588-2.363.533a5.3,5.3,0,0,0-4.439,1.335A5.3,5.3,0,0,0,9.6,40.445c.055,1.147.057,1.773-.533,2.363s-1.215.588-2.363.533A5.3,5.3,0,0,0,2.27,44.676,5.3,5.3,0,0,0,.935,49.114C.99,50.262.991,50.888.4,51.477a1.374,1.374,0,1,0,1.943,1.943A5.3,5.3,0,0,0,3.68,48.982c-.055-1.147-.057-1.773.533-2.363s1.216-.589,2.363-.533a5.3,5.3,0,0,0,4.439-1.335,5.3,5.3,0,0,0,1.335-4.439c-.055-1.147-.057-1.773.533-2.363s1.216-.588,2.363-.533a5.3,5.3,0,0,0,4.439-1.335,5.3,5.3,0,0,0,1.335-4.439c-.055-1.147-.057-1.774.533-2.363s1.216-.588,2.363-.533c.152.007.31.015.471.02-.009.22-.014.441-.014.662A16.425,16.425,0,0,0,27.8,39.514a9.8,9.8,0,0,0-.027,1.758c.055,1.147.056,1.774-.533,2.363s-1.216.588-2.363.533A5.3,5.3,0,0,0,20.437,45.5,5.3,5.3,0,0,0,19.1,49.942c.055,1.147.057,1.773-.533,2.363s-1.216.588-2.363.533a5.3,5.3,0,0,0-4.439,1.335,5.3,5.3,0,0,0-1.335,4.439c.055,1.147.057,1.773-.533,2.363s-1.215.589-2.363.533A5.3,5.3,0,0,0,3.1,62.843,1.374,1.374,0,1,0,5.04,64.786c.59-.59,1.216-.588,2.363-.533a5.3,5.3,0,0,0,4.439-1.335,5.3,5.3,0,0,0,1.335-4.439c-.055-1.147-.057-1.773.533-2.363s1.216-.588,2.363-.533a5.3,5.3,0,0,0,4.439-1.335,5.3,5.3,0,0,0,1.335-4.439c-.055-1.147-.057-1.773.533-2.363s1.215-.588,2.363-.533a5.3,5.3,0,0,0,4.439-1.335,4.624,4.624,0,0,0,1.355-3.264,16.424,16.424,0,0,0,10.386,3.663c.222,0,.442-.005.662-.014.005.161.012.318.02.471.055,1.147.056,1.774-.533,2.364s-1.216.589-2.363.533A4.894,4.894,0,0,0,32.934,55.1c.055,1.147.057,1.773-.533,2.363s-1.216.588-2.363.533A5.3,5.3,0,0,0,25.6,59.336a5.3,5.3,0,0,0-1.335,4.439c.055,1.147.057,1.773-.533,2.363s-1.215.589-2.363.533a5.3,5.3,0,0,0-4.439,1.335,1.374,1.374,0,1,0,1.943,1.943c.59-.59,1.215-.588,2.363-.533a5.3,5.3,0,0,0,4.439-1.335,5.3,5.3,0,0,0,1.335-4.439c-.055-1.147-.057-1.774.533-2.363s1.216-.588,2.363-.533a5.3,5.3,0,0,0,4.439-1.335,5.3,5.3,0,0,0,1.335-4.439c-.055-1.147-.057-1.774.533-2.363s1.216-.589,2.363-.533A4.895,4.895,0,0,0,44.349,46.3c-.011-.232-.021-.458-.023-.674a16.388,16.388,0,0,0,7.287-3.567l1.02,1.02a1.374,1.374,0,0,0,1.943-1.943l-.979-.979,3.422-3.422.979.979a1.374,1.374,0,1,0,1.943-1.943l-.979-.979,3.422-3.422.979.979a1.374,1.374,0,1,0,1.943-1.943l-1.02-1.02a16.359,16.359,0,0,0,2.94-5.095l1.4.374a1.374,1.374,0,0,0,.711-2.654ZM31.164,39.187a13.8,13.8,0,0,1,0-19.518L41.894,8.938A13.8,13.8,0,0,1,61.413,28.456L50.682,39.187a13.8,13.8,0,0,1-19.518,0Z" transform="translate(0.001 0.001)"/>
            <path id="Trazado_194249" data-name="Trazado 194249" d="M365.613,64.926a1.374,1.374,0,1,0,2.654-.711l-.611-2.282a1.374,1.374,0,1,0-2.654.711Z" transform="translate(-314.807 -52.544)"/>
            <path id="Trazado_194250" data-name="Trazado 194250" d="M412.162,111.278a1.379,1.379,0,0,0,.357-.047l2.282-.612a1.374,1.374,0,0,0-.711-2.655l-2.282.612a1.374,1.374,0,0,0,.355,2.7Z" transform="translate(-354.343 -93.089)"/>
            <path id="Trazado_194251" data-name="Trazado 194251" d="M389.5,155.951l1.671,1.671a1.374,1.374,0,1,0,1.943-1.943l-1.671-1.671a1.374,1.374,0,1,0-1.943,1.943Z" transform="translate(-335.633 -132.499)"/>
            <path id="Trazado_194252" data-name="Trazado 194252" d="M316.248,91.7a1.374,1.374,0,1,0,1.943-1.943l-1.671-1.671a1.374,1.374,0,0,0-1.943,1.943Z" transform="translate(-271.005 -75.636)"/>
            <path id="Trazado_194253" data-name="Trazado 194253" d="M289.2,136.642a1.374,1.374,0,0,0,0-2.748h0a1.374,1.374,0,1,0,0,2.748Z" transform="translate(-248.28 -115.496)"/>
          </g>
        </g>
        <g id="microorganismo-2" data-name="microorganismo" transform="translate(-7484.176 -6351.353)">
          <g id="Grupo_145979-2" data-name="Grupo 145979" transform="translate(1.541 1.541)">
            <ellipse id="Elipse_1263-2" data-name="Elipse 1263" cx="1.801" cy="1.801" rx="1.801" ry="1.801" transform="translate(9.466 9.466)" fill="#f18385"/>
            <path id="Trazado_194244-2" data-name="Trazado 194244" d="M233.02,146.822a1.8,1.8,0,1,0,0,2.547,1.8,1.8,0,0,0,0-2.547Zm-4.246,4.246a4.2,4.2,0,1,1,5.944,0A4.2,4.2,0,0,1,228.775,151.068Z" transform="translate(-220.48 -136.829)" fill="#fde9e0" fill-rule="evenodd"/>
            <path id="Trazado_194245-2" data-name="Trazado 194245" d="M201.622,34.064a4.2,4.2,0,1,0,0,5.944A4.2,4.2,0,0,0,201.622,34.064Zm1.7,7.642a6.6,6.6,0,0,1-9.34,0l-4.67-4.67a6.6,6.6,0,1,1,9.34-9.34l4.67,4.67a6.6,6.6,0,0,1,0,9.34Z" transform="translate(-187.383 -25.769)" fill="#18bab9" fill-rule="evenodd"/>
          </g>
          <g id="Grupo_145980-2" data-name="Grupo 145980" transform="translate(0 0)">
            <path id="Trazado_194246-2" data-name="Trazado 194246" d="M261.8,178.168a2.4,2.4,0,1,1,.7-1.7A2.384,2.384,0,0,1,261.8,178.168Zm-.846-2.547a1.2,1.2,0,1,0,.352.851A1.2,1.2,0,0,0,260.954,175.62Z" transform="translate(-247.295 -163.663)"/>
            <path id="Trazado_194247-2" data-name="Trazado 194247" d="M218.984,148.846a4.852,4.852,0,0,1,.481-.421.6.6,0,0,1,.727.95,3.656,3.656,0,0,0-.362.317,3.6,3.6,0,1,0,5.1,0,3.68,3.68,0,0,0-.363-.317.6.6,0,0,1,.727-.95,4.874,4.874,0,0,1,.482.421,4.8,4.8,0,1,1-6.79,0Z" transform="translate(-209.571 -139.433)"/>
            <path id="Trazado_194248-2" data-name="Trazado 194248" d="M.443,9.579l.612-.164a7.363,7.363,0,0,1,0-2.557L.443,6.694a.6.6,0,0,1,.31-1.155l.607.163A7.119,7.119,0,0,1,2.639,3.484L2.195,3.04a.6.6,0,0,1,.846-.846l.444.444A7.119,7.119,0,0,1,5.7,1.359L5.539.752A.6.6,0,1,1,6.694.442l.164.612a7.363,7.363,0,0,1,2.557,0L9.579.442a.6.6,0,1,1,1.155.31l-.163.607a7.119,7.119,0,0,1,2.217,1.279l.444-.444a.6.6,0,0,1,.846.846l-.426.426,1.489,1.489.426-.426a.6.6,0,1,1,.846.846l-.426.426,1.489,1.489.426-.426a.6.6,0,1,1,.846.846l-.444.444a7.132,7.132,0,0,1,1.552,3.171c.094,0,.192-.005.294-.01a2.13,2.13,0,0,1,2.513,2.513c-.024.5-.025.772.232,1.028s.529.256,1.028.232A2.13,2.13,0,0,1,26.437,17.6c-.024.5-.025.772.232,1.029s.529.256,1.028.232a2.13,2.13,0,0,1,2.513,2.513c-.024.5-.025.772.232,1.028a.6.6,0,1,1-.846.846,2.307,2.307,0,0,1-.581-1.932c.024-.5.025-.772-.232-1.029s-.529-.256-1.028-.232a2.13,2.13,0,0,1-2.513-2.513c.024-.5.025-.772-.232-1.028s-.529-.256-1.028-.232a2.13,2.13,0,0,1-2.513-2.513c.024-.5.025-.772-.232-1.029s-.529-.256-1.029-.232l-.2.009c0,.1.006.192.006.288A7.148,7.148,0,0,1,18.519,17.2a4.264,4.264,0,0,1,.012.765c-.024.5-.025.772.232,1.029s.529.256,1.028.232A2.13,2.13,0,0,1,22.3,21.734c-.024.5-.025.772.232,1.028s.529.256,1.028.232a2.13,2.13,0,0,1,2.513,2.513c-.024.5-.025.772.232,1.028s.529.256,1.029.232a2.307,2.307,0,0,1,1.932.581.6.6,0,1,1-.846.846c-.257-.257-.529-.256-1.028-.232a2.13,2.13,0,0,1-2.513-2.513c.024-.5.025-.772-.232-1.028s-.529-.256-1.028-.232a2.13,2.13,0,0,1-2.513-2.513c.024-.5.025-.772-.232-1.028s-.529-.256-1.028-.232a2.308,2.308,0,0,1-1.932-.581,2.012,2.012,0,0,1-.59-1.421,7.148,7.148,0,0,1-4.52,1.594c-.1,0-.192,0-.288-.006,0,.07-.005.138-.009.2-.024.5-.025.772.232,1.029s.529.256,1.029.232a2.13,2.13,0,0,1,2.513,2.513c-.024.5-.025.772.232,1.028s.529.256,1.028.232a2.13,2.13,0,0,1,2.513,2.513c-.024.5-.025.772.232,1.028s.529.256,1.028.232a2.307,2.307,0,0,1,1.932.581.6.6,0,1,1-.846.846c-.257-.257-.529-.256-1.029-.232A2.13,2.13,0,0,1,18.862,27.7c.024-.5.025-.772-.232-1.029s-.529-.256-1.028-.232a2.13,2.13,0,0,1-2.513-2.513c.024-.5.025-.772-.232-1.029s-.529-.256-1.028-.232a2.13,2.13,0,0,1-2.513-2.513c0-.1.009-.2.01-.293A7.132,7.132,0,0,1,8.155,18.3l-.444.444a.6.6,0,0,1-.846-.846l.426-.426L5.8,15.987l-.426.426a.6.6,0,0,1-.846-.846l.426-.426L3.467,13.652l-.426.426a.6.6,0,0,1-.846-.846l.444-.444a7.119,7.119,0,0,1-1.279-2.217l-.607.163a.6.6,0,0,1-.31-1.155Zm16.612,7.475a6.006,6.006,0,0,0,0-8.495l-4.67-4.67A6.007,6.007,0,0,0,3.89,12.384l4.67,4.67a6.007,6.007,0,0,0,8.495,0Z" transform="translate(0.001 0.001)"/>
            <path id="Trazado_194249-2" data-name="Trazado 194249" d="M366.13,62.66a.6.6,0,1,1-1.155-.31l.266-.993a.6.6,0,1,1,1.155.31Z" transform="translate(-357.623 -57.271)"/>
            <path id="Trazado_194250-2" data-name="Trazado 194250" d="M412.38,109.38a.6.6,0,0,1-.155-.021l-.993-.266a.6.6,0,0,1,.31-1.155l.993.266a.6.6,0,0,1-.154,1.176Z" transform="translate(-406.925 -101.464)"/>
            <path id="Trazado_194251-2" data-name="Trazado 194251" d="M390.845,154.626l-.727.727a.6.6,0,0,1-.846-.846l.727-.727a.6.6,0,1,1,.846.846Z" transform="translate(-383.671 -144.419)"/>
            <path id="Trazado_194252-2" data-name="Trazado 194252" d="M315.2,89.432a.6.6,0,0,1-.846-.846l.727-.727a.6.6,0,1,1,.846.846Z" transform="translate(-304.268 -82.441)"/>
            <path id="Trazado_194253-2" data-name="Trazado 194253" d="M288.428,135.09a.6.6,0,0,1,0-1.2h0a.6.6,0,1,1,0,1.2Z" transform="translate(-275.621 -125.887)"/>
          </g>
        </g>
      </g>
    </g>
  </g>
</svg>
