<svg xmlns="http://www.w3.org/2000/svg" width="330" height="180" viewBox="0 0 330 180">
  <g id="Grupo_146092" data-name="Grupo 146092" transform="translate(-327 -7693)">
    <g id="Grupo_146020" data-name="Grupo 146020">
      <path id="Rectángulo_44569" data-name="Rectángulo 44569" d="M12,0H318a12,12,0,0,1,12,12V89a0,0,0,0,1,0,0H0a0,0,0,0,1,0,0V12A12,12,0,0,1,12,0Z" transform="translate(327 7784)" fill="#ffb5b7"/>
      <g id="mareado" transform="translate(381.228 7693)">
        <path id="Trazado_194224" data-name="Trazado 194224" d="M350.329,150.476h-1.022l1.545-20.97H356.4a7.064,7.064,0,0,1,7.064,7.064v.773A13.134,13.134,0,0,1,350.329,150.476Z" transform="translate(-211.279 -91.218)" fill="#e2a770"/>
        <path id="Trazado_194225" data-name="Trazado 194225" d="M137.424,150.476h1.022l-1.544-20.97h-5.548a7.064,7.064,0,0,0-7.064,7.064v.773A13.133,13.133,0,0,0,137.424,150.476Z" transform="translate(-53.884 -91.218)" fill="#f1b986"/>
        <path id="Trazado_194226" data-name="Trazado 194226" d="M227.4,110.457l-6.918-6.918a12.4,12.4,0,0,1-3.631-8.766V84.421a.613.613,0,0,0-.941-.516c-3.872,2.393-11.315,4.012-19.861,4.012-9,0-16.775-1.8-20.445-4.4a.61.61,0,0,0-.959.5V94.773a12.4,12.4,0,0,1-3.631,8.766l-6.918,6.918.973,13.209c1.183,16.069,20.994,27.206,30.679,27.206s29.5-11.136,30.679-27.206C226.43,123.666,227.4,110.457,227.4,110.457Z" transform="translate(-84.497 -60.303)" fill="#f1d0a5"/>
        <path id="Trazado_194227" data-name="Trazado 194227" d="M246.462,104.33a12.4,12.4,0,0,1-3.631-8.766V85.211a.613.613,0,0,0-.941-.516c-2.718,1.68-7.2,2.978-12.58,3.6V88.8a12.4,12.4,0,0,0,3.631,8.766l2.266,2.266a14.364,14.364,0,0,1,4.168,11.211l-.49,6.65C237.7,133.765,217.892,144.9,208.207,144.9a19.6,19.6,0,0,1-4.866-.71c6.28,4.728,13.581,7.471,18.387,7.471,9.685,0,29.5-11.136,30.679-27.206l.973-13.209-6.918-6.918Z" transform="translate(-111.485 -61.147)" fill="#f1b986"/>
        <path id="Trazado_194228" data-name="Trazado 194228" d="M193.489,7.5C173.736,7.3,158.8,23.888,160.228,43.294l1.246,16.915,6.918-6.918a12.4,12.4,0,0,0,3.631-8.766V33.773a.61.61,0,0,1,.959-.5c3.671,2.6,11.447,4.4,20.445,4.4,8.546,0,15.989-1.619,19.861-4.012a.613.613,0,0,1,.941.516V44.525a12.4,12.4,0,0,0,3.631,8.766l6.918,6.918,1.249-16.954A33.2,33.2,0,0,0,193.489,7.5Z" transform="translate(-81.876 -4.964)" fill="#fde9e0"/>
        <path id="Trazado_194229" data-name="Trazado 194229" d="M210.094,302.511a24.347,24.347,0,0,0,24.345-24.019h-.423a7.12,7.12,0,0,1-7.12-7.12v-7.133c-5.894,4.031-12.4,6.341-16.812,6.341s-10.919-2.309-16.812-6.341v7.133a7.12,7.12,0,0,1-7.12,7.12h-.4a24.347,24.347,0,0,0,24.345,24.019Z" transform="translate(-98.814 -187.553)" fill="#e2a770"/>
        <path id="Trazado_194230" data-name="Trazado 194230" d="M193.543,338.875a32.836,32.836,0,0,0,32.8-32.47h-8.451a24.347,24.347,0,0,1-48.69,0h-8.451a32.835,32.835,0,0,0,32.8,32.47Z" transform="translate(-82.284 -216.879)" fill="#f1f1f4"/>
        <path id="Trazado_194231" data-name="Trazado 194231" d="M184.99,353.372V330.19c0-13.136-9.423-23.785-21.048-23.785h-4.085c-.156,17.934-13.116,32.47-29.023,32.47s-28.866-14.536-29.023-32.47h-4.1c-11.625,0-21.048,10.649-21.048,23.785v23.182H93.343v19.992h74.985V353.372Z" transform="translate(-19.466 -221.899)" fill="#f18385"/>
        <path id="Trazado_194232" data-name="Trazado 194232" d="M76.66,445.352v18.062a1.93,1.93,0,0,0,1.93,1.93H95.512V445.352Z" transform="translate(-19.466 -313.879)" fill="#f1d0a5"/>
        <path id="Trazado_194233" data-name="Trazado 194233" d="M76.66,484.5v4.83a1.931,1.931,0,0,0,1.93,1.93H95.512V484.5Z" transform="translate(-19.466 -339.793)" fill="#f1b986"/>
        <path id="Trazado_194234" data-name="Trazado 194234" d="M383.109,445.352v19.992h16.9a1.931,1.931,0,0,0,1.93-1.93V445.352Z" transform="translate(-236.414 -313.879)" fill="#f1d0a5"/>
        <path id="Trazado_194235" data-name="Trazado 194235" d="M388.095,445.352a16.479,16.479,0,0,1-4.985,8.857v11.135h16.9a1.931,1.931,0,0,0,1.93-1.93V445.352Z" transform="translate(-236.414 -313.879)" fill="#f1b986"/>
        <path id="Trazado_194236" data-name="Trazado 194236" d="M205.976,475.93H132.432v6.76h84.734V471.555A16.441,16.441,0,0,1,205.976,475.93Z" transform="translate(-63.578 -331.225)" fill="#fde9e0"/>
        <path id="Trazado_194237" data-name="Trazado 194237" d="M378.276,307.086a23.71,23.71,0,0,1,6.943,16.794v26.676a16.58,16.58,0,0,1-.323,3.267h13.844V330.641A23.79,23.79,0,0,0,378.276,307.086Z" transform="translate(-233.214 -222.35)" fill="#fccbcc"/>
        <path id="Trazado_194238" data-name="Trazado 194238" d="M252.806,158.467a8.224,8.224,0,0,0,8.215-8.215v-9.97a2.535,2.535,0,0,0-5.07,0v9.97a3.148,3.148,0,0,1-3.145,3.145,2.535,2.535,0,1,0,0,5.07Z" transform="translate(-141.807 -97.013)"/>
        <path id="Trazado_194239" data-name="Trazado 194239" d="M225.628,224.059a2.534,2.534,0,0,0,3.383-1.186,7.441,7.441,0,0,1,13.665-.177,2.535,2.535,0,0,0,4.52-2.3,12.5,12.5,0,0,0-22.755.277,2.536,2.536,0,0,0,1.187,3.383Z" transform="translate(-124.277 -149.63)"/>
        <path id="Trazado_194240" data-name="Trazado 194240" d="M98.727,67.4a2.535,2.535,0,1,0,1.025-4.965C87.8,59.97,86,57.417,85.807,57.051c.138-.26,1.063-1.608,5.936-3.278a2.535,2.535,0,0,0-1.644-4.8c-6.311,2.163-9.379,4.8-9.379,8.075C80.72,61.578,86.442,64.867,98.727,67.4Z" transform="translate(-22.153 -32.331)"/>
        <path id="Trazado_194241" data-name="Trazado 194241" d="M431.392,10.111l-1.9-1.095,1.9-1.095a2.535,2.535,0,1,0-2.535-4.391l-1.9,1.095V2.535a2.535,2.535,0,1,0-5.07,0v2.09L420.08,3.58a2.535,2.535,0,0,0-2.535,4.391l1.811,1.045-1.811,1.045a2.535,2.535,0,0,0,2.535,4.391l1.81-1.045V15.6a2.535,2.535,0,1,0,5.07,0V13.408l1.9,1.095a2.535,2.535,0,0,0,2.535-4.391Z" transform="translate(-258.37)"/>
        <path id="Trazado_194242" data-name="Trazado 194242" d="M57.939,124.867v-2.189l1.9,1.095a2.535,2.535,0,1,0,2.535-4.391l-1.9-1.095,1.9-1.095a2.535,2.535,0,0,0-2.535-4.391l-1.9,1.095v-2.091a2.535,2.535,0,0,0-5.07,0V113.9l-1.81-1.045a2.535,2.535,0,0,0-2.535,4.391l1.81,1.045-1.81,1.045a2.535,2.535,0,0,0,2.535,4.391l1.81-1.045v2.189a2.535,2.535,0,1,0,5.07,0Z" transform="translate(0 -76.88)"/>
        <path id="Trazado_194243" data-name="Trazado 194243" d="M159.149,89.906h-12a4.084,4.084,0,0,1-4.079-4.08V80.647c6.471-4.717,11.737-11.531,12.329-19.569l.093-1.259A13.96,13.96,0,0,0,168.24,45.927v-.688A8.549,8.549,0,0,0,159.7,36.7h-2.508l.181-2.46a32.174,32.174,0,0,0-4.336-18.588c2.821.35,5.481.757,7.941,1.219,10.7,2.007,13.812,4.378,14.12,5.124-.164.309-1.763,2.662-12.891,4.9a2.256,2.256,0,0,0,.888,4.424c11.274-2.265,16.524-5.225,16.524-9.315,0-4.127-5.346-7.105-16.825-9.374-3.97-.785-8.465-1.427-13.325-1.914a31.512,31.512,0,0,0-47.41.078c-3.724.387-7.226.865-10.42,1.429a2.256,2.256,0,0,0,.783,4.443c1.93-.34,3.978-.649,6.124-.924a32.476,32.476,0,0,0-4.2,18.537l.179,2.425H92.019a8.549,8.549,0,0,0-8.538,8.541v.688A13.96,13.96,0,0,0,96.229,59.819l.093,1.259c.592,8.04,5.854,14.85,12.329,19.569v5.179a4.084,4.084,0,0,1-4.079,4.08h-12a23.443,23.443,0,0,0-23.412,23.42v6.088a2.255,2.255,0,1,0,4.51,0v-6.088a18.927,18.927,0,0,1,18.9-18.909h1.972a31.429,31.429,0,0,0,62.652,0h1.952a18.927,18.927,0,0,1,18.9,18.909V131.7H165.792v-8.2a2.255,2.255,0,1,0-4.51,0v25.987H90.439V123.5a2.255,2.255,0,1,0-4.51,0v8.2H73.67v-1.757a2.255,2.255,0,1,0-4.51,0v20.085A3.978,3.978,0,0,0,73.132,154H178.588a3.977,3.977,0,0,0,3.972-3.974v-36.7a23.443,23.443,0,0,0-23.412-23.421Zm.553-48.7a4.033,4.033,0,0,1,4.028,4.029v.688a9.445,9.445,0,0,1-7.9,9.307c.2-2.752.692-9.4,1.033-14.025h2.84Zm-33.842-36.7A26.574,26.574,0,0,1,142.3,10.123a256.236,256.236,0,0,0-33.079.054A26.757,26.757,0,0,1,125.859,4.512Zm21.327,10.514a27.654,27.654,0,0,1,5.691,18.88c-.922,12.528-.119,1.613-.749,10.174l-2.671-2.672a8.719,8.719,0,0,1-2.569-6.205V25.99a2.8,2.8,0,0,0-4.278-2.378c-3.177,1.964-9.647,3.233-16.481,3.233-8.255,0-14.427-1.757-16.882-3.5a2.8,2.8,0,0,0-4.413,2.287V35.2a8.72,8.72,0,0,1-2.569,6.205L99.593,44.08l-.747-10.138a27.83,27.83,0,0,1,5.527-18.849,246.085,246.085,0,0,1,42.813-.066Zm-59.2,30.9v-.688a4.033,4.033,0,0,1,4.028-4.029h2.84c.7,9.455.459,6.238,1.033,14.024A9.445,9.445,0,0,1,87.991,45.927Zm12.829,14.82c-.2-2.727-.588-7.989-.789-10.723l5.423-5.425a13.2,13.2,0,0,0,3.89-9.4V28.515c8.493,3.694,24.219,3.8,33.033.232V35.2a13.2,13.2,0,0,0,3.89,9.4l5.423,5.425c-.956,12.985-.346,4.7-.789,10.724-.871,11.83-16.193,22.118-25.041,22.118-8.27,0-24.128-9.722-25.041-22.118ZM125.871,118.8a27.02,27.02,0,0,1-26.8-24.381h3.02a23.914,23.914,0,0,0,37.783,16.844,2.256,2.256,0,0,0-2.644-3.655,19.255,19.255,0,0,1-11.36,3.673,19.491,19.491,0,0,1-19.265-17.1,8.606,8.606,0,0,0,6.555-8.349V83.5c4.444,2.426,9.064,3.873,12.7,3.873s8.256-1.447,12.7-3.873v2.322a8.606,8.606,0,0,0,6.578,8.354,19.153,19.153,0,0,1-1.855,6.262,2.255,2.255,0,1,0,4.045,2,23.638,23.638,0,0,0,2.322-8.02h3.019A27.019,27.019,0,0,1,125.871,118.8Zm-52.2,17.412H85.929v13.278H73.67Zm92.141,13.278V136.211H178.05v13.278Z" transform="translate(-14.501 0)"/>
      </g>
    </g>
  </g>
</svg>
