<svg xmlns="http://www.w3.org/2000/svg" width="139.614" height="139" viewBox="0 0 139.614 139">
  <g id="Grupo_146094" data-name="Grupo 146094" transform="translate(10478 4937)">
    <g id="Grupo_146017" data-name="Grupo 146017">
      <rect id="Rectángulo_44555" data-name="Rectángulo 44555" width="139" height="139" rx="69.5" transform="translate(-10478 -4937)" fill="#b0f0fc"/>
      <g id="vacunas" transform="translate(-10461.548 -4937)">
        <g id="Grupo_146015" data-name="Grupo 146015" transform="translate(4.007 18.362)">
          <path id="Trazado_194294" data-name="Trazado 194294" d="M129.16,113.16a3.656,3.656,0,0,1,.352-5.142L143.676,95.6a3.617,3.617,0,0,1,5.119.345L192.117,145.8l-19.635,17.215Z" transform="translate(-100.02 -90.497)" fill="#f5f7fa"/>
          <g id="Grupo_146014" data-name="Grupo 146014">
            <g id="Grupo_146006" data-name="Grupo 146006" transform="translate(25.876)">
              <g id="Grupo_146005" data-name="Grupo 146005">
                <g id="Grupo_146004" data-name="Grupo 146004">
                  <path id="Trazado_194295" data-name="Trazado 194295" d="M119.558,80.959l3.417-3a3.617,3.617,0,0,1,5.119.345L138.342,90l-8.888,7.793L119.206,86.1A3.656,3.656,0,0,1,119.558,80.959Z" transform="translate(-118.313 -77.062)" fill="#18bab9"/>
                  <path id="Trazado_194296" data-name="Trazado 194296" d="M413.446,434.585l13.994-12.269a3.729,3.729,0,0,1,5.278.356,3.769,3.769,0,0,1-.363,5.3l-13.994,12.269a3.729,3.729,0,0,1-5.278-.356,3.77,3.77,0,0,1,.363-5.3Z" transform="translate(-342.144 -339.341)" fill="#3ac0ee"/>
                  <path id="Trazado_194297" data-name="Trazado 194297" d="M290.793,314.719,319.449,289.6a3.729,3.729,0,0,1,5.278.356,3.769,3.769,0,0,1-.363,5.3l-28.655,25.122a3.729,3.729,0,0,1-5.278-.356A3.769,3.769,0,0,1,290.793,314.719Z" transform="translate(-248.717 -238.246)" fill="#bac3cc"/>
                  <g id="Grupo_146003" data-name="Grupo 146003" transform="translate(2.372 4.202)">
                    <path id="Trazado_194298" data-name="Trazado 194298" d="M148.795,95.944a3.617,3.617,0,0,0-5.119-.345l-14.164,12.418a3.656,3.656,0,0,0-.352,5.142L161.081,149.9l19.635-17.215Z" transform="translate(-128.267 -94.698)" fill="#f18385"/>
                    <path id="Trazado_194299" data-name="Trazado 194299" d="M216.2,137.28l5.247-4.6L189.529,95.944a3.617,3.617,0,0,0-5.119-.345l-2.666,2.338Z" transform="translate(-169.001 -94.698)" fill="#fde9e0"/>
                    <path id="Trazado_194300" data-name="Trazado 194300" d="M265.98,326.344l1.853,2.133Z" transform="translate(-233.166 -271.147)" fill="#fc7743"/>
                    <path id="Trazado_194301" data-name="Trazado 194301" d="M348.384,254.1l.146.168Z" transform="translate(-295.934 -216.117)" fill="#fc7743"/>
                    <path id="Trazado_194302" data-name="Trazado 194302" d="M289.79,258.9l-4.028-4.636-.146-.168L265.98,271.314l1.853,2.133,2.321,2.671Z" transform="translate(-233.166 -216.117)" fill="#8ee5f6"/>
                  </g>
                </g>
              </g>
            </g>
            <g id="Grupo_146013" data-name="Grupo 146013" transform="translate(0 35.502)">
              <g id="Grupo_146009" data-name="Grupo 146009" transform="translate(31.085)">
                <g id="Grupo_146008" data-name="Grupo 146008">
                  <path id="Trazado_194303" data-name="Trazado 194303" d="M183.72,248.756h10.362v8.872H183.72Z" transform="translate(-173.344 -243.346)" fill="#bac3cc"/>
                  <path id="Trazado_194304" data-name="Trazado 194304" d="M166.823,334.345H144.732a4.491,4.491,0,0,1-4.5-4.486V296.01a7.239,7.239,0,0,1,1.721-4.684l8.641-10.18h10.362l8.641,10.18a7.239,7.239,0,0,1,1.721,4.684v33.85A4.491,4.491,0,0,1,166.823,334.345Z" transform="translate(-140.221 -268.018)" fill="#f5f7fa"/>
                  <path id="Trazado_194305" data-name="Trazado 194305" d="M205.377,291.325l-8.641-10.18h-9.531l8.641,10.18a7.239,7.239,0,0,1,1.721,4.684v33.85a4.491,4.491,0,0,1-4.5,4.486H202.6a4.491,4.491,0,0,0,4.5-4.486V296.01a7.239,7.239,0,0,0-1.721-4.684Z" transform="translate(-175.999 -268.018)" fill="#ebedf0"/>
                  <g id="Grupo_146007" data-name="Grupo 146007" transform="translate(0 32.152)">
                    <path id="Trazado_194306" data-name="Trazado 194306" d="M140.176,381.157h31.1V360.988H140.19Z" transform="translate(-140.176 -360.988)" fill="#a0e2f7"/>
                    <path id="Trazado_194307" data-name="Trazado 194307" d="M230.69,360.987h9.531v20.169H230.69Z" transform="translate(-209.122 -360.987)" fill="#85dcf7"/>
                  </g>
                  <path id="Trazado_194308" data-name="Trazado 194308" d="M167.652,226.053h18.019v6.564H167.652Z" transform="translate(-161.105 -226.053)" fill="#3ac0ee"/>
                </g>
              </g>
              <g id="Grupo_146012" data-name="Grupo 146012">
                <g id="Grupo_146011" data-name="Grupo 146011">
                  <path id="Trazado_194309" data-name="Trazado 194309" d="M53.206,248.756H63.568v8.872H53.206Z" transform="translate(-42.844 -243.346)" fill="#bac3cc"/>
                  <path id="Trazado_194310" data-name="Trazado 194310" d="M36.309,334.345H14.218a4.491,4.491,0,0,1-4.5-4.486V296.01a7.239,7.239,0,0,1,1.721-4.684l8.641-10.18H30.444l8.641,10.18a7.239,7.239,0,0,1,1.721,4.684v33.85A4.491,4.491,0,0,1,36.309,334.345Z" transform="translate(-9.721 -268.018)" fill="#f5f7fa"/>
                  <path id="Trazado_194311" data-name="Trazado 194311" d="M74.863,291.325l-8.641-10.18H56.691l8.641,10.18a7.239,7.239,0,0,1,1.721,4.684v33.85a4.491,4.491,0,0,1-4.5,4.486h9.531a4.491,4.491,0,0,0,4.5-4.486V296.01A7.239,7.239,0,0,0,74.863,291.325Z" transform="translate(-45.499 -268.018)" fill="#ebedf0"/>
                  <g id="Grupo_146010" data-name="Grupo 146010" transform="translate(0 32.152)">
                    <path id="Trazado_194312" data-name="Trazado 194312" d="M9.72,360.988H40.805v20.169H9.72Z" transform="translate(-9.72 -360.988)" fill="#fde9e0"/>
                    <path id="Trazado_194313" data-name="Trazado 194313" d="M100.176,360.987h9.531v20.169h-9.531Z" transform="translate(-78.622 -360.987)" fill="#f18385"/>
                  </g>
                  <path id="Trazado_194314" data-name="Trazado 194314" d="M37.137,226.053H55.156v6.564H37.137Z" transform="translate(-30.604 -226.053)" fill="#f18385"/>
                </g>
              </g>
            </g>
          </g>
        </g>
        <g id="Grupo_146016" data-name="Grupo 146016" transform="translate(2.22 0)">
          <path id="Trazado_194315" data-name="Trazado 194315" d="M174.126,401.091h12.32c2.237,0,2.338-3.574,0-3.574h-12.32C171.89,397.517,171.788,401.091,174.126,401.091Z" transform="translate(-131.857 -302.796)"/>
          <path id="Trazado_194316" data-name="Trazado 194316" d="M55.932,401.091c2.237,0,2.338-3.574,0-3.574H43.611c-2.237,0-2.338,3.574,0,3.574Z" transform="translate(-32.442 -302.796)"/>
          <path id="Trazado_194317" data-name="Trazado 194317" d="M121.806,100.52A5.6,5.6,0,0,0,114,99.993l-5.647,4.951L93.718,88.1l3.4-2.98c1.682-1.474-.6-4.229-2.356-2.688L75.7,99.149c-1.87,1.64-4.431-1.328-2.559-2.97l28.656-25.123c1.87-1.639,4.431,1.329,2.559,2.97l-2.865,2.511c-1.682,1.474.6,4.229,2.356,2.688l2.865-2.511c5.3-4.646-1.837-13.109-7.272-8.345l-3.161,2.771-7.787-8.961-2.436-2.8h0L54.132,22.638a5.484,5.484,0,0,0-7.647-.517L45.2,23.251l-4.184-4.815a5.484,5.484,0,0,0-7.647-.517l-.359.315L17.68.594c-1.467-1.688-4.231.579-2.7,2.344L30.32,20.59l-.371.325a5.451,5.451,0,0,0-.523,7.658L33.621,33.4l-1.3,1.139A5.451,5.451,0,0,0,31.8,42.2l8.847,10.181a1.785,1.785,0,0,0-.793,1.485v6.564a1.787,1.787,0,0,0,1.787,1.787h2.042v4.121l-8.216,9.68q-.366.928-.731,0l-8.216-9.68V62.215h2.042a1.787,1.787,0,0,0,1.787-1.787V53.864a1.787,1.787,0,0,0-1.787-1.787H10.54a1.787,1.787,0,0,0-1.787,1.787v6.564a1.787,1.787,0,0,0,1.787,1.787h2.042v4.121l-8.216,9.68A9.036,9.036,0,0,0,2.22,81.856v9.958c0,2.237,3.574,2.338,3.574,0V87.8H33.305V104.4H5.794v-3.036c0-2.236-3.574-2.338-3.574,0v14.344A6.286,6.286,0,0,0,8.5,121.979H30.6a6.269,6.269,0,0,0,4.5-1.9,6.27,6.27,0,0,0,4.5,1.9H61.695a6.286,6.286,0,0,0,6.284-6.273V83.835l5.974,6.876-3.172,2.781c-5.359,4.7,1.9,13.053,7.272,8.345L91.031,90.458,105.666,107.3l-5.659,4.961c-5.36,4.7,1.9,13.053,7.272,8.345l13.994-12.269a5.564,5.564,0,0,0,.534-7.818ZM86.458,79.747l-4.881-5.617,7.13-6.251L93.588,73.5ZM67.585,77.932,84.533,63.074l1.83,2.106L69.415,80.039Zm-35.46-51.7a1.869,1.869,0,0,1,.181-2.626l3.417-3a1.831,1.831,0,0,1,2.592.173l4.194,4.827-6.2,5.436Zm2.553,11L48.841,24.81a1.83,1.83,0,0,1,2.592.173l3.36,3.867-2.234,1.959c-1.7,1.49.66,4.175,2.356,2.688l2.222-1.948,4.257,4.9-5.209,4.567c-1.7,1.49.66,4.175,2.356,2.688l5.2-4.557L68,44.043,65.762,46c-1.7,1.49.66,4.175,2.356,2.688l2.222-1.948,4.257,4.9-5.209,4.567c-1.7,1.49.66,4.175,2.356,2.688l5.2-4.557,5.246,6.038L65.241,75.234l-7.624-8.9V62.215h2.042a1.787,1.787,0,0,0,1.787-1.787V53.864a1.787,1.787,0,0,0-1.787-1.787H45.118L34.5,39.853a1.87,1.87,0,0,1,.181-2.626Zm8.749,18.424H57.871v2.989H43.426Zm10.616,6.564V65.2H47.255V62.215ZM64.4,104.4H36.893V87.8H64.4ZM12.327,55.651H26.772v2.989H12.327Zm10.616,6.564V65.2H16.156V62.215ZM5.794,84.229c-.1-2.038-.1-4.257,1.3-5.9l8.106-9.55H23.9l8.106,9.55c1.4,1.644,1.4,3.863,1.3,5.9ZM30.6,118.4H8.5a2.707,2.707,0,0,1-2.71-2.7v-7.733H33.305v7.734A2.707,2.707,0,0,1,30.6,118.4Zm31.1,0H39.6a2.707,2.707,0,0,1-2.709-2.7v-7.733H64.4v7.734A2.707,2.707,0,0,1,61.695,118.4Zm1.413-40.076c1.4,1.644,1.4,3.863,1.3,5.9H36.893c-.1-2.038-.1-4.257,1.3-5.9l8.106-9.55h8.6Zm8.651,4.408,7.13-6.251L83.771,82.1l-7.13,6.251Zm47.157,22.914-13.994,12.269c-1.87,1.64-4.431-1.329-2.559-2.97l13.994-12.269c1.88-1.648,4.456,1.307,2.559,2.97Z" transform="translate(-2.22 0)"/>
        </g>
      </g>
    </g>
  </g>
</svg>
