<svg xmlns="http://www.w3.org/2000/svg" width="330" height="166" viewBox="0 0 330 166">
  <g id="Grupo_146120" data-name="Grupo 146120" transform="translate(-845 -4630)">
    <path id="Rectángulo_44569" data-name="Rectángulo 44569" d="M12,0H318a12,12,0,0,1,12,12V89a0,0,0,0,1,0,0H0a0,0,0,0,1,0,0V12A12,12,0,0,1,12,0Z" transform="translate(845 4707)" fill="#ffa8ac"/>
    <g id="enfermero" transform="translate(942.25 4630)">
      <path id="Trazado_194744" data-name="Trazado 194744" d="M76.1,31c-20.917-.209-34.861-13.735-34.861-13.735C36.593,26.565,24.972,31,24.972,31V44a3.481,3.481,0,0,0-3.486-3.486A3.39,3.39,0,0,0,18.209,42.9L18,42.833V28.889A27.971,27.971,0,0,1,45.889,1h9.3A27.971,27.971,0,0,1,83.074,28.889V42.833l-.209.07a3.39,3.39,0,0,0-3.277-2.394A3.481,3.481,0,0,0,76.1,44Z" transform="translate(17.213 1.324)" fill="#fde9e0"/>
      <path id="Trazado_194745" data-name="Trazado 194745" d="M65.776,44V28.889A27.971,27.971,0,0,0,37.887,1H31.064c17.721,6.958,27.612,21.528,32.1,39.635A3.471,3.471,0,0,1,65.776,44Z" transform="translate(34.511 1.324)" fill="#995b3f"/>
      <g id="Grupo_146116" data-name="Grupo 146116" transform="translate(38.025 9.668)">
        <path id="Trazado_194746" data-name="Trazado 194746" d="M35.223,9.942c-.86.023-1.743.046-2.649.046A59.277,59.277,0,0,1,19.21,8.525c.209-.442.442-.883.674-1.325A48.973,48.973,0,0,0,35.223,9.942Z" transform="translate(-19.21 -0.135)" fill="#bfa599"/>
        <path id="Trazado_194747" data-name="Trazado 194747" d="M48.1,5.993a48.73,48.73,0,0,1-16.4,3.147c.883.023,1.766.046,2.673.046A58.763,58.763,0,0,0,48.3,7.59a15.928,15.928,0,0,0-.2-1.6Z" transform="translate(-2.662 -1.733)" fill="#bfa599"/>
        <path id="Trazado_194748" data-name="Trazado 194748" d="M47.147,6.159a28.153,28.153,0,0,1-7.065,3.184,19.474,19.474,0,0,1-.3-1.929A28.856,28.856,0,0,0,45.172,4.16c.674.651,1.348,1.3,1.975,2Z" transform="translate(8.026 -4.16)" fill="#bfa599"/>
      </g>
      <path id="Trazado_194749" data-name="Trazado 194749" d="M32.648,5.364V18.286A42.05,42.05,0,0,1,28,14.567v-9.2a2.324,2.324,0,1,1,4.648,0Z" transform="translate(30.454 4.025)" fill="#995b3f"/>
      <path id="Trazado_194750" data-name="Trazado 194750" d="M75.778,28.972v6.972A18.566,18.566,0,0,1,57.185,54.537H38.593A18.566,18.566,0,0,1,20,35.944v-7.2a4.656,4.656,0,0,1,4.648-4.416L47.889,22,71.13,24.324a4.665,4.665,0,0,1,4.648,4.416Z" transform="translate(19.861 29.13)" fill="#fff"/>
      <path id="Trazado_194751" data-name="Trazado 194751" d="M59.909,28.74v7.2A18.566,18.566,0,0,1,41.316,54.537h-9.3V22l23.241,2.324A4.665,4.665,0,0,1,59.909,28.74Z" transform="translate(35.776 29.13)" fill="#dad4d4"/>
      <path id="Trazado_194752" data-name="Trazado 194752" d="M35.355,51.823H36.9A18.566,18.566,0,0,0,55.493,33.23v-7.2a4.641,4.641,0,0,0-.581-1.975C52.879,36.551,45.548,47.133,35.355,51.823Z" transform="translate(40.192 31.844)" fill="#a29292"/>
      <path id="Trazado_194753" data-name="Trazado 194753" d="M91.433,44.255a7.006,7.006,0,0,1-4.346-2.045L73.4,69.611l-.93,1.859L66.426,83.555,59.454,69.611,45.765,42.21a7.006,7.006,0,0,1-4.346,2.045C21.966,46.347,6,49,6,68.983V90.527H126.852V68.983c0-19.987-15.966-22.636-35.419-24.728Zm-13.387,39.3v-9.3H94.315v9.3Z" transform="translate(1.324 55.889)" fill="#defaff"/>
      <path id="Trazado_194754" data-name="Trazado 194754" d="M37,56H53.269v9.3H37Z" transform="translate(42.37 74.148)" fill="#ffca3a"/>
      <path id="Trazado_194755" data-name="Trazado 194755" d="M42.944,54l-.93,1.859L35.972,67.944,29,54Z" transform="translate(31.778 71.5)" fill="#dfdad4"/>
      <path id="Trazado_194756" data-name="Trazado 194756" d="M24.972,29.62l.116.558a4.681,4.681,0,0,0-2.44,3.858,2.807,2.807,0,0,1-1.162.232A3.481,3.481,0,0,1,18,30.782v-9.3a2.944,2.944,0,0,1,.209-1.092A3.39,3.39,0,0,1,21.486,18a3.481,3.481,0,0,1,3.486,3.486Z" transform="translate(17.213 23.833)" fill="#ffd5c2"/>
      <path id="Trazado_194757" data-name="Trazado 194757" d="M64.432,50.856l-13.689,27.4H36.8L23.11,50.856a6.8,6.8,0,0,0,1.441-2.138L29.246,35.68a18.466,18.466,0,0,0,5.229.744H53.067A18.466,18.466,0,0,0,58.3,35.68l4.695,13.038A6.8,6.8,0,0,0,64.432,50.856Z" transform="translate(23.979 47.243)" fill="#ffd5c2"/>
      <path id="Trazado_194758" data-name="Trazado 194758" d="M48.183,44.255a7.006,7.006,0,0,1-4.346-2.045L38.664,52.564c4.272,6.97,7.256,14.188,7.769,21.7h4.632v9.3h-5.3A35.5,35.5,0,0,1,43.4,90.527H83.6V68.983C83.6,49,67.636,46.347,48.183,44.255Z" transform="translate(44.574 55.889)" fill="#defaff"/>
      <path id="Trazado_194759" data-name="Trazado 194759" d="M47.02,56H42.388a32.526,32.526,0,0,1-.669,9.3h5.3Z" transform="translate(48.619 74.148)" fill="#ff9700"/>
      <path id="Trazado_194760" data-name="Trazado 194760" d="M62.188,50.856a6.8,6.8,0,0,1-1.441-2.138l-1.783-4.95L56.052,35.68a18.466,18.466,0,0,1-5.229.744H32.23A18.466,18.466,0,0,1,27,35.68l-2.2,6.1a53.463,53.463,0,0,0,18.953,3.653,3.489,3.489,0,0,1,2.661,1.253,132.354,132.354,0,0,1,10.6,14.521Z" transform="translate(26.223 47.243)" fill="#ffa180"/>
      <path id="Trazado_194761" data-name="Trazado 194761" d="M79.1,34.727v9.3a3.481,3.481,0,0,1-3.486,3.486,2.807,2.807,0,0,1-1.162-.232,4.665,4.665,0,0,0-4.648-4.416L46.565,40.537,23.324,42.861a4.714,4.714,0,0,0-2.208.558L21,42.861V21.735S32.62,17.3,37.269,8c0,0,13.944,13.526,34.861,13.735V34.727a3.481,3.481,0,0,1,3.486-3.486,3.39,3.39,0,0,1,3.277,2.394A2.944,2.944,0,0,1,79.1,34.727Z" transform="translate(21.185 10.593)" fill="#ffd5c2"/>
      <path id="Trazado_194762" data-name="Trazado 194762" d="M72.13,21.735v6.972C56.07,28.545,44.125,20.55,39.453,16.831a2.5,2.5,0,0,0-3.626.581C30.575,25.059,21,28.707,21,28.707V21.735S32.62,17.3,37.269,8C37.269,8,51.213,21.526,72.13,21.735Z" transform="translate(21.185 10.593)" fill="#ffa180"/>
      <path id="Trazado_194763" data-name="Trazado 194763" d="M39.515,57.375a1.163,1.163,0,0,0,0,2.324A1.163,1.163,0,0,0,39.515,57.375Z" transform="translate(44.213 75.969)" fill="#f9e4e1"/>
      <g id="Grupo_146117" data-name="Grupo 146117" transform="translate(5)">
        <path id="Trazado_194764" data-name="Trazado 194764" d="M92.985,97.832a4.635,4.635,0,0,1-3.83-2.659l-3.909-10.86A20.945,20.945,0,0,0,97.963,65.074V60.307a5.818,5.818,0,0,0,4.648-5.692v-24.4A30.248,30.248,0,0,0,72.4,0H63.1A30.248,30.248,0,0,0,32.889,30.213v24.4a5.816,5.816,0,0,0,4.648,5.692v4.767A20.942,20.942,0,0,0,50.254,84.313L46.389,95.057a4.678,4.678,0,0,1-3.9,2.775C24.92,99.724,5,101.866,5,124.872v21.544a2.322,2.322,0,0,0,2.324,2.324H128.176a2.322,2.322,0,0,0,2.324-2.324V124.872C130.5,101.866,110.58,99.724,92.985,97.832ZM37.537,54.616v-9.3a1.162,1.162,0,0,1,2.324,0v7.623a6.955,6.955,0,0,0-1.822,2.6A1.134,1.134,0,0,1,37.537,54.616Zm6.972-9.3V33.855c3.084-1.422,10.165-5.234,14.521-11.7A57.233,57.233,0,0,0,90.991,34.573V51.118l-23.008-2.3a2.561,2.561,0,0,0-.462,0L44.509,51.13Zm53.454,9.3a1.145,1.145,0,0,1-.5.927,7.054,7.054,0,0,0-1.827-2.629v-7.6a1.162,1.162,0,1,1,2.324,0v9.3ZM63.1,4.648h9.3A25.6,25.6,0,0,1,97.963,30.213v9.415a5.755,5.755,0,0,0-2.324,0v-7.3A2.323,2.323,0,0,0,93.338,30c-17.131-.174-29.541-9.856-32.56-12.45V9.3a2.324,2.324,0,1,0-4.648,0v8.692C51.8,26.046,41.46,30.118,41.355,30.157a2.323,2.323,0,0,0-1.494,2.168v7.3a5.989,5.989,0,0,0-1.162-.116,5.814,5.814,0,0,0-1.162.119V30.213A25.6,25.6,0,0,1,63.1,4.648ZM42.185,65.074V58.1a2.4,2.4,0,0,1,2.556-2.336l23.008-2.3,23.241,2.312A2.325,2.325,0,0,1,93.315,58.1v6.972A16.289,16.289,0,0,1,77.046,81.343H58.454A16.289,16.289,0,0,1,42.185,65.074ZM58.454,85.991H77.046a20.829,20.829,0,0,0,3.737-.353l4.044,11.228a8.971,8.971,0,0,0,.851,1.527L73.286,123.176H62.214l-12.4-24.8a9.53,9.53,0,0,0,.9-1.627l4-11.111a20.85,20.85,0,0,0,3.737.353Zm12.508,41.833-3.212,6.424-3.212-6.424Zm54.89,16.269H104.935V130.148a2.324,2.324,0,0,0-4.648,0v13.944H35.213V130.148a2.324,2.324,0,0,0-4.648,0v13.944H9.648v-19.22c0-17.521,13.2-20.252,33.325-22.418a9.463,9.463,0,0,0,3.219-.93l19.48,38.956a2.323,2.323,0,0,0,4.158,0l19.478-38.951a9.488,9.488,0,0,0,3.2.923c20.14,2.168,33.343,4.9,33.343,22.418Z" transform="translate(-5)" fill="#313131"/>
        <path id="Trazado_194765" data-name="Trazado 194765" d="M24.581,31.958l20.661-2.3,20.661,2.3a2.4,2.4,0,0,0,.258.014,2.324,2.324,0,0,0,.253-4.634L45.5,25.014a2.372,2.372,0,0,0-.514,0L24.067,27.338a2.324,2.324,0,1,0,.514,4.62Z" transform="translate(17.508 33.102)" fill="#313131"/>
        <path id="Trazado_194766" data-name="Trazado 194766" d="M65.9,35.958a2.4,2.4,0,0,0,.258.014,2.324,2.324,0,0,0,.253-4.634L45.5,29.014a2.372,2.372,0,0,0-.514,0L24.067,31.338a2.324,2.324,0,0,0,.511,4.62l20.663-2.3Z" transform="translate(17.508 38.398)" fill="#313131"/>
        <path id="Trazado_194767" data-name="Trazado 194767" d="M34.581,17.244a8.954,8.954,0,0,1-7.228,0A2.324,2.324,0,0,0,25.285,21.4a14.222,14.222,0,0,0,5.875,1.276,12.209,12.209,0,0,0,5.5-1.276,2.324,2.324,0,0,0-2.078-4.158Z" transform="translate(20.158 22.509)" fill="#313131"/>
        <path id="Trazado_194768" data-name="Trazado 194768" d="M35.286,21.4a14.223,14.223,0,0,0,5.875,1.276,12.209,12.209,0,0,0,5.5-1.276,2.325,2.325,0,0,0-2.08-4.158,8.954,8.954,0,0,1-7.228,0A2.323,2.323,0,0,0,35.286,21.4Z" transform="translate(33.397 22.51)" fill="#313131"/>
        <path id="Trazado_194769" data-name="Trazado 194769" d="M54.593,55H38.324A2.322,2.322,0,0,0,36,57.324v9.3a2.322,2.322,0,0,0,2.324,2.324H54.593a2.322,2.322,0,0,0,2.324-2.324v-9.3A2.322,2.322,0,0,0,54.593,55Zm-2.324,9.3H40.648V59.648h11.62Z" transform="translate(36.046 72.824)" fill="#313131"/>
      </g>
    </g>
    <g id="escudo-seguro_1_" data-name="escudo-seguro (1)" transform="translate(1035.069 4671.392)">
      <g id="Grupo_146118" data-name="Grupo 146118" transform="translate(39.069 1.387)">
        <path id="Trazado_194770" data-name="Trazado 194770" d="M90.047,36.017l-17.1,17.1a3.124,3.124,0,0,1-4.418,0l-8.193-8.192a3.124,3.124,0,0,1,4.418-4.419l5.984,5.983L85.628,31.6a3.124,3.124,0,0,1,4.418,4.418ZM75.189,10.768A108.467,108.467,0,0,1,48.452,22.109V36.285c0,26.6,23,37.667,26.737,37.667s26.738-11.07,26.738-37.667V22.109A111.854,111.854,0,0,1,75.189,10.768Z" transform="translate(-48.452 -10.768)" fill="#18bab9"/>
        <path id="Trazado_194771" data-name="Trazado 194771" d="M147.1,187.8l17.1-17.1a3.124,3.124,0,0,0-4.418-4.418l-14.894,14.894-5.984-5.983a3.124,3.124,0,0,0-4.418,4.419l8.193,8.192A3.124,3.124,0,0,0,147.1,187.8Z" transform="translate(-122.609 -145.45)" fill="#f18385"/>
      </g>
      <g id="Grupo_146119" data-name="Grupo 146119" transform="translate(37.681 0)">
        <path id="Trazado_194772" data-name="Trazado 194772" d="M92.91,11.389a109.718,109.718,0,0,1-26.4-11.2,1.387,1.387,0,0,0-1.411,0,106.713,106.713,0,0,1-26.4,11.2,1.387,1.387,0,0,0-1.021,1.338V26.9A40.784,40.784,0,0,0,50.066,56.7c6.083,5.96,13.168,9.256,15.74,9.256s9.658-3.3,15.74-9.256A40.784,40.784,0,0,0,93.931,26.9V12.727A1.387,1.387,0,0,0,92.91,11.389ZM91.156,26.9A38.064,38.064,0,0,1,79.6,54.72c-5.981,5.861-12.377,8.463-13.8,8.463s-7.817-2.6-13.8-8.463A38.065,38.065,0,0,1,40.456,26.9V13.781A109.27,109.27,0,0,0,65.806,2.995,112.728,112.728,0,0,0,91.156,13.78Z" transform="translate(-37.681 0)" fill="#000003"/>
        <path id="Trazado_194773" data-name="Trazado 194773" d="M90.66,99.822a1.387,1.387,0,0,0-1.8-.782c-2.479.977-5.023,1.876-7.561,2.672a1.388,1.388,0,0,0-.972,1.324v5.358a1.387,1.387,0,1,0,2.775,0V104.05c2.277-.737,4.553-1.552,6.776-2.428A1.387,1.387,0,0,0,90.66,99.822Z" transform="translate(-74.833 -86.197)" fill="#000003"/>
        <path id="Trazado_194774" data-name="Trazado 194774" d="M171.593,88.988a1.388,1.388,0,0,0,.556-.117l.026-.011a1.387,1.387,0,1,0-1.12-2.539l-.022.01a1.387,1.387,0,0,0,.561,2.657Z" transform="translate(-153.13 -75.1)" fill="#000003"/>
        <path id="Trazado_194775" data-name="Trazado 194775" d="M313.764,345.754a1.388,1.388,0,0,0-1.921.4,33.77,33.77,0,0,1-3.987,4.98,35.438,35.438,0,0,1-3.98,3.541,1.387,1.387,0,1,0,1.683,2.207,38.238,38.238,0,0,0,4.292-3.819,36.508,36.508,0,0,0,4.315-5.391A1.387,1.387,0,0,0,313.764,345.754Z" transform="translate(-269.109 -301.016)" fill="#000003"/>
        <path id="Trazado_194776" data-name="Trazado 194776" d="M277.336,432.156l-.08.047a1.387,1.387,0,1,0,1.39,2.4l.092-.054a1.387,1.387,0,1,0-1.4-2.394Z" transform="translate(-245.79 -376.318)" fill="#000003"/>
        <path id="Trazado_194777" data-name="Trazado 194777" d="M130.521,164.83a4.512,4.512,0,0,0-6.38,6.381l8.193,8.192a4.513,4.513,0,0,0,6.381,0l17.1-17.1a4.512,4.512,0,0,0-6.381-6.38l-13.912,13.912Zm20.877-6.948a1.737,1.737,0,1,1,2.456,2.456l-17.1,17.1a1.738,1.738,0,0,1-2.457,0l-8.192-8.192a1.737,1.737,0,0,1,2.456-2.456l5.983,5.983a1.388,1.388,0,0,0,1.962,0Z" transform="translate(-111.853 -134.683)" fill="#000003"/>
      </g>
    </g>
  </g>
</svg>
