<svg xmlns="http://www.w3.org/2000/svg" width="483" height="201.001" viewBox="0 0 483 201.001">
  <g id="Grupo_146150" data-name="Grupo 146150" transform="translate(-937 -6951)">
    <rect id="Rectángulo_44545" data-name="Rectángulo 44545" width="483" height="201" transform="translate(937 6951)" fill="#fde9e0"/>
    <g id="Grupo_146149" data-name="Grupo 146149" transform="translate(0 2.65)">
      <g id="productos-quimicos" transform="translate(1015.233 7011.822)">
        <g id="Grupo_146138" data-name="Grupo 146138" transform="translate(19.325 8.178)">
          <g id="Grupo_146122" data-name="Grupo 146122" transform="translate(0 11.687)">
            <path id="Trazado_194778" data-name="Trazado 194778" d="M132.16,147.314H26.39a5.9,5.9,0,0,1-4.854-9.26L45.8,103.015,65.938,73.93a2.7,2.7,0,0,0,.48-1.537V31H92.132v7.345a2.144,2.144,0,0,0-1.871,1.079C79.432,58.187,82.524,52.831,76.05,64.044a2.156,2.156,0,0,0,1.866,3.236H92.132v5.113a2.7,2.7,0,0,0,.48,1.537l20.138,29.085,24.264,35.039A5.9,5.9,0,0,1,132.16,147.314Z" transform="translate(-20.477 -31)" fill="#defaff"/>
          </g>
          <g id="Grupo_146123" data-name="Grupo 146123" transform="translate(45.94 11.687)">
            <path id="Trazado_194779" data-name="Trazado 194779" d="M131.375,31v7.345a2.144,2.144,0,0,0-1.871,1.079c-10.829,18.763-7.737,13.407-14.211,24.62a2.156,2.156,0,0,0,1.866,3.236h14.216v3.775H117.158a5.936,5.936,0,0,1-5.134-8.9l14.211-24.62a5.929,5.929,0,0,1,1.688-1.861H105.66V31Z" transform="translate(-105.66 -31)" fill="#aeaeae"/>
          </g>
          <g id="Grupo_146125" data-name="Grupo 146125" transform="translate(40.962 0)">
            <path id="Trazado_194781" data-name="Trazado 194781" d="M132.1,11.1v8.144a1.77,1.77,0,0,1-1.769,1.769H98.2a1.77,1.77,0,0,1-1.769-1.769V11.1A1.771,1.771,0,0,1,98.2,9.33h32.132A1.771,1.771,0,0,1,132.1,11.1Z" transform="translate(-96.43 -9.33)" fill="#fff"/>
          </g>
          <g id="Grupo_146126" data-name="Grupo 146126" transform="translate(0 83.702)">
            <path id="Trazado_194782" data-name="Trazado 194782" d="M132.16,208.829H26.39a5.9,5.9,0,0,1-4.854-9.26L45.8,164.53H112.75l24.264,35.039a5.9,5.9,0,0,1-4.854,9.26Z" transform="translate(-20.477 -164.53)" fill="#8ee5f6"/>
          </g>
          <g id="Grupo_146127" data-name="Grupo 146127" transform="translate(84.367 82.353)">
            <path id="Trazado_194783" data-name="Trazado 194783" d="M200.788,198.284l-.921-1.33a1.348,1.348,0,0,1,2.217-1.535l.921,1.33a1.348,1.348,0,0,1-2.217,1.535ZM196.8,192.52,177.15,164.145a1.348,1.348,0,0,1,2.217-1.535l19.647,28.374a1.348,1.348,0,1,1-2.217,1.535Z" transform="translate(-176.91 -162.029)" fill="#58d3d2"/>
          </g>
          <g id="Grupo_146130" data-name="Grupo 146130" transform="translate(25.187 100.135)">
            <g id="Grupo_146128" data-name="Grupo 146128">
              <path id="Trazado_194784" data-name="Trazado 194784" d="M76.9,214.434a9.717,9.717,0,1,1,9.717-9.717A9.728,9.728,0,0,1,76.9,214.434Z" transform="translate(-67.18 -195)" fill="#f18385"/>
            </g>
            <g id="Grupo_146129" data-name="Grupo 146129" transform="translate(3.775 3.775)">
              <circle id="Elipse_1337" data-name="Elipse 1337" cx="5.942" cy="5.942" r="5.942" fill="#ffcac2"/>
            </g>
          </g>
          <g id="Grupo_146133" data-name="Grupo 146133" transform="translate(49.08 59.474)">
            <g id="Grupo_146131" data-name="Grupo 146131">
              <circle id="Elipse_1338" data-name="Elipse 1338" cx="9.717" cy="9.717" r="9.717" fill="#aeaeae"/>
            </g>
            <g id="Grupo_146132" data-name="Grupo 146132" transform="translate(3.775 3.775)">
              <circle id="Elipse_1339" data-name="Elipse 1339" cx="5.942" cy="5.942" r="5.942" fill="#defaff"/>
            </g>
          </g>
          <g id="Grupo_146134" data-name="Grupo 146134" transform="translate(55.28 19.032)">
            <path id="Trazado_194785" data-name="Trazado 194785" d="M153.563,73.554H125.136a2.156,2.156,0,0,1-1.866-3.236c6.474-11.214,3.383-5.859,14.211-24.62a2.158,2.158,0,0,1,3.737,0l14.216,24.62A2.158,2.158,0,0,1,153.563,73.554Z" transform="translate(-122.977 -44.62)" fill="#efbf27"/>
          </g>
          <g id="Grupo_146137" data-name="Grupo 146137" transform="translate(64.477 90.417)">
            <g id="Grupo_146135" data-name="Grupo 146135">
              <circle id="Elipse_1340" data-name="Elipse 1340" cx="9.717" cy="9.717" r="9.717" fill="#f18385"/>
            </g>
            <g id="Grupo_146136" data-name="Grupo 146136" transform="translate(3.775 3.775)">
              <circle id="Elipse_1341" data-name="Elipse 1341" cx="5.942" cy="5.942" r="5.942" fill="#ffcac2"/>
            </g>
          </g>
        </g>
        <g id="Grupo_146139" data-name="Grupo 146139" transform="translate(17.976 6.83)">
          <path id="Trazado_194786" data-name="Trazado 194786" d="M136.967,126.154l-44.4-64.125a1.334,1.334,0,0,1-.243-.771V57.493h12.863a3.518,3.518,0,0,0,3.042-5.258L94.016,27.615a3.532,3.532,0,0,0-1.688-1.484V21.214h1.861A3.126,3.126,0,0,0,97.306,18.1V9.953A3.123,3.123,0,0,0,94.189,6.83H80.8a1.348,1.348,0,0,0,0,2.7H94.189a.422.422,0,0,1,.421.426V18.1a.428.428,0,0,1-.421.421H62.056a.428.428,0,0,1-.421-.421V9.953a.422.422,0,0,1,.421-.426h7.955a1.348,1.348,0,0,0,0-2.7H62.056a3.123,3.123,0,0,0-3.117,3.123V18.1a3.126,3.126,0,0,0,3.117,3.117h1.861V61.258a1.334,1.334,0,0,1-.243.771l-44.4,64.125a7.257,7.257,0,0,0,5.965,11.374H93.779a1.348,1.348,0,0,0,0-2.7H25.237a4.562,4.562,0,0,1-3.743-7.146L45.351,93.228h5.769a1.348,1.348,0,1,0,0-2.7h-3.9L65.891,63.561a4,4,0,0,0,.723-2.3V21.214H89.632v4.915a3.51,3.51,0,0,0-1.688,1.486L73.733,52.235a3.509,3.509,0,0,0,3.031,5.258H89.632v3.764a4.039,4.039,0,0,0,.717,2.3l18.678,26.971H61.905a1.348,1.348,0,1,0,0,2.7h48.989l23.862,34.457a4.567,4.567,0,0,1-3.748,7.146H104.565a1.348,1.348,0,0,0,0,2.7h26.443A7.254,7.254,0,0,0,136.967,126.154Zm-60.9-72.57,14.216-24.62a.81.81,0,0,1,1.4,0L105.9,53.583a.817.817,0,0,1-.707,1.213H76.764a.812.812,0,0,1-.7-1.213Z" transform="translate(-17.976 -6.83)"/>
        </g>
        <g id="Grupo_146140" data-name="Grupo 146140" transform="translate(97.829 134.831)">
          <path id="Trazado_194787" data-name="Trazado 194787" d="M166.04,245.518a1.346,1.346,0,1,0,1.343-1.348A1.348,1.348,0,0,0,166.04,245.518Z" transform="translate(-166.04 -244.17)"/>
        </g>
        <g id="Grupo_146141" data-name="Grupo 146141" transform="translate(74.056 6.83)">
          <circle id="Elipse_1342" data-name="Elipse 1342" cx="1.348" cy="1.348" r="1.348"/>
        </g>
        <g id="Grupo_146142" data-name="Grupo 146142" transform="translate(55.164 90.532)">
          <circle id="Elipse_1343" data-name="Elipse 1343" cx="1.348" cy="1.348" r="1.348"/>
        </g>
        <g id="Grupo_146143" data-name="Grupo 146143" transform="translate(46.939 110.74)">
          <path id="Trazado_194788" data-name="Trazado 194788" d="M71.68,206.792a7.289,7.289,0,1,0,7.292-7.292,7.3,7.3,0,0,0-7.292,7.292Zm11.881,0a4.592,4.592,0,1,1-4.59-4.595A4.612,4.612,0,0,1,83.561,206.792Z" transform="translate(-71.68 -199.5)"/>
        </g>
        <g id="Grupo_146144" data-name="Grupo 146144" transform="translate(70.831 70.081)">
          <path id="Trazado_194789" data-name="Trazado 194789" d="M130.563,131.4a7.292,7.292,0,1,0-7.292,7.286A7.3,7.3,0,0,0,130.563,131.4Zm-11.887,0a4.595,4.595,0,1,1,4.595,4.59,4.613,4.613,0,0,1-4.595-4.59Z" transform="translate(-115.98 -124.11)"/>
        </g>
        <g id="Grupo_146145" data-name="Grupo 146145" transform="translate(89.632 49.053)">
          <path id="Trazado_194790" data-name="Trazado 194790" d="M153.537,87.347v-.879a1.348,1.348,0,1,0-2.7,0v.879a1.348,1.348,0,1,0,2.7,0Z" transform="translate(-150.84 -85.12)"/>
        </g>
        <g id="Grupo_146146" data-name="Grupo 146146" transform="translate(89.632 35.635)">
          <path id="Trazado_194791" data-name="Trazado 194791" d="M152.188,70.25a1.349,1.349,0,0,0,1.348-1.348V61.588a1.348,1.348,0,1,0-2.7,0V68.9A1.349,1.349,0,0,0,152.188,70.25Z" transform="translate(-150.84 -60.24)"/>
        </g>
        <g id="Grupo_146147" data-name="Grupo 146147" transform="translate(86.229 101.022)">
          <path id="Trazado_194792" data-name="Trazado 194792" d="M151.822,181.48a7.292,7.292,0,1,0,7.292,7.292A7.3,7.3,0,0,0,151.822,181.48Zm0,11.887a4.595,4.595,0,1,1,4.595-4.595A4.613,4.613,0,0,1,151.822,193.367Z" transform="translate(-144.53 -181.48)"/>
        </g>
      </g>
      <g id="enfermero" transform="translate(1116.25 7050.434)">
        <path id="Trazado_194744" data-name="Trazado 194744" d="M56.639,20.953a36.536,36.536,0,0,1-23.184-9.134C30.365,18,22.637,20.953,22.637,20.953v8.64a2.315,2.315,0,0,0-2.318-2.318,2.254,2.254,0,0,0-2.179,1.592L18,28.82V19.547A18.6,18.6,0,0,1,36.547,1h6.182A18.6,18.6,0,0,1,61.276,19.547V28.82l-.139.046a2.254,2.254,0,0,0-2.179-1.592,2.315,2.315,0,0,0-2.318,2.318Z" transform="translate(7.092 0.546)" fill="#fde9e0"/>
        <path id="Trazado_194745" data-name="Trazado 194745" d="M54.149,29.593V19.547A18.6,18.6,0,0,0,35.6,1H31.064C42.849,5.627,49.427,15.317,52.415,27.358A2.308,2.308,0,0,1,54.149,29.593Z" transform="translate(14.22 0.546)" fill="#995b3f"/>
        <g id="Grupo_146116" data-name="Grupo 146116" transform="translate(26.963 6.43)">
          <path id="Trazado_194746" data-name="Trazado 194746" d="M29.859,9.024c-.572.015-1.159.031-1.762.031a39.421,39.421,0,0,1-8.887-.974c.139-.294.294-.587.448-.881a32.569,32.569,0,0,0,10.2,1.824Z" transform="translate(-19.21 -2.501)" fill="#bfa599"/>
          <path id="Trazado_194747" data-name="Trazado 194747" d="M42.612,5.993a32.407,32.407,0,0,1-10.9,2.093c.587.015,1.175.031,1.777.031a39.079,39.079,0,0,0,9.256-1.062,10.6,10.6,0,0,0-.13-1.062Z" transform="translate(-12.391 -3.16)" fill="#bfa599"/>
          <path id="Trazado_194748" data-name="Trazado 194748" d="M44.679,5.489a18.723,18.723,0,0,1-4.7,2.117,12.95,12.95,0,0,1-.2-1.283A19.19,19.19,0,0,0,43.366,4.16c.448.433.9.866,1.314,1.329Z" transform="translate(-7.988 -4.16)" fill="#bfa599"/>
        </g>
        <path id="Trazado_194749" data-name="Trazado 194749" d="M31.091,4.586v8.593A27.965,27.965,0,0,1,28,10.706V4.586a1.546,1.546,0,0,1,3.091,0Z" transform="translate(12.548 1.659)" fill="#995b3f"/>
        <path id="Trazado_194750" data-name="Trazado 194750" d="M57.094,26.637v4.637A12.347,12.347,0,0,1,44.729,43.638H32.365A12.347,12.347,0,0,1,20,31.273V26.482a3.1,3.1,0,0,1,3.091-2.937L38.547,22,54,23.546a3.1,3.1,0,0,1,3.091,2.937Z" transform="translate(8.184 12.003)" fill="#fff"/>
        <path id="Trazado_194751" data-name="Trazado 194751" d="M50.567,26.482v4.791A12.347,12.347,0,0,1,38.2,43.638H32.02V22l15.456,1.546A3.1,3.1,0,0,1,50.567,26.482Z" transform="translate(14.741 12.003)" fill="#dad4d4"/>
        <path id="Trazado_194752" data-name="Trazado 194752" d="M35.355,42.52h1.028A12.347,12.347,0,0,0,48.747,30.155V25.364a3.086,3.086,0,0,0-.386-1.314C47.009,32.364,42.134,39.4,35.355,42.52Z" transform="translate(16.561 13.121)" fill="#a29292"/>
        <path id="Trazado_194753" data-name="Trazado 194753" d="M62.815,43.57a4.659,4.659,0,0,1-2.89-1.36l-9.1,18.222L50.2,61.669l-4.018,8.037-4.637-9.273-9.1-18.222a4.659,4.659,0,0,1-2.89,1.36C16.618,44.961,6,46.723,6,60.015V74.342H86.37V60.015c0-13.292-10.618-15.054-23.554-16.445Zm-8.9,26.136V63.523H64.732v6.182Z" transform="translate(0.546 23.029)" fill="#defaff"/>
        <path id="Trazado_194754" data-name="Trazado 194754" d="M37,56H47.819v6.182H37Z" transform="translate(17.458 30.552)" fill="#ffca3a"/>
        <path id="Trazado_194755" data-name="Trazado 194755" d="M38.273,54l-.618,1.236-4.018,8.037L29,54Z" transform="translate(13.094 29.461)" fill="#dfdad4"/>
        <path id="Trazado_194756" data-name="Trazado 194756" d="M22.637,25.728l.077.371a3.113,3.113,0,0,0-1.623,2.566,1.867,1.867,0,0,1-.773.155A2.315,2.315,0,0,1,18,26.5V20.318a1.958,1.958,0,0,1,.139-.726A2.254,2.254,0,0,1,20.318,18a2.315,2.315,0,0,1,2.318,2.318Z" transform="translate(7.092 9.82)" fill="#ffd5c2"/>
        <path id="Trazado_194757" data-name="Trazado 194757" d="M50.59,45.773l-9.1,18.222H32.213l-9.1-18.222a4.522,4.522,0,0,0,.958-1.422L27.19,35.68a12.28,12.28,0,0,0,3.478.495H43.032a12.28,12.28,0,0,0,3.478-.495l3.122,8.671A4.522,4.522,0,0,0,50.59,45.773Z" transform="translate(9.88 19.466)" fill="#ffd5c2"/>
        <path id="Trazado_194758" data-name="Trazado 194758" d="M44.995,43.57a4.659,4.659,0,0,1-2.89-1.36L38.664,49.1c2.841,4.635,4.825,9.436,5.167,14.428h3.08v6.182H43.386a23.608,23.608,0,0,1-1.575,4.637H68.549V60.015c0-13.292-10.618-15.054-23.554-16.445Z" transform="translate(18.366 23.029)" fill="#defaff"/>
        <path id="Trazado_194759" data-name="Trazado 194759" d="M45.244,56h-3.08a21.63,21.63,0,0,1-.445,6.182h3.525Z" transform="translate(20.033 30.552)" fill="#ff9700"/>
        <path id="Trazado_194760" data-name="Trazado 194760" d="M49.665,45.773a4.521,4.521,0,0,1-.958-1.422l-1.185-3.292L45.585,35.68a12.28,12.28,0,0,1-3.478.495H29.743a12.28,12.28,0,0,1-3.478-.495l-1.461,4.059a35.554,35.554,0,0,0,12.6,2.43,2.32,2.32,0,0,1,1.77.833,88.018,88.018,0,0,1,7.048,9.657Z" transform="translate(10.805 19.466)" fill="#ffa180"/>
        <path id="Trazado_194761" data-name="Trazado 194761" d="M59.639,25.774v6.182a2.315,2.315,0,0,1-2.318,2.318,1.867,1.867,0,0,1-.773-.155,3.1,3.1,0,0,0-3.091-2.937L38,29.638,22.546,31.184a3.135,3.135,0,0,0-1.468.371L21,31.184V17.134S28.728,14.182,31.819,8A36.536,36.536,0,0,0,55,17.134v8.64a2.315,2.315,0,0,1,2.318-2.318A2.254,2.254,0,0,1,59.5,25.048,1.958,1.958,0,0,1,59.639,25.774Z" transform="translate(8.729 4.365)" fill="#ffd5c2"/>
        <path id="Trazado_194762" data-name="Trazado 194762" d="M55,17.134v4.637a36.479,36.479,0,0,1-21.731-7.9,1.662,1.662,0,0,0-2.411.386C27.368,19.344,21,21.771,21,21.771V17.134S28.728,14.182,31.819,8A36.536,36.536,0,0,0,55,17.134Z" transform="translate(8.729 4.365)" fill="#ffa180"/>
        <path id="Trazado_194763" data-name="Trazado 194763" d="M39.139,57.375a.773.773,0,0,0,0,1.546A.773.773,0,0,0,39.139,57.375Z" transform="translate(18.218 31.302)" fill="#f9e4e1"/>
        <g id="Grupo_146117" data-name="Grupo 146117" transform="translate(5)">
          <path id="Trazado_194764" data-name="Trazado 194764" d="M63.512,65.061a3.082,3.082,0,0,1-2.547-1.768l-2.6-7.222a13.929,13.929,0,0,0,8.457-12.794v-3.17a3.869,3.869,0,0,0,3.091-3.785V20.092A20.116,20.116,0,0,0,49.822,0H43.639A20.116,20.116,0,0,0,23.547,20.092V36.321a3.868,3.868,0,0,0,3.091,3.785v3.17A13.927,13.927,0,0,0,35.1,56.07l-2.57,7.145a3.111,3.111,0,0,1-2.592,1.845C18.247,66.319,5,67.744,5,83.043V97.371a1.544,1.544,0,0,0,1.546,1.546h80.37a1.544,1.544,0,0,0,1.546-1.546V83.043C88.461,67.744,75.214,66.319,63.512,65.061ZM26.638,36.321V30.139a.773.773,0,1,1,1.546,0v5.069a4.625,4.625,0,0,0-1.212,1.729A.754.754,0,0,1,26.638,36.321Zm4.637-6.182V22.514c2.051-.946,6.76-3.481,9.657-7.783a38.061,38.061,0,0,0,21.255,8.261v11l-15.3-1.53a1.7,1.7,0,0,0-.308,0L31.275,34Zm35.548,6.182a.761.761,0,0,1-.331.617,4.691,4.691,0,0,0-1.215-1.748V30.139a.773.773,0,1,1,1.546,0v6.182ZM43.639,3.091h6.182a17.021,17.021,0,0,1,17,17v6.261a3.827,3.827,0,0,0-1.546,0V21.5a1.545,1.545,0,0,0-1.53-1.546C52.355,19.837,44.1,13.4,42.094,11.674V6.182a1.546,1.546,0,1,0-3.091,0v5.78c-2.878,5.358-9.756,8.066-9.825,8.093a1.545,1.545,0,0,0-.994,1.442v4.855a3.983,3.983,0,0,0-.773-.077,3.866,3.866,0,0,0-.773.079V20.092a17.021,17.021,0,0,1,17-17ZM29.729,43.276V38.639a1.6,1.6,0,0,1,1.7-1.553l15.3-1.53,15.456,1.538a1.546,1.546,0,0,1,1.546,1.546v4.637A10.833,10.833,0,0,1,52.913,54.095H40.548A10.833,10.833,0,0,1,29.729,43.276Zm10.819,13.91H52.913a13.852,13.852,0,0,0,2.485-.235l2.689,7.467a5.966,5.966,0,0,0,.566,1.015L50.412,81.915H43.049L34.8,65.422a6.338,6.338,0,0,0,.6-1.082l2.66-7.389a13.865,13.865,0,0,0,2.485.235Zm8.318,27.82L46.73,89.278l-2.136-4.272Zm36.5,10.819H71.46V86.552a1.546,1.546,0,0,0-3.091,0v9.273H25.092V86.552a1.546,1.546,0,0,0-3.091,0v9.273H8.091V83.043c0-11.652,8.78-13.468,22.162-14.909a6.293,6.293,0,0,0,2.141-.618L45.349,93.424a1.545,1.545,0,0,0,2.765,0l12.953-25.9a6.31,6.31,0,0,0,2.128.614C76.589,69.577,85.37,71.391,85.37,83.043Z" transform="translate(-5)" fill="#313131"/>
          <path id="Trazado_194765" data-name="Trazado 194765" d="M23.716,29.627,37.456,28.1,51.2,29.627a1.6,1.6,0,0,0,.172.009,1.546,1.546,0,0,0,.168-3.082l-13.91-1.546a1.577,1.577,0,0,0-.342,0l-13.91,1.546a1.546,1.546,0,1,0,.342,3.073Z" transform="translate(4.274 13.639)" fill="#313131"/>
          <path id="Trazado_194766" data-name="Trazado 194766" d="M51.2,33.627a1.6,1.6,0,0,0,.172.009,1.546,1.546,0,0,0,.168-3.082l-13.91-1.546a1.577,1.577,0,0,0-.342,0l-13.91,1.546a1.546,1.546,0,0,0,.34,3.073L37.456,32.1Z" transform="translate(4.274 15.822)" fill="#313131"/>
          <path id="Trazado_194767" data-name="Trazado 194767" d="M31.037,17.162a5.955,5.955,0,0,1-4.807,0,1.546,1.546,0,0,0-1.376,2.768,9.458,9.458,0,0,0,3.907.849,8.119,8.119,0,0,0,3.657-.849,1.546,1.546,0,0,0-1.382-2.765Z" transform="translate(5.366 9.275)" fill="#313131"/>
          <path id="Trazado_194768" data-name="Trazado 194768" d="M34.855,19.929a9.458,9.458,0,0,0,3.907.849,8.119,8.119,0,0,0,3.657-.849,1.546,1.546,0,0,0-1.383-2.765,5.955,5.955,0,0,1-4.807,0,1.545,1.545,0,0,0-1.374,2.768Z" transform="translate(10.821 9.275)" fill="#313131"/>
          <path id="Trazado_194769" data-name="Trazado 194769" d="M48.365,55H37.546A1.544,1.544,0,0,0,36,56.546v6.182a1.544,1.544,0,0,0,1.546,1.546H48.365a1.544,1.544,0,0,0,1.546-1.546V56.546A1.544,1.544,0,0,0,48.365,55Zm-1.546,6.182H39.091V58.091h7.728Z" transform="translate(11.913 30.006)" fill="#313131"/>
        </g>
      </g>
    </g>
  </g>
</svg>
