<svg xmlns="http://www.w3.org/2000/svg" width="61.238" height="72.971" viewBox="0 0 61.238 72.971">
  <g id="Grupo_146096" data-name="Grupo 146096" transform="translate(-342 -1557)">
    <g id="tratamiento-de-belleza" transform="translate(322.797 1555.967)">
      <path id="Trazado_194493" data-name="Trazado 194493" d="M68.485,16.779C64.51,8.534,55.3,2.526,46.545,2.529s-17.965,6-21.941,14.25c-2.574,5.338-2.429,15.312-1.455,20.11H69.941C70.914,32.091,71.06,22.117,68.485,16.779Z" transform="translate(-1.386 -0.629)" fill="#defaff"/>
      <path id="Trazado_194494" data-name="Trazado 194494" d="M96.288,59.681,94.833,72.06c3.133.512,6.605-3.046,7.122-6.178C102.593,62.034,100.212,59.358,96.288,59.681Z" transform="translate(-31.81 -24.656)" fill="#fdded0"/>
      <path id="Trazado_194495" data-name="Trazado 194495" d="M20.8,65.88c.521,3.132,3.989,6.69,7.122,6.178L26.467,59.681C22.543,59.358,20.162,62.034,20.8,65.88Z" transform="translate(-0.629 -24.656)" fill="#fdded0"/>
      <path id="Trazado_194496" data-name="Trazado 194496" d="M66.733,116.625h-23a.579.579,0,0,1-.353-1.037c2.486-1.837,3.778-4.85,4.444-7.439a22.319,22.319,0,0,0,.62-3.708H62.022a22.318,22.318,0,0,0,.62,3.708c.666,2.59,1.958,5.6,4.444,7.439a.579.579,0,0,1-.353,1.037Z" transform="translate(-10.074 -43.493)" fill="#fdded0"/>
      <path id="Trazado_194497" data-name="Trazado 194497" d="M66.031,108.148a21.538,21.538,0,0,1-5.968,2.387,6.226,6.226,0,0,1-2.885,0,21.538,21.538,0,0,1-5.968-2.387,22.318,22.318,0,0,0,.62-3.708H65.411A22.318,22.318,0,0,0,66.031,108.148Z" transform="translate(-13.462 -43.493)" fill="#f5c8b3"/>
      <path id="Trazado_194498" data-name="Trazado 194498" d="M62.728,65.311A23.442,23.442,0,0,1,51.418,71.9a6.225,6.225,0,0,1-2.885,0,23.442,23.442,0,0,1-11.31-6.594c-4.653-4.514-6.831-13.234-6.541-23.7a29.739,29.739,0,0,1,1.761-8.488c4.461-.093,7.526-4.763,9.856-8.007,4.131-5.759,12.011-5.481,15.2-.313a1.165,1.165,0,0,0,.91.574,6.716,6.716,0,0,1,1.924.2c3.865,1.408,4.062,5.985,7.474,7.138a34.492,34.492,0,0,1,1.466,8.894c.29,10.47-1.889,19.19-6.541,23.7Z" transform="translate(-4.817 -8.338)" fill="#fdded0"/>
      <g id="Grupo_146050" data-name="Grupo 146050" transform="translate(19.203 1.033)">
        <path id="Trazado_194499" data-name="Trazado 194499" d="M61.818,78.475a4.25,4.25,0,0,1-2.77-1.152A.811.811,0,0,1,60.1,76.1a2.3,2.3,0,0,0,3.43,0,.811.811,0,0,1,1.055,1.227,4.25,4.25,0,0,1-2.77,1.152Z" transform="translate(-35.862 -32.539)" fill="#332c44"/>
        <path id="Trazado_194500" data-name="Trazado 194500" d="M65.647,86.354a.615.615,0,0,0-.838-.232l-.11.063a1.479,1.479,0,0,1-.426.123,4.751,4.751,0,0,1-.622.055,8,8,0,0,1-1.333-.088c-.108-.016-.625-.146-.684-.158a1.746,1.746,0,0,0-1.384.3,1.373,1.373,0,0,1-1.67,0,1.746,1.746,0,0,0-1.384-.3c-.058.012-.577.141-.684.158a8,8,0,0,1-1.333.088,4.751,4.751,0,0,1-.622-.055,1.479,1.479,0,0,1-.426-.123l-.11-.063a.614.614,0,0,0-.73.976,2.328,2.328,0,0,0,.9.521,4.475,4.475,0,0,0,.843.2,6.424,6.424,0,0,0,1.641.075,3.476,3.476,0,0,1,.778-.07c.179.042.29.186.443.275a2.318,2.318,0,0,0,.518.225,3.45,3.45,0,0,0,2,0,2.318,2.318,0,0,0,.518-.225c.155-.089.264-.232.443-.275a3.476,3.476,0,0,1,.778.07,6.424,6.424,0,0,0,1.641-.075,4.475,4.475,0,0,0,.843-.2,2.328,2.328,0,0,0,.9-.521.615.615,0,0,0,.11-.746Z" transform="translate(-33.462 -36.788)" fill="#332c44"/>
        <path id="Trazado_194501" data-name="Trazado 194501" d="M62.694,94.2a3.209,3.209,0,0,1-1.4-.331.869.869,0,0,1,.753-1.564,1.4,1.4,0,0,0,1.294,0,.869.869,0,0,1,.753,1.564A3.212,3.212,0,0,1,62.694,94.2Z" transform="translate(-36.714 -39.394)" fill="#332c44"/>
        <path id="Trazado_194502" data-name="Trazado 194502" d="M47.138,54.3c-.985-.079-2-.134-3-.221-1.009-.069-2.02-.151-3.029-.276,0,0-1.136-.143-1.516-.174a12.712,12.712,0,0,0-1.393-.03,8.123,8.123,0,0,0-2.717.886l-.027.014a.388.388,0,0,1-.41-.655,8.323,8.323,0,0,1,2.94-1.405c.273-.064,1.275-.168,1.275-.168l.388-.009,1.55-.016a24.876,24.876,0,0,1,3.092.192,20.428,20.428,0,0,1,3.084.554.667.667,0,0,1-.225,1.31Z" transform="translate(-25.8 -22.571)" fill="#332c44"/>
        <path id="Trazado_194503" data-name="Trazado 194503" d="M46.12,64.074c-.38.012-.767,0-1.149-.005a11.812,11.812,0,0,1-2.21-.207,7.811,7.811,0,0,1-2.006-.642s-.281-.149-.359-.18a1.609,1.609,0,0,0-.483-.111,1.72,1.72,0,0,0-.852.157,8.236,8.236,0,0,1-.991.434l-.017.005a.378.378,0,0,0,0,.722,3.017,3.017,0,0,0,1.357.02.536.536,0,0,1,.326.014c.035.015.251.17.251.17a6.286,6.286,0,0,0,2.464,1.013,9.692,9.692,0,0,0,2.56.136,9.194,9.194,0,0,0,2.527-.479.575.575,0,0,0-.267-1.111S46.494,64.069,46.12,64.074Z" transform="translate(-27.019 -27.064)" fill="#332c44"/>
        <path id="Trazado_194504" data-name="Trazado 194504" d="M71.2,52.987a20.427,20.427,0,0,1,3.084-.554,24.877,24.877,0,0,1,3.092-.192l1.55.016.823.033a7.1,7.1,0,0,1,.841.144,8.323,8.323,0,0,1,2.94,1.406.388.388,0,0,1-.41.656l-.027-.014a8.122,8.122,0,0,0-2.719-.886,5.667,5.667,0,0,0-.683-.032l-.708.062-1.516.174c-1.009.126-2.019.207-3.029.276-1.006.087-2.017.142-3,.221h-.01a.667.667,0,0,1-.225-1.31Z" transform="translate(-40.867 -22.571)" fill="#332c44"/>
        <path id="Trazado_194505" data-name="Trazado 194505" d="M74.531,64.074c.38.012.767,0,1.149-.005a11.812,11.812,0,0,0,2.21-.207A7.811,7.811,0,0,0,79.9,63.22s.281-.149.359-.18a1.609,1.609,0,0,1,.483-.111,1.72,1.72,0,0,1,.852.157,8.236,8.236,0,0,0,.991.434l.017.005a.378.378,0,0,1,0,.722,3.017,3.017,0,0,1-1.357.02.536.536,0,0,0-.326.014c-.035.015-.251.17-.251.17A6.286,6.286,0,0,1,78.2,65.464a9.692,9.692,0,0,1-2.56.136,9.194,9.194,0,0,1-2.527-.479.575.575,0,0,1,.267-1.111S74.156,64.069,74.531,64.074Z" transform="translate(-41.72 -27.064)" fill="#332c44"/>
        <circle id="Elipse_1300" data-name="Elipse 1300" cx="0.579" cy="0.579" r="0.579" transform="translate(29.876 40.194)" fill="#332c44"/>
        <circle id="Elipse_1301" data-name="Elipse 1301" cx="0.579" cy="0.579" r="0.579" transform="translate(41.762 42.471)" fill="#332c44"/>
        <circle id="Elipse_1302" data-name="Elipse 1302" cx="0.579" cy="0.579" r="0.579" transform="translate(31.565 52.867)" fill="#332c44"/>
        <circle id="Elipse_1303" data-name="Elipse 1303" cx="0.579" cy="0.579" r="0.579" transform="translate(29.876 45.024)" fill="#332c44"/>
        <circle id="Elipse_1304" data-name="Elipse 1304" cx="0.579" cy="0.579" r="0.579" transform="translate(34.253 40.588)" fill="#332c44"/>
        <circle id="Elipse_1305" data-name="Elipse 1305" cx="0.579" cy="0.579" r="0.579" transform="translate(35.639 52.287)" fill="#332c44"/>
        <circle id="Elipse_1306" data-name="Elipse 1306" cx="0.579" cy="0.579" r="0.579" transform="translate(39.092 39.254)" fill="#332c44"/>
        <path id="Trazado_194506" data-name="Trazado 194506" d="M78.762,78.746a.869.869,0,0,1-.615-.254l-1.074-1.075A.869.869,0,1,1,78.3,76.188l1.074,1.075a.869.869,0,0,1-.615,1.483Z" transform="translate(-43.436 -32.536)" fill="#332c44"/>
        <path id="Trazado_194507" data-name="Trazado 194507" d="M77.108,82.782H75.589a.869.869,0,1,1,0-1.738h1.519a.869.869,0,1,1,0,1.738Z" transform="translate(-42.553 -34.686)" fill="#332c44"/>
        <path id="Trazado_194508" data-name="Trazado 194508" d="M82.8,77.091a.869.869,0,0,1-.869-.869V74.7a.869.869,0,0,1,1.738,0v1.519A.869.869,0,0,1,82.8,77.091Z" transform="translate(-45.585 -31.653)" fill="#332c44"/>
        <path id="Trazado_194509" data-name="Trazado 194509" d="M69.638,35.947c-.039-.042-.083-.078-.123-.116.937-5.308.9-14.814-1.632-20.057C63.762,7.231,54.208,1.033,45.17,1.033h-.017c-9.043,0-18.6,6.2-22.716,14.741-2.529,5.244-2.569,14.749-1.632,20.057-.041.041-.085.076-.123.116a6.282,6.282,0,0,0-1.364,5.421c.555,3.347,3.929,6.939,7.338,6.953A20.992,20.992,0,0,0,31.8,57.6a28.82,28.82,0,0,0,5.672,4.419c-.29,2.523-1.479,8.352-6.355,10.313a.869.869,0,0,0,.648,1.613c5.33-2.144,6.888-7.979,7.345-11.067a22.515,22.515,0,0,0,4.4,1.54,7.108,7.108,0,0,0,3.29,0,22.521,22.521,0,0,0,4.4-1.54c.455,3.085,2.013,8.923,7.346,11.067a.869.869,0,0,0,.648-1.613c-4.876-1.959-6.066-7.788-6.355-10.313A28.824,28.824,0,0,0,58.523,57.6a21,21,0,0,0,5.148-9.275c3.409-.014,6.782-3.607,7.338-6.953a6.306,6.306,0,0,0-1.371-5.421ZM21.026,41.083a4.6,4.6,0,0,1,.927-3.958,4.226,4.226,0,0,1,3.024-1.245q.017,1.534.107,3a4.377,4.377,0,0,0-1.976-.3.869.869,0,1,0,.167,1.73,2.349,2.349,0,0,1,1.986.765,42.951,42.951,0,0,0,.91,5.456c-2.32-.363-4.752-3.091-5.143-5.446Zm36.28,15.263A22.5,22.5,0,0,1,46.4,62.72a5.355,5.355,0,0,1-2.482,0,22.477,22.477,0,0,1-10.906-6.373c-4.343-4.211-6.573-12.4-6.277-23.052a54.522,54.522,0,0,1,1.039-7.83c5.014-.734,8.094-4.989,10.4-8.2a8.888,8.888,0,0,1,7.572-3.9A7.46,7.46,0,0,1,51.959,16.9a2.013,2.013,0,0,0,1.582.973c.208.012.4.018.582.023a3.613,3.613,0,0,1,1.111.136c1.622.568,2.539,1.976,3.513,3.467a20.1,20.1,0,0,0,1.391,1.953,6.976,6.976,0,0,0,2.19,1.742,32.484,32.484,0,0,1,1.254,8.1c.3,10.655-1.935,18.843-6.277,23.054ZM61.43,22.371a18.647,18.647,0,0,1-1.269-1.792C59.125,19,57.954,17.2,55.793,16.443a5.017,5.017,0,0,0-1.622-.232c-.166,0-.342-.01-.532-.021a.335.335,0,0,1-.245-.174,9.241,9.241,0,0,0-7.6-4.335,10.7,10.7,0,0,0-9,4.6c-2.5,3.484-5.6,7.825-10.926,7.608a.844.844,0,1,0-.067,1.685c.058,0,.116,0,.171,0A56,56,0,0,0,25,33.245c-.008.306-.007.6-.012.9a6.654,6.654,0,0,0-2.6.577c-.736-5.1-.6-13.6,1.615-18.2C27.846,8.554,36.739,2.769,45.151,2.769h.016c8.411,0,17.3,5.785,21.148,13.758,2.218,4.6,2.349,13.1,1.612,18.2a6.648,6.648,0,0,0-2.6-.576c0-.3,0-.6-.012-.9a35.031,35.031,0,0,0-1-7.354c.184.039.368.077.559.105a.916.916,0,0,0,.125.009.843.843,0,0,0,.123-1.68,5.678,5.678,0,0,1-3.7-1.955Zm7.858,18.715c-.391,2.356-2.825,5.1-5.15,5.459a42.889,42.889,0,0,0,.913-5.468,2.345,2.345,0,0,1,1.986-.765.879.879,0,0,0,.948-.781.869.869,0,0,0-.781-.949,4.354,4.354,0,0,0-1.977.31q.092-1.465.108-3.008a4.222,4.222,0,0,1,3.024,1.244,4.6,4.6,0,0,1,.928,3.957Z" transform="translate(-19.203 -1.033)" fill="#332c44"/>
      </g>
      <path id="Trazado_194510" data-name="Trazado 194510" d="M106.176,105.369c-1.367,1.373-2.781,2.161-4.12.759L88.493,92.008l-.626-.655a8.431,8.431,0,0,1-1.814-4.525,1.346,1.346,0,0,1,1.634-1.617,8.734,8.734,0,0,1,4.473,1.848l.666.643,14.108,13.546C108.337,102.587,107.549,104,106.176,105.369Z" transform="translate(-28.102 -35.389)" fill="#8ee5f6"/>
      <path id="Trazado_194511" data-name="Trazado 194511" d="M92.827,87.7l-.006.017-4.293,4.293-.035-.006-.626-.655a8.431,8.431,0,0,1-1.814-4.525,1.346,1.346,0,0,1,1.634-1.617,8.734,8.734,0,0,1,4.473,1.848Z" transform="translate(-28.102 -35.389)" fill="#ffebeb"/>
      <path id="Trazado_194512" data-name="Trazado 194512" d="M84.25,84.34a.864.864,0,0,1-.614-.255l-2.457-2.457A.869.869,0,1,1,82.408,80.4l2.457,2.457a.869.869,0,0,1-.615,1.484Z" transform="translate(-25.96 -33.274)" fill="#332c44"/>
      <path id="Trazado_194513" data-name="Trazado 194513" d="M78.762,78.746a.869.869,0,0,1-.615-.254l-1.074-1.075A.869.869,0,1,1,78.3,76.188l1.074,1.075a.869.869,0,0,1-.615,1.483Z" transform="translate(-24.233 -31.503)" fill="#332c44"/>
      <path id="Trazado_194514" data-name="Trazado 194514" d="M77.108,82.782H75.589a.869.869,0,1,1,0-1.738h1.519a.869.869,0,1,1,0,1.738Z" transform="translate(-23.351 -33.653)" fill="#332c44"/>
      <path id="Trazado_194515" data-name="Trazado 194515" d="M82.8,77.091a.869.869,0,0,1-.869-.869V74.7a.869.869,0,0,1,1.738,0v1.519A.869.869,0,0,1,82.8,77.091Z" transform="translate(-26.383 -30.62)" fill="#332c44"/>
      <path id="Trazado_194516" data-name="Trazado 194516" d="M78.762,78.746a.869.869,0,0,1-.615-.254l-1.074-1.075A.869.869,0,1,1,78.3,76.188l1.074,1.075a.869.869,0,0,1-.615,1.483Z" transform="translate(-24.233 -31.503)" fill="#332c44"/>
      <path id="Trazado_194517" data-name="Trazado 194517" d="M77.108,82.782H75.589a.869.869,0,1,1,0-1.738h1.519a.869.869,0,1,1,0,1.738Z" transform="translate(-23.351 -33.653)" fill="#332c44"/>
      <path id="Trazado_194518" data-name="Trazado 194518" d="M82.8,77.091a.869.869,0,0,1-.869-.869V74.7a.869.869,0,0,1,1.738,0v1.519A.869.869,0,0,1,82.8,77.091Z" transform="translate(-26.383 -30.62)" fill="#332c44"/>
      <path id="Trazado_194519" data-name="Trazado 194519" d="M85.35,79.819a.869.869,0,0,1-.521-1.564l1.217-.909a.869.869,0,0,1,1.043,1.391l-1.217.909a.858.858,0,0,1-.521.174Z" transform="translate(-27.456 -32.024)" fill="#332c44"/>
      <path id="Trazado_194520" data-name="Trazado 194520" d="M78.82,86.655a.869.869,0,0,1-.7-1.391l.909-1.217a.869.869,0,0,1,1.391,1.043l-.91,1.217A.869.869,0,0,1,78.82,86.655Z" transform="translate(-24.71 -34.77)" fill="#332c44"/>
      <path id="Trazado_194521" data-name="Trazado 194521" d="M106.906,99.994,92.128,85.8l0,0a8.757,8.757,0,0,0-4.5-1.988l-.387-.081a2.214,2.214,0,0,0-2.67,2.64c.03.143.058.3.089.459a8.434,8.434,0,0,0,1.95,4.492L100.8,106.1a2.918,2.918,0,0,0,2.106,1.008h.032a6.445,6.445,0,0,0,4.975-5.008,2.918,2.918,0,0,0-1.005-2.1ZM86.367,86.509c-.032-.174-.063-.337-.094-.49a.492.492,0,0,1,.122-.47.472.472,0,0,1,.34-.134.634.634,0,0,1,.138.015l.406.085a7.22,7.22,0,0,1,3.65,1.544l.034.032L87.9,90.154l-.031-.032a6.777,6.777,0,0,1-1.5-3.613Zm18.564,17.614a3.413,3.413,0,0,1-1.994,1.242h-.01a1.178,1.178,0,0,1-.869-.471L89.1,91.408,92.213,88.3,105.7,101.25a1.177,1.177,0,0,1,.469.869c.007.5-.411,1.174-1.242,2.005Z" transform="translate(-27.471 -34.758)" fill="#332c44"/>
    </g>
  </g>
</svg>
