<svg xmlns="http://www.w3.org/2000/svg" xmlns:xlink="http://www.w3.org/1999/xlink" width="1320.001" height="507" viewBox="0 0 1320.001 507">
  <defs>
    <linearGradient id="linear-gradient" x1="0.586" y1="0.42" x2="0.033" y2="0.048" gradientUnits="objectBoundingBox">
      <stop offset="0" stop-color="#fde9e0" stop-opacity="0"/>
      <stop offset="1" stop-color="#f18385"/>
    </linearGradient>
    <linearGradient id="linear-gradient-2" x1="0.369" y1="0.633" x2="-0.03" y2="-0.016" gradientUnits="objectBoundingBox">
      <stop offset="0" stop-color="#fff" stop-opacity="0"/>
      <stop offset="1" stop-color="#f18385"/>
    </linearGradient>
  </defs>
  <g id="Grupo_146152" data-name="Grupo 146152" transform="translate(17091.512 11630)">
    <g id="Grupo_146151" data-name="Grupo 146151" transform="translate(-17231.844 -11700)">
      <rect id="Rectángulo_44244" data-name="Rectángulo 44244" width="1320" height="507" rx="20" transform="translate(140.333 70)" fill="#fde9e0"/>
      <rect id="Rectángulo_44258" data-name="Rectángulo 44258" width="550" height="507" rx="20" transform="translate(140.333 70)" fill="url(#linear-gradient)"/>
      <rect id="Rectángulo_44259" data-name="Rectángulo 44259" width="472.646" height="376.15" rx="20" transform="translate(1460.333 577) rotate(180)" fill="url(#linear-gradient-2)"/>
    </g>
    <path id="Intersección_8" data-name="Intersección 8" d="M45,796.616V623.695c51.537-27.74,155.279-47.625,358.892,10.634,188.2,53.847,290.369,18.676,377.438-16.5,77.75-31.407,143.459-62.816,247.633-30.834,220.831,67.795,108.584,147.855,319.043,68.762q8.69-3.266,16.995-5.9v146.76Z" transform="translate(-17136.512 -11920.616)" fill="rgba(255,255,255,0.44)"/>
  </g>
</svg>
