<svg xmlns="http://www.w3.org/2000/svg" width="72.966" height="72.971" viewBox="0 0 72.966 72.971">
  <g id="Grupo_146098" data-name="Grupo 146098" transform="translate(-727.534 -1557)">
    <g id="filled_outline" data-name="filled outline" transform="translate(711.534 1541.002)">
      <path id="Trazado_194522" data-name="Trazado 194522" d="M358.2,60.92l-3.857-9.642a3.344,3.344,0,0,1,1.25-4.025l.086-.057a15.506,15.506,0,0,1,17.2,0l.086.057a3.345,3.345,0,0,1,1.25,4.025l-3.857,9.642Z" transform="translate(-286.708 -24.246)" fill="#fde9e0"/>
      <path id="Trazado_194523" data-name="Trazado 194523" d="M399.483,112.51a1.216,1.216,0,0,1-1.191-.978l-1.216-6.081a1.216,1.216,0,1,1,2.385-.477l1.216,6.081a1.216,1.216,0,0,1-.954,1.431,1.234,1.234,0,0,1-.24.024Z" transform="translate(-323.124 -74.621)" fill="#faa6b2"/>
      <path id="Trazado_194524" data-name="Trazado 194524" d="M422.27,112.51a1.236,1.236,0,0,1-.24-.024,1.216,1.216,0,0,1-.954-1.431l1.216-6.081a1.216,1.216,0,1,1,2.385.477l-1.216,6.081a1.216,1.216,0,0,1-1.191.978Z" transform="translate(-343.475 -74.621)" fill="#faa6b2"/>
      <circle id="Elipse_1307" data-name="Elipse 1307" cx="15.81" cy="15.81" r="15.81" transform="translate(19.649 53.7)" fill="#8ee5f6"/>
      <path id="Trazado_194525" data-name="Trazado 194525" d="M77.411,408.81a15.769,15.769,0,0,1-1.219,2.309H49.539a15.768,15.768,0,0,1-1.219-2.309Z" transform="translate(-27.407 -333.096)" fill="#0276b4"/>
      <path id="Trazado_194526" data-name="Trazado 194526" d="M400.7,325.188a3.649,3.649,0,0,1-3.649-3.649V296h7.3v25.54A3.649,3.649,0,0,1,400.7,325.188Z" transform="translate(-323.125 -237.435)" fill="#8ee5f6"/>
      <path id="Trazado_194527" data-name="Trazado 194527" d="M397.05,296h7.3v2.432h-7.3Z" transform="translate(-323.122 -237.435)" fill="#683b0d"/>
      <path id="Trazado_194528" data-name="Trazado 194528" d="M390.783,173.891h-7.3l-.524-2.621A98.262,98.262,0,0,1,381.054,152h12.162a98.247,98.247,0,0,1-1.908,19.269Z" transform="translate(-309.558 -115.326)" fill="#eaeae8"/>
      <path id="Trazado_194529" data-name="Trazado 194529" d="M425.919,210.432H422.27a1.216,1.216,0,1,1,0-2.432h3.649a1.216,1.216,0,1,1,0,2.432Z" transform="translate(-343.477 -162.813)" fill="#fbfdff"/>
      <path id="Trazado_194530" data-name="Trazado 194530" d="M296,392h9.729v14.594H296Z" transform="translate(-237.434 -318.841)" fill="#fde9e0"/>
      <path id="Trazado_194531" data-name="Trazado 194531" d="M296,360h9.729v4.865H296Z" transform="translate(-237.434 -291.706)" fill="#fde9e0"/>
      <path id="Trazado_194532" data-name="Trazado 194532" d="M311.3,275.1H304v-13.7a1.52,1.52,0,0,1,2-1.442l2.386.8a4.257,4.257,0,0,1,2.911,4.038Z" transform="translate(-244.218 -206.801)" fill="#f18385"/>
      <path id="Trazado_194533" data-name="Trazado 194533" d="M77.411,408.81a15.769,15.769,0,0,1-1.219,2.309H49.539a15.768,15.768,0,0,1-1.219-2.309Z" transform="translate(-27.407 -333.096)" fill="#0276b4"/>
      <g id="Grupo_146051" data-name="Grupo 146051" transform="translate(24.513 58.565)">
        <circle id="Elipse_1308" data-name="Elipse 1308" cx="10.946" cy="10.946" r="10.946" fill="#eaeae8"/>
        <path id="Trazado_194534" data-name="Trazado 194534" d="M93.922,298.4,80.41,315.6a10.954,10.954,0,0,1-2.99-4.132L88.711,296.41A10.876,10.876,0,0,1,93.922,298.4Z" transform="translate(-76.596 -296.348)" fill="#eaeae8"/>
        <path id="Trazado_194535" data-name="Trazado 194535" d="M152.165,337.962l-8.977,11.426a1.216,1.216,0,1,1-1.912-1.5L151.2,335.25A10.776,10.776,0,0,1,152.165,337.962Z" transform="translate(-130.51 -329.283)" fill="#eaeae8"/>
      </g>
      <path id="Trazado_194536" data-name="Trazado 194536" d="M24,424H60.485v.608a9.121,9.121,0,0,1-9.121,9.121H33.121A9.121,9.121,0,0,1,24,424.608Z" transform="translate(-6.784 -345.976)" fill="#8ee5f6"/>
      <path id="Trazado_194537" data-name="Trazado 194537" d="M93.922,298.4,80.41,315.6a10.954,10.954,0,0,1-2.99-4.132L88.711,296.41A10.876,10.876,0,0,1,93.922,298.4Z" transform="translate(-52.083 -237.783)" fill="#fbfdff"/>
      <path id="Trazado_194538" data-name="Trazado 194538" d="M148.106,337.961l-8.977,11.426a1.215,1.215,0,0,1-1.707.205c-.529-.415-1.526-.012-1.111-.54l10.835-13.8A10.776,10.776,0,0,1,148.106,337.961Z" transform="translate(-101.937 -270.718)" fill="#fbfdff"/>
      <path id="Trazado_194539" data-name="Trazado 194539" d="M252.865,96A7.692,7.692,0,0,1,248,100.865l1.949,1.3a7.692,7.692,0,0,1,2.613,2.96l.3.605.3-.605a7.692,7.692,0,0,1,2.613-2.96l1.949-1.3A7.692,7.692,0,0,1,252.865,96Z" transform="translate(-196.731 -67.84)" fill="#f18385"/>
      <path id="Trazado_194540" data-name="Trazado 194540" d="M164.865,144A7.692,7.692,0,0,1,160,148.865l1.949,1.3a7.692,7.692,0,0,1,2.613,2.96l.3.605.3-.605a7.692,7.692,0,0,1,2.613-2.96l1.949-1.3A7.692,7.692,0,0,1,164.865,144Z" transform="translate(-122.109 -108.543)" fill="#fde9e0"/>
      <path id="Trazado_194541" data-name="Trazado 194541" d="M196.865,24A7.692,7.692,0,0,1,192,28.865l1.949,1.3a7.692,7.692,0,0,1,2.613,2.96l.3.605.3-.605a7.692,7.692,0,0,1,2.613-2.96l1.949-1.3A7.692,7.692,0,0,1,196.865,24Z" transform="translate(-149.244 -6.785)" fill="#f18385"/>
      <rect id="Rectángulo_44581" data-name="Rectángulo 44581" width="12.162" height="4.865" rx="2.432" transform="translate(29.378 78.024)" fill="#18bab9"/>
      <path id="Trazado_194542" data-name="Trazado 194542" d="M304,344h7.3v2.432H304Z" transform="translate(-244.218 -278.138)" fill="#961b20"/>
      <path id="Trazado_194543" data-name="Trazado 194543" d="M397.05,296h7.3v2.432h-7.3Z" transform="translate(-323.122 -237.435)" fill="#533222"/>
      <path id="Trazado_194544" data-name="Trazado 194544" d="M362.395,101.519V76.1l.5-2.5a99.7,99.7,0,0,0,1.931-19.271L368.6,44.9a4.581,4.581,0,0,0-1.7-5.488l-.086-.058a16.679,16.679,0,0,0-18.552,0l-.086.058a4.581,4.581,0,0,0-1.7,5.488l3.771,9.428a99.69,99.69,0,0,0,1.931,19.27l.5,2.5v25.419a4.865,4.865,0,0,0,9.729,0ZM352.273,52.872l-3.551-8.878a2.138,2.138,0,0,1,.8-2.561l.086-.058a14.253,14.253,0,0,1,15.853,0l.086.058a2.138,2.138,0,0,1,.8,2.561l-3.552,8.878H360.23l.925-4.626a1.216,1.216,0,0,0-2.385-.477l-1.02,5.1h-.438l-1.021-5.1a1.216,1.216,0,1,0-2.385.477l.926,4.626Zm7.69,48.647a2.432,2.432,0,1,1-4.865,0V77.2h4.865Zm.22-26.756h-5.3l-.329-1.644A97.272,97.272,0,0,1,352.672,55.3h9.714q-.046,3.65-.369,7.3h-3.271a1.216,1.216,0,0,0,0,2.432h3.027q-.462,4.07-1.263,8.086Z" transform="translate(-279.953 -17.414)"/>
      <path id="Trazado_194545" data-name="Trazado 194545" d="M295.2,252.811l-2.386-.795a2.736,2.736,0,0,0-3.6,2.6V267.1A1.216,1.216,0,0,0,288,268.313v19.459a1.216,1.216,0,0,0,1.216,1.216h9.729a1.216,1.216,0,0,0,1.216-1.216V268.313a1.216,1.216,0,0,0-1.216-1.216V258a5.466,5.466,0,0,0-3.742-5.192Zm-3.555,1.8a.3.3,0,0,1,.4-.289l2.385.8A3.037,3.037,0,0,1,296.513,258V267.1h-4.865Zm6.081,31.944h-7.3V274.394h7.3Zm0-14.594h-7.3V269.53h7.3Z" transform="translate(-230.65 -200.019)"/>
      <path id="Trazado_194546" data-name="Trazado 194546" d="M16,281.552v.608A10.349,10.349,0,0,0,26.338,292.5H44.58a10.349,10.349,0,0,0,10.338-10.338v-.608a1.216,1.216,0,0,0-1.216-1.216H50.843a17.026,17.026,0,1,0-30.769,0H17.216A1.216,1.216,0,0,0,16,281.552Zm19.459-23.107A14.6,14.6,0,0,1,48.1,280.336H45.192a12.164,12.164,0,1,0-19.463,0h-2.91a14.6,14.6,0,0,1,12.64-21.891Zm1.709,5.018a9.656,9.656,0,0,1,2.876,1L28.21,279.523a9.73,9.73,0,0,1-1.465-2.163ZM25.843,274.509A9.713,9.713,0,0,1,34.177,263.4Zm16.186-8.638a9.772,9.772,0,0,1,2.337,3.261s-8.739,11.136-8.774,11.2H30.664Zm-10.219,16.9h7.3a1.216,1.216,0,0,1,0,2.432h-7.3a1.216,1.216,0,0,1,0-2.432Zm6.846-2.432,6.485-8.253c.03.315.047.633.047.956a9.684,9.684,0,0,1-3.3,7.3Zm-10.285,2.432a3.647,3.647,0,0,0,3.439,4.865h7.3a3.647,3.647,0,0,0,3.44-4.864h9.915a7.916,7.916,0,0,1-7.882,7.3H26.338a7.916,7.916,0,0,1-7.882-7.3Z" transform="translate(0 -203.529)"/>
      <path id="Trazado_194547" data-name="Trazado 194547" d="M240.541,95.089l1.949,1.3a6.486,6.486,0,0,1,2.2,2.493l.3.605a1.216,1.216,0,0,0,2.175,0l.3-.605a6.486,6.486,0,0,1,2.2-2.493l1.949-1.3a1.216,1.216,0,0,0-.29-2.166,6.507,6.507,0,0,1-4.1-4.1,1.216,1.216,0,0,0-2.308,0,6.507,6.507,0,0,1-4.1,4.1,1.216,1.216,0,0,0-.29,2.166Zm5.539-3.206a9,9,0,0,0,2.431,2.355l-.19.127a8.918,8.918,0,0,0-2.241,2.143,8.916,8.916,0,0,0-2.241-2.144l-.19-.127A9,9,0,0,0,246.08,91.883Z" transform="translate(-189.947 -61.052)"/>
      <path id="Trazado_194548" data-name="Trazado 194548" d="M163.33,140.926a6.507,6.507,0,0,1-4.1-4.1,1.216,1.216,0,0,0-2.308,0,6.507,6.507,0,0,1-4.1,4.1,1.216,1.216,0,0,0-.29,2.166l1.949,1.3a6.486,6.486,0,0,1,2.2,2.493l.3.605a1.216,1.216,0,0,0,2.175,0l.3-.605a6.486,6.486,0,0,1,2.2-2.493l1.949-1.3a1.216,1.216,0,0,0-.29-2.166Zm-3.008,1.441a8.918,8.918,0,0,0-2.241,2.143,8.916,8.916,0,0,0-2.241-2.144l-.19-.127a9,9,0,0,0,2.431-2.355,9,9,0,0,0,2.431,2.355Z" transform="translate(-115.324 -101.757)"/>
      <path id="Trazado_194549" data-name="Trazado 194549" d="M193.671,24.39l1.949-1.3a1.216,1.216,0,0,0-.29-2.165,6.507,6.507,0,0,1-4.1-4.1,1.216,1.216,0,0,0-2.308,0,6.506,6.506,0,0,1-4.1,4.1,1.216,1.216,0,0,0-.29,2.166l1.949,1.3a6.487,6.487,0,0,1,2.2,2.493l.3.605a1.216,1.216,0,0,0,2.175,0l.3-.605A6.486,6.486,0,0,1,193.671,24.39Zm-3.59.12a8.916,8.916,0,0,0-2.241-2.144l-.19-.127a9,9,0,0,0,2.431-2.355,9,9,0,0,0,2.431,2.355l-.19.127a8.918,8.918,0,0,0-2.241,2.143Z" transform="translate(-142.46)"/>
    </g>
  </g>
</svg>
