<svg xmlns="http://www.w3.org/2000/svg" width="58.583" height="72.971" viewBox="0 0 58.583 72.971">
  <g id="Grupo_146099" data-name="Grupo 146099" transform="translate(5015.291 9574)">
    <g id="corte-de-pelo" transform="translate(-5065.775 -9574)">
      <path id="Trazado_194550" data-name="Trazado 194550" d="M359.436,167.711l.627-.175-.627-.175a4.373,4.373,0,0,1-3.05-3.05l-.175-.627-.175.627a4.373,4.373,0,0,1-3.05,3.05l-.627.175.627.175a4.373,4.373,0,0,1,3.05,3.05l.175.627.175-.627A4.347,4.347,0,0,1,359.436,167.711Z" transform="translate(-258.855 -140.357)" fill="#8ee5f6"/>
      <path id="Trazado_194551" data-name="Trazado 194551" d="M351.82,167.727h0a.731.731,0,0,1-.7-.54l-.175-.627a3.65,3.65,0,0,0-2.539-2.539l-.627-.175a.724.724,0,0,1,0-1.4l.627-.175a3.65,3.65,0,0,0,2.539-2.539l.175-.627a.724.724,0,0,1,1.4,0l.175.627a3.65,3.65,0,0,0,2.539,2.539l.627.175a.724.724,0,0,1,0,1.4l-.627.175a3.65,3.65,0,0,0-2.539,2.539l-.175.627A.731.731,0,0,1,351.82,167.727Zm-1.795-4.582a5.157,5.157,0,0,1,1.795,1.795,5.156,5.156,0,0,1,1.795-1.795,5.156,5.156,0,0,1-1.795-1.795A5.036,5.036,0,0,1,350.025,163.145Z" transform="translate(-254.464 -135.967)" fill="#221f1f"/>
      <path id="Trazado_194552" data-name="Trazado 194552" d="M193.445,40.018l.627-.175-.627-.175a4.373,4.373,0,0,1-3.05-3.05l-.175-.627-.175.627a4.373,4.373,0,0,1-3.05,3.05l-.627.175.627.175a4.373,4.373,0,0,1,3.05,3.05l.175.627.175-.627A4.373,4.373,0,0,1,193.445,40.018Z" transform="translate(-116.519 -30.861)" fill="#f18385"/>
      <path id="Trazado_194553" data-name="Trazado 194553" d="M185.83,40.034a.731.731,0,0,1-.7-.54l-.175-.627a3.65,3.65,0,0,0-2.539-2.539l-.627-.175a.724.724,0,0,1,0-1.4l.627-.175a3.65,3.65,0,0,0,2.539-2.539l.175-.627a.731.731,0,0,1,.7-.54h0a.731.731,0,0,1,.7.54l.175.627a3.65,3.65,0,0,0,2.539,2.539l.627.175a.724.724,0,0,1,0,1.4l-.627.175a3.65,3.65,0,0,0-2.539,2.539l-.175.627A.731.731,0,0,1,185.83,40.034Zm-1.795-4.582a5.156,5.156,0,0,1,1.795,1.795,5.156,5.156,0,0,1,1.795-1.795,5.156,5.156,0,0,1-1.795-1.795A5.156,5.156,0,0,1,184.035,35.452Z" transform="translate(-112.129 -26.471)" fill="#221f1f"/>
      <path id="Trazado_194554" data-name="Trazado 194554" d="M60.755,289.116H59.34A3.734,3.734,0,0,1,55.6,285.38v-1.839a3.734,3.734,0,0,1,3.736-3.736h1.416Z" transform="translate(-4.39 -239.932)" fill="#ffb69f"/>
      <g id="Grupo_146052" data-name="Grupo 146052" transform="translate(50.484 39.145)">
        <path id="Trazado_194555" data-name="Trazado 194555" d="M56.365,285.455H54.949a4.465,4.465,0,0,1-4.465-4.465v-1.839a4.465,4.465,0,0,1,4.465-4.465h1.416a.723.723,0,0,1,.73.73v9.31A.732.732,0,0,1,56.365,285.455Zm-1.416-9.31a3.011,3.011,0,0,0-3.006,3.006v1.839A3.011,3.011,0,0,0,54.949,284h.686v-7.851Z" transform="translate(-50.484 -274.686)" fill="#221f1f"/>
        <path id="Trazado_194556" data-name="Trazado 194556" d="M79.195,308.81H77.838a.73.73,0,0,1,0-1.459h1.357a.723.723,0,0,1,.73.73A.732.732,0,0,1,79.195,308.81Z" transform="translate(-73.314 -302.696)" fill="#221f1f"/>
      </g>
      <path id="Trazado_194557" data-name="Trazado 194557" d="M335.053,289.116h1.416a3.733,3.733,0,0,0,3.736-3.736v-1.839a3.733,3.733,0,0,0-3.736-3.736h-1.416Z" transform="translate(-244.016 -239.932)" fill="#ffb69f"/>
      <g id="Grupo_146053" data-name="Grupo 146053" transform="translate(90.308 39.145)">
        <path id="Trazado_194558" data-name="Trazado 194558" d="M332.078,285.455h-1.416a.723.723,0,0,1-.73-.73v-9.31a.723.723,0,0,1,.73-.73h1.416a4.465,4.465,0,0,1,4.465,4.465v1.839A4.465,4.465,0,0,1,332.078,285.455ZM331.392,284h.686a3.011,3.011,0,0,0,3.006-3.006v-1.839a3.011,3.011,0,0,0-3.006-3.006h-.686Z" transform="translate(-329.933 -274.686)" fill="#221f1f"/>
        <path id="Trazado_194559" data-name="Trazado 194559" d="M332.02,308.81h-1.357a.73.73,0,1,1,0-1.459h1.357a.73.73,0,0,1,0,1.459Z" transform="translate(-329.933 -302.696)" fill="#221f1f"/>
      </g>
      <path id="Trazado_194560" data-name="Trazado 194560" d="M118.894,253.025l-5.735,5.516a5.906,5.906,0,0,1-8.172,0l-5.72-5.516a25.538,25.538,0,0,1-7.515-18.4V224.1a4.92,4.92,0,0,1,4.918-4.918h24.822a4.92,4.92,0,0,1,4.918,4.918v10.521A25.5,25.5,0,0,1,118.894,253.025Z" transform="translate(-35.386 -187.95)" fill="#ffb69f"/>
      <path id="Trazado_194561" data-name="Trazado 194561" d="M121.49,219.185H96.668A4.92,4.92,0,0,0,91.75,224.1v10.521a27.085,27.085,0,0,0,.306,4.086l3.3-3.794a7.113,7.113,0,0,0,2.262-5.18v-.642l1.226-1.226a7.007,7.007,0,0,0,2.072-5.005v-.773h16.358v.773a7.007,7.007,0,0,0,2.072,5.005l1.226,1.226v.642a7.033,7.033,0,0,0,2.262,5.18l3.3,3.794a27.209,27.209,0,0,0,.306-4.086V224.1A4.945,4.945,0,0,0,121.49,219.185Z" transform="translate(-35.385 -187.95)" fill="#ea8f7d"/>
      <path id="Trazado_194562" data-name="Trazado 194562" d="M104.609,256.53a6.628,6.628,0,0,1-4.6-1.853l-5.735-5.516a26.266,26.266,0,0,1-7.749-18.927V219.712a5.652,5.652,0,0,1,5.647-5.647H117a5.652,5.652,0,0,1,5.647,5.647v10.521a26.232,26.232,0,0,1-7.749,18.927h0l-5.735,5.516A6.514,6.514,0,0,1,104.609,256.53ZM92.191,215.524A4.2,4.2,0,0,0,88,219.712v10.521a24.788,24.788,0,0,0,7.3,17.876l5.735,5.516a5.164,5.164,0,0,0,7.165,0l5.735-5.516a24.788,24.788,0,0,0,7.3-17.876V219.712a4.2,4.2,0,0,0-4.188-4.188Zm22.225,33.111Z" transform="translate(-30.908 -183.559)" fill="#221f1f"/>
      <path id="Trazado_194563" data-name="Trazado 194563" d="M126.511,159.587v13.4l-1.518-1.751a4.155,4.155,0,0,1-1.43-3.137v-1.853l-2.072-2.072a4.174,4.174,0,0,1-1.211-2.948v-1.853a1.84,1.84,0,0,0-1.839-1.839H99.923a1.84,1.84,0,0,0-1.839,1.839v1.853a4.2,4.2,0,0,1-1.211,2.948L94.8,166.241v1.853a4.178,4.178,0,0,1-1.43,3.137l-1.518,1.751v-13.4A12.288,12.288,0,0,1,104.14,147.3h10.084A12.288,12.288,0,0,1,126.511,159.587Z" transform="translate(-35.474 -126.309)" fill="#8ee5f6"/>
      <path id="Trazado_194564" data-name="Trazado 194564" d="M122.208,169.323a.753.753,0,0,1-.554-.248l-1.488-1.722a4.924,4.924,0,0,1-1.634-3.648v-1.547l-1.853-1.853a4.856,4.856,0,0,1-1.43-3.459v-1.853a1.109,1.109,0,0,0-1.109-1.109H95.62a1.109,1.109,0,0,0-1.109,1.109v1.853a4.881,4.881,0,0,1-1.43,3.459l-1.853,1.853V163.7a4.877,4.877,0,0,1-1.634,3.648L88.1,169.074a.731.731,0,0,1-.8.2.711.711,0,0,1-.467-.686V155.2A13.029,13.029,0,0,1,99.852,142.18h10.069A13.029,13.029,0,0,1,122.938,155.2v13.4a.731.731,0,0,1-.467.686A.829.829,0,0,1,122.208,169.323ZM99.823,143.639A11.565,11.565,0,0,0,88.265,155.2v11.455l.248-.277.073-.073a3.448,3.448,0,0,0,1.182-2.583v-1.853a.685.685,0,0,1,.219-.511l2.072-2.072a3.411,3.411,0,0,0,1.007-2.422v-1.853a2.572,2.572,0,0,1,2.568-2.568h18.5a2.572,2.572,0,0,1,2.568,2.568v1.853a3.352,3.352,0,0,0,1.007,2.422l2.072,2.072a.743.743,0,0,1,.219.511v1.853a3.375,3.375,0,0,0,1.182,2.583l.073.073.248.277V155.2a11.565,11.565,0,0,0-11.557-11.557Z" transform="translate(-31.171 -121.918)" fill="#221f1f"/>
      <path id="Trazado_194565" data-name="Trazado 194565" d="M139.467,374.43l4.67.832a7.278,7.278,0,0,0,7.165-2.889l.452-.627h0a7.282,7.282,0,0,1-5.662-.482l-1.751-.919a5.192,5.192,0,0,0-4.874.029h0a5.193,5.193,0,0,0-4.874-.029l-1.751.919a7.293,7.293,0,0,1-5.662.482h0l.452.627a7.318,7.318,0,0,0,7.165,2.889Z" transform="translate(-65.766 -317.059)" fill="#fde9e0"/>
      <path id="Trazado_194566" data-name="Trazado 194566" d="M140.936,371.691a8.708,8.708,0,0,1-1.372-.117l-4.553-.8-4.553.8a8.076,8.076,0,0,1-7.88-3.181l-.452-.627a.723.723,0,0,1,0-.861.713.713,0,0,1,.817-.263,6.623,6.623,0,0,0,5.107-.423l1.751-.919a5.892,5.892,0,0,1,5.21-.146,5.892,5.892,0,0,1,5.21.146l1.751.919a6.618,6.618,0,0,0,5.107.423.734.734,0,0,1,.817.263.722.722,0,0,1,0,.861l-.452.627A8.1,8.1,0,0,1,140.936,371.691Zm-5.925-2.393a.406.406,0,0,1,.131.015l4.67.832a6.631,6.631,0,0,0,5.677-1.707,8.212,8.212,0,0,1-4.188-.9l-1.751-.919a4.436,4.436,0,0,0-4.188.029.744.744,0,0,1-.7,0,4.478,4.478,0,0,0-4.188-.029l-1.751.919a8.037,8.037,0,0,1-4.188.9,6.6,6.6,0,0,0,5.677,1.707l4.67-.832C134.924,369.312,134.968,369.3,135.012,369.3Z" transform="translate(-61.31 -312.656)" fill="#221f1f"/>
      <path id="Trazado_194567" data-name="Trazado 194567" d="M131.708,116.165h0c1.051,1.766.525,3.75-1.372,5.195l-3.546,2.729H105.339l-3.546-2.729c-1.9-1.459-2.422-3.444-1.372-5.195h0a6.42,6.42,0,0,1,3.108-2.5l12.535-5.385L128.6,113.67A6.49,6.49,0,0,1,131.708,116.165Z" transform="translate(-42.364 -92.854)" fill="#defaff"/>
      <g id="Grupo_146054" data-name="Grupo 146054" transform="translate(56.811 14.691)">
        <path id="Trazado_194568" data-name="Trazado 194568" d="M246.964,120.855a.694.694,0,0,1-.292-.058l-.379-.16a.732.732,0,1,1,.584-1.342l.379.16a.73.73,0,0,1-.292,1.4Z" transform="translate(-224.339 -116.933)" fill="#221f1f"/>
        <path id="Trazado_194569" data-name="Trazado 194569" d="M122.5,120.362H101.044a.751.751,0,0,1-.438-.146l-3.546-2.729c-2.174-1.664-2.787-4.086-1.547-6.158a7.3,7.3,0,0,1,3.459-2.8l12.535-5.385a.767.767,0,0,1,.569,0l2.9,1.255a.732.732,0,1,1-.584,1.342l-2.612-1.124-12.243,5.268a5.862,5.862,0,0,0-2.773,2.2c-.861,1.43-.409,3.021,1.182,4.246l3.356,2.568h20.955l3.356-2.568c1.591-1.226,2.043-2.816,1.182-4.246a4.983,4.983,0,0,0-1.853-1.737.723.723,0,0,1-.263-.992.736.736,0,0,1,.992-.263,6.633,6.633,0,0,1,2.364,2.247c1.226,2.072.627,4.48-1.547,6.158l-3.561,2.7A.7.7,0,0,1,122.5,120.362Z" transform="translate(-94.88 -103.088)" fill="#221f1f"/>
      </g>
      <g id="Grupo_146055" data-name="Grupo 146055" transform="translate(59.741 17.867)">
        <path id="Trazado_194570" data-name="Trazado 194570" d="M205.01,127.086a.729.729,0,0,1-.671-.438.739.739,0,0,1,.379-.963l.569-.248a.732.732,0,1,1,.584,1.342l-.569.248A1.036,1.036,0,0,1,205.01,127.086Z" transform="translate(-191.619 -125.377)" fill="#7c7b7a"/>
        <path id="Trazado_194571" data-name="Trazado 194571" d="M119.67,145.689a.689.689,0,0,1-.438-.146l-2.758-2.116c-1.255-.963-1.138-1.81-.817-2.349a4.233,4.233,0,0,1,2.1-1.605l7.88-3.386a.732.732,0,1,1,.584,1.342l-7.88,3.386a3.078,3.078,0,0,0-1.416,1.007,1.673,1.673,0,0,0,.452.452l2.758,2.116a.724.724,0,0,1,.131,1.021A.824.824,0,0,1,119.67,145.689Z" transform="translate(-115.443 -134.509)" fill="#7c7b7a"/>
      </g>
      <g id="Grupo_146056" data-name="Grupo 146056" transform="translate(69.717 23.487)">
        <path id="Trazado_194572" data-name="Trazado 194572" d="M209.012,188.567a.723.723,0,0,1-.73-.73v-4.48a.73.73,0,1,1,1.459,0v4.48A.741.741,0,0,1,209.012,188.567Z" transform="translate(-205.028 -180.089)" fill="#221f1f"/>
        <path id="Trazado_194573" data-name="Trazado 194573" d="M209.012,166.547a.723.723,0,0,1-.73-.73v-.277a.73.73,0,1,1,1.459,0v.277A.741.741,0,0,1,209.012,166.547Z" transform="translate(-205.028 -164.81)" fill="#221f1f"/>
        <path id="Trazado_194574" data-name="Trazado 194574" d="M186.177,199.982a.723.723,0,0,1-.73-.73V196.67a.73.73,0,1,1,1.459,0v2.583A.732.732,0,0,1,186.177,199.982Z" transform="translate(-185.447 -191.504)" fill="#221f1f"/>
        <path id="Trazado_194575" data-name="Trazado 194575" d="M231.745,199.982a.723.723,0,0,1-.73-.73V196.67a.73.73,0,1,1,1.459,0v2.583A.732.732,0,0,1,231.745,199.982Z" transform="translate(-224.521 -191.504)" fill="#221f1f"/>
      </g>
      <path id="Trazado_194576" data-name="Trazado 194576" d="M267.673,15.689h0a11.561,11.561,0,0,0-6.187-5.837L249.753,5.066l9.821,7.982a11.615,11.615,0,0,0,8.1,2.641Z" transform="translate(-170.872 -4.344)" fill="#f18385"/>
      <g id="Grupo_146057" data-name="Grupo 146057" transform="translate(78.163 0)">
        <path id="Trazado_194577" data-name="Trazado 194577" d="M410.306,94.557a3.931,3.931,0,1,1,2-7.311h0a3.938,3.938,0,0,1-1.036,7.194A4.252,4.252,0,0,1,410.306,94.557Zm0-6.406a2.471,2.471,0,0,0-2.13,1.211,2.4,2.4,0,0,0-.263,1.868,2.445,2.445,0,0,0,1.138,1.518,2.4,2.4,0,0,0,1.868.263,2.445,2.445,0,0,0,1.518-1.138,2.471,2.471,0,0,0-.861-3.386h0A2.622,2.622,0,0,0,410.306,88.151Z" transform="translate(-383.335 -74.339)" fill="#221f1f"/>
        <path id="Trazado_194578" data-name="Trazado 194578" d="M262.518,12.1a12.409,12.409,0,0,1-7.72-2.831l-9.821-7.982a.722.722,0,0,1-.16-.934.746.746,0,0,1,.9-.306l11.718,4.786a12.175,12.175,0,0,1,6.581,6.216.689.689,0,0,1-.044.671.733.733,0,0,1-.569.35C263.116,12.09,262.824,12.1,262.518,12.1ZM249.705,3.261l6.012,4.889a11.132,11.132,0,0,0,6.435,2.5,11.11,11.11,0,0,0-5.283-4.451Z" transform="translate(-244.711 0)" fill="#221f1f"/>
        <path id="Trazado_194579" data-name="Trazado 194579" d="M376.695,79.186a.658.658,0,0,1-.365-.1l-5.574-3.313a.736.736,0,0,1,.744-1.27l5.574,3.313a.737.737,0,0,1,.263,1.007A.764.764,0,0,1,376.695,79.186Z" transform="translate(-352.482 -63.799)" fill="#221f1f"/>
      </g>
      <path id="Trazado_194580" data-name="Trazado 194580" d="M267.937,79.431h0a11.557,11.557,0,0,1-6.173,5.852l-11.7,4.83,9.806-8.026a11.582,11.582,0,0,1,8.07-2.656Z" transform="translate(-171.136 -68.086)" fill="#f18385"/>
      <g id="Grupo_146058" data-name="Grupo 146058" transform="translate(78.192 2.445)">
        <path id="Trazado_194581" data-name="Trazado 194581" d="M410.273,25.024a4.344,4.344,0,0,1-.963-.117,3.936,3.936,0,1,1,4.334-5.837,3.873,3.873,0,0,1,.438,2.977,3.925,3.925,0,0,1-1.795,2.422A3.989,3.989,0,0,1,410.273,25.024Zm-.015-6.406a2.525,2.525,0,0,0-1.27.35,2.488,2.488,0,0,0-.861,3.4,2.423,2.423,0,0,0,1.518,1.124,2.454,2.454,0,0,0,1.868-.277h0a2.5,2.5,0,0,0,1.138-1.518,2.454,2.454,0,0,0-.277-1.868A2.417,2.417,0,0,0,410.258,18.618Z" transform="translate(-383.331 -17.161)" fill="#221f1f"/>
        <path id="Trazado_194582" data-name="Trazado 194582" d="M245.65,86.5a.74.74,0,0,1-.627-.35.719.719,0,0,1,.16-.934l9.806-8.026a12.2,12.2,0,0,1,8.6-2.816.71.71,0,0,1,.569.35.775.775,0,0,1,.044.671,12.174,12.174,0,0,1-6.567,6.231l-11.7,4.83A.987.987,0,0,1,245.65,86.5Zm16.694-10.7a11.25,11.25,0,0,0-6.435,2.51l-6,4.9,7.165-2.948A11.251,11.251,0,0,0,262.344,75.807Z" transform="translate(-244.917 -66.192)" fill="#221f1f"/>
        <path id="Trazado_194583" data-name="Trazado 194583" d="M371.117,55.938a.74.74,0,0,1-.627-.35.749.749,0,0,1,.248-1.007l5.574-3.327a.733.733,0,1,1,.759,1.255L371.5,55.836A.706.706,0,0,1,371.117,55.938Z" transform="translate(-352.508 -46.309)" fill="#221f1f"/>
      </g>
      <g id="Grupo_146059" data-name="Grupo 146059" transform="translate(62.593 39.101)">
        <path id="Trazado_194584" data-name="Trazado 194584" d="M142.6,277.458a.739.739,0,0,1-.584-.292,3.248,3.248,0,0,0-2.612-1.313h-.044a3.277,3.277,0,0,0-2.583,1.313.73.73,0,0,1-1.167-.876,4.748,4.748,0,0,1,3.794-1.912h.044a4.749,4.749,0,0,1,3.75,1.912.738.738,0,0,1-.146,1.021A.76.76,0,0,1,142.6,277.458Z" transform="translate(-135.458 -274.379)" fill="#231f20"/>
        <circle id="Elipse_1309" data-name="Elipse 1309" cx="1.431" cy="1.431" r="1.431" transform="translate(2.511 3.282)" fill="#231f20"/>
        <path id="Trazado_194585" data-name="Trazado 194585" d="M243.154,277.458a.739.739,0,0,1-.584-.292,3.248,3.248,0,0,0-2.612-1.313h-.044a3.277,3.277,0,0,0-2.583,1.313.73.73,0,1,1-1.167-.876,4.748,4.748,0,0,1,3.794-1.912H240a4.749,4.749,0,0,1,3.75,1.912.739.739,0,0,1-.146,1.021A.76.76,0,0,1,243.154,277.458Z" transform="translate(-221.685 -274.379)" fill="#231f20"/>
        <circle id="Elipse_1310" data-name="Elipse 1310" cx="1.431" cy="1.431" r="1.431" transform="translate(16.842 3.282)" fill="#231f20"/>
      </g>
    </g>
  </g>
</svg>
