<svg xmlns="http://www.w3.org/2000/svg" xmlns:xlink="http://www.w3.org/1999/xlink" width="197.688" height="197.688" viewBox="0 0 197.688 197.688">
  <defs>
    <clipPath id="clip-path">
      <rect id="Rectángulo_44260" data-name="Rectángulo 44260" width="197.688" height="197.688" transform="translate(0 0)" fill="none"/>
    </clipPath>
  </defs>
  <g id="Grupo_145943" data-name="Grupo 145943" transform="translate(0.232 -0.083)">
    <g id="Grupo_145418" data-name="Grupo 145418" transform="translate(-0.232 0.083)" clip-path="url(#clip-path)">
      <path id="Trazado_193096" data-name="Trazado 193096" d="M197.324,98.662A98.662,98.662,0,1,1,98.662,0a98.758,98.758,0,0,1,98.662,98.662" transform="translate(0.368 -0.005)" fill="#f18385"/>
      <path id="Trazado_193097" data-name="Trazado 193097" d="M138.8,56.906a81.582,81.582,0,1,1-31.87,6.428,81.362,81.362,0,0,1,31.87-6.428m0-6.906a88.488,88.488,0,1,0,34.56,6.974A88.23,88.23,0,0,0,138.8,50" transform="translate(-39.766 -40.138)" fill="#483c8c"/>
      <path id="Trazado_193098" data-name="Trazado 193098" d="M307.3,307.319a40.354,40.354,0,1,1,0,57.069,40.354,40.354,0,0,1,0-57.069" transform="translate(-236.809 -237.195)" fill="#1a1a1a"/>
      <path id="Trazado_193099" data-name="Trazado 193099" d="M608.264,288.435a4.23,4.23,0,0,0,2.964,1.16,4.358,4.358,0,0,0,4.046-2.959l1.139-3.293a17.7,17.7,0,0,1,9.691-9.691l3.294-1.139a4.357,4.357,0,0,0,2.959-4.046A4.23,4.23,0,0,0,631.2,265.5c-.03-.032-.06-.063-.092-.094l-.094-.092a4.232,4.232,0,0,0-2.964-1.16A4.358,4.358,0,0,0,624,267.115l-1.139,3.293a17.7,17.7,0,0,1-9.691,9.691l-3.293,1.139a4.357,4.357,0,0,0-2.959,4.046,4.23,4.23,0,0,0,1.16,2.964l.092.094.094.091" transform="translate(-486.79 -212.036)" fill="#1a1a1a"/>
      <path id="Trazado_193100" data-name="Trazado 193100" d="M608.264,288.435a4.23,4.23,0,0,0,2.964,1.16,4.358,4.358,0,0,0,4.046-2.959l1.139-3.293a17.7,17.7,0,0,1,9.691-9.691l3.294-1.139a4.357,4.357,0,0,0,2.959-4.046A4.23,4.23,0,0,0,631.2,265.5c-.03-.032-.06-.063-.092-.094l-.094-.092a4.232,4.232,0,0,0-2.964-1.16A4.358,4.358,0,0,0,624,267.115l-1.139,3.293a17.7,17.7,0,0,1-9.691,9.691l-3.293,1.139a4.357,4.357,0,0,0-2.959,4.046,4.23,4.23,0,0,0,1.16,2.964l.092.094.094.091" transform="translate(-486.79 -212.036)" fill="#483c8c"/>
      <path id="Trazado_193101" data-name="Trazado 193101" d="M411.629,217.163a4.231,4.231,0,0,0,2.487-1.987,4.357,4.357,0,0,0-.539-4.983l-2.282-2.634a17.7,17.7,0,0,1-3.547-13.238l.66-3.422a4.358,4.358,0,0,0-2.025-4.585,4.229,4.229,0,0,0-3.147-.477l-.128.032-.126.036a4.23,4.23,0,0,0-2.487,1.987,4.358,4.358,0,0,0,.539,4.983l2.282,2.633a17.7,17.7,0,0,1,3.547,13.238l-.66,3.422a4.358,4.358,0,0,0,2.025,4.585,4.232,4.232,0,0,0,3.147.477l.127-.032.127-.036" transform="translate(-320.661 -149.078)" fill="#483c8c"/>
      <path id="Trazado_193102" data-name="Trazado 193102" d="M217.238,411.319a4.231,4.231,0,0,0-.477-3.147,4.358,4.358,0,0,0-4.585-2.025l-3.422.66a17.7,17.7,0,0,1-13.238-3.547l-2.634-2.283a4.357,4.357,0,0,0-4.983-.539,4.229,4.229,0,0,0-1.987,2.487c-.013.042-.024.084-.036.127s-.022.085-.032.127a4.231,4.231,0,0,0,.477,3.147,4.358,4.358,0,0,0,4.585,2.025l3.422-.66a17.7,17.7,0,0,1,13.238,3.547l2.633,2.283a4.358,4.358,0,0,0,4.983.539,4.231,4.231,0,0,0,1.987-2.487c.013-.042.024-.084.036-.126s.022-.085.032-.128" transform="translate(-148.711 -320.988)" fill="#483c8c"/>
      <path id="Trazado_193103" data-name="Trazado 193103" d="M252.588,541.9a2.181,2.181,0,0,0-1.024-1.282,2.246,2.246,0,0,0-2.569.278l-1.358,1.176a12.466,12.466,0,0,1-6.825,1.829l-1.764-.34a2.247,2.247,0,0,0-2.364,1.044,2.181,2.181,0,0,0-.246,1.623c.005.022.011.044.017.066s.012.044.019.065a2.181,2.181,0,0,0,1.024,1.282,2.247,2.247,0,0,0,2.569-.278l1.358-1.177a12.467,12.467,0,0,1,6.825-1.828l1.764.34a2.246,2.246,0,0,0,2.364-1.044,2.18,2.18,0,0,0,.246-1.622c-.005-.022-.011-.044-.017-.066s-.012-.044-.019-.065" transform="translate(-189.368 -433.719)" fill="#483c8c"/>
      <path id="Trazado_193104" data-name="Trazado 193104" d="M677.732,423.3a2.615,2.615,0,0,0,1.229,1.539,2.7,2.7,0,0,0,3.083-.334l1.629-1.412a14.97,14.97,0,0,1,8.19-2.194l2.117.408a2.7,2.7,0,0,0,2.837-1.252,2.619,2.619,0,0,0,.3-1.947c-.006-.026-.013-.052-.02-.079s-.015-.053-.022-.078a2.619,2.619,0,0,0-1.229-1.538,2.7,2.7,0,0,0-3.083.334l-1.629,1.412a14.969,14.969,0,0,1-8.19,2.194l-2.117-.408a2.7,2.7,0,0,0-2.837,1.253,2.618,2.618,0,0,0-.295,1.947c.006.026.013.052.02.079s.015.052.022.078" transform="translate(-543.539 -333.976)" fill="#483c8c"/>
      <path id="Trazado_193105" data-name="Trazado 193105" d="M296.817,325.368a40.354,40.354,0,1,1,28.535,49.424,40.354,40.354,0,0,1-28.535-49.424" transform="translate(-236.768 -237.154)" fill="#1a1a1a"/>
      <path id="Trazado_193106" data-name="Trazado 193106" d="M296.817,346.258a40.354,40.354,0,1,1,49.424,28.535,40.354,40.354,0,0,1-49.424-28.535" transform="translate(-236.768 -237.154)" fill="#1a1a1a"/>
      <path id="Trazado_193107" data-name="Trazado 193107" d="M423.1,677.7a2.617,2.617,0,0,0-1.947.3,2.7,2.7,0,0,0-1.253,2.837l.408,2.117a14.967,14.967,0,0,1-2.194,8.19l-1.412,1.629a2.7,2.7,0,0,0-.333,3.083,2.617,2.617,0,0,0,1.539,1.229l.078.022.079.02a2.617,2.617,0,0,0,1.947-.3,2.7,2.7,0,0,0,1.253-2.837l-.408-2.117a14.965,14.965,0,0,1,2.194-8.19l1.412-1.629a2.7,2.7,0,0,0,.334-3.083,2.618,2.618,0,0,0-1.539-1.229l-.078-.022-.079-.02" transform="translate(-333.572 -543.92)" fill="#483c8c"/>
      <path id="Trazado_193108" data-name="Trazado 193108" d="M542.037,252.647a2.181,2.181,0,0,0,1.622-.246,2.246,2.246,0,0,0,1.044-2.364l-.34-1.764a12.47,12.47,0,0,1,1.829-6.825l1.177-1.358a2.246,2.246,0,0,0,.278-2.569,2.181,2.181,0,0,0-1.282-1.024l-.065-.019-.066-.017a2.181,2.181,0,0,0-1.622.246,2.246,2.246,0,0,0-1.044,2.364l.34,1.764a12.474,12.474,0,0,1-1.828,6.825l-1.177,1.358a2.247,2.247,0,0,0-.278,2.569,2.18,2.18,0,0,0,1.282,1.024l.065.019.066.017" transform="translate(-433.352 -189.759)" fill="#483c8c"/>
      <path id="Trazado_193109" data-name="Trazado 193109" d="M307.3,364.389a40.354,40.354,0,1,1,57.069,0,40.354,40.354,0,0,1-57.069,0" transform="translate(-236.809 -237.195)" fill="#1a1a1a"/>
      <path id="Trazado_193110" data-name="Trazado 193110" d="M325.352,374.792a40.354,40.354,0,1,1,49.424-28.535,40.354,40.354,0,0,1-49.424,28.535" transform="translate(-236.768 -237.154)" fill="#483c8c"/>
      <path id="Trazado_193111" data-name="Trazado 193111" d="M630.076,630.206a2.181,2.181,0,0,0-.6,1.528A2.247,2.247,0,0,0,631,633.82l1.7.587a12.47,12.47,0,0,1,5,5l.587,1.7a2.246,2.246,0,0,0,2.086,1.525,2.181,2.181,0,0,0,1.528-.6l.049-.047.047-.048a2.18,2.18,0,0,0,.6-1.528,2.246,2.246,0,0,0-1.525-2.086l-1.7-.587a12.471,12.471,0,0,1-5-5l-.588-1.7a2.247,2.247,0,0,0-2.086-1.525,2.182,2.182,0,0,0-1.528.6l-.049.047-.047.049" transform="translate(-504.899 -505.298)" fill="#483c8c"/>
      <path id="Trazado_193112" data-name="Trazado 193112" d="M308.815,308.7a2.617,2.617,0,0,0,.718-1.834,2.7,2.7,0,0,0-1.83-2.5l-2.038-.7a14.968,14.968,0,0,1-6-6l-.7-2.038a2.7,2.7,0,0,0-2.5-1.83,2.617,2.617,0,0,0-1.834.718l-.058.057-.057.058a2.617,2.617,0,0,0-.718,1.833,2.7,2.7,0,0,0,1.83,2.5l2.038.7a14.968,14.968,0,0,1,6,6l.7,2.037a2.7,2.7,0,0,0,2.5,1.83,2.617,2.617,0,0,0,1.834-.718l.058-.057.057-.058" transform="translate(-235.455 -235.827)" fill="#483c8c"/>
      <path id="Trazado_193113" data-name="Trazado 193113" d="M288.232,608.046a4.23,4.23,0,0,0-2.964-1.16,4.357,4.357,0,0,0-4.046,2.959l-1.14,3.293a17.7,17.7,0,0,1-9.691,9.691l-3.293,1.14a4.357,4.357,0,0,0-2.959,4.046,4.23,4.23,0,0,0,1.16,2.964l.092.094.094.092a4.233,4.233,0,0,0,2.964,1.161,4.358,4.358,0,0,0,4.046-2.959l1.139-3.293a17.7,17.7,0,0,1,9.691-9.691l3.293-1.139a4.358,4.358,0,0,0,2.959-4.046,4.232,4.232,0,0,0-1.161-2.964l-.092-.094-.094-.092" transform="translate(-211.65 -487.136)" fill="#483c8c"/>
      <path id="Trazado_193114" data-name="Trazado 193114" d="M528.494,654.2a4.231,4.231,0,0,0-2.487,1.987,4.357,4.357,0,0,0,.539,4.983l2.282,2.633a17.7,17.7,0,0,1,3.547,13.238l-.66,3.422a4.358,4.358,0,0,0,2.025,4.585,4.23,4.23,0,0,0,3.147.477l.127-.032.127-.036a4.232,4.232,0,0,0,2.487-1.987,4.357,4.357,0,0,0-.539-4.983l-2.282-2.633a17.7,17.7,0,0,1-3.547-13.238l.66-3.422a4.357,4.357,0,0,0-2.025-4.585,4.231,4.231,0,0,0-3.147-.477l-.127.032-.126.036" transform="translate(-421.407 -524.963)" fill="#483c8c"/>
      <path id="Trazado_193115" data-name="Trazado 193115" d="M654.111,528.766a4.231,4.231,0,0,0,.477,3.147,4.357,4.357,0,0,0,4.585,2.025l3.422-.66a17.7,17.7,0,0,1,13.238,3.547l2.634,2.283a4.358,4.358,0,0,0,4.983.539,4.23,4.23,0,0,0,1.987-2.487c.013-.042.024-.084.036-.127s.022-.085.032-.127a4.231,4.231,0,0,0-.477-3.147,4.358,4.358,0,0,0-4.586-2.025l-3.422.66a17.7,17.7,0,0,1-13.238-3.547l-2.634-2.282a4.357,4.357,0,0,0-4.983-.539,4.232,4.232,0,0,0-1.987,2.487c-.013.042-.024.084-.036.127s-.022.085-.032.127" transform="translate(-524.578 -421.793)" fill="#483c8c"/>
      <path id="Trazado_193116" data-name="Trazado 193116" d="M288.535,579.063l3.252,5.633-10.776,4.676a1.926,1.926,0,0,1-1.914-3.315Z" transform="translate(-223.032 -464.804)" fill="#483c8c"/>
      <path id="Trazado_193117" data-name="Trazado 193117" d="M579.046,656.67l5.633-3.252,4.676,10.776a1.926,1.926,0,0,1-3.315,1.914Z" transform="translate(-464.419 -524.487)" fill="#483c8c"/>
      <path id="Trazado_193118" data-name="Trazado 193118" d="M656.653,378.366l-3.252-5.633,10.776-4.676a1.926,1.926,0,0,1,1.914,3.315Z" transform="translate(-524.102 -295.307)" fill="#483c8c"/>
      <path id="Trazado_193119" data-name="Trazado 193119" d="M378.348,288.552l-5.633,3.252-4.676-10.776a1.926,1.926,0,0,1,3.315-1.914Z" transform="translate(-294.921 -223.417)" fill="#483c8c"/>
      <path id="Trazado_193120" data-name="Trazado 193120" d="M372.715,653.418l5.633,3.252-6.994,9.437a1.926,1.926,0,0,1-3.315-1.914Z" transform="translate(-294.921 -524.487)" fill="#483c8c"/>
      <path id="Trazado_193121" data-name="Trazado 193121" d="M653.4,584.7l3.252-5.633,9.438,6.994a1.926,1.926,0,0,1-1.914,3.315Z" transform="translate(-524.102 -464.804)" fill="#483c8c"/>
      <path id="Trazado_193122" data-name="Trazado 193122" d="M584.679,291.8l-5.633-3.252,6.994-9.437a1.926,1.926,0,0,1,3.315,1.914Z" transform="translate(-464.419 -223.417)" fill="#483c8c"/>
      <path id="Trazado_193123" data-name="Trazado 193123" d="M291.786,372.733l-3.252,5.633-9.437-6.994a1.926,1.926,0,0,1,1.914-3.315Z" transform="translate(-223.031 -295.307)" fill="#483c8c"/>
      <path id="Trazado_193124" data-name="Trazado 193124" d="M483.507,686.667h6.5l-1.338,11.67a1.927,1.927,0,0,1-3.828,0Z" transform="translate(-387.732 -551.175)" fill="#483c8c"/>
      <path id="Trazado_193125" data-name="Trazado 193125" d="M686.649,490.029v-6.5l11.67,1.338a1.927,1.927,0,0,1,0,3.828Z" transform="translate(-550.789 -388.118)" fill="#483c8c"/>
      <path id="Trazado_193126" data-name="Trazado 193126" d="M490.012,258.931h-6.5l1.338-11.67a1.926,1.926,0,0,1,1.914-1.707h0a1.927,1.927,0,0,1,1.914,1.707Z" transform="translate(-387.732 -197.105)" fill="#483c8c"/>
      <path id="Trazado_193127" data-name="Trazado 193127" d="M258.914,483.525v6.5l-11.67-1.338a1.927,1.927,0,0,1,0-3.828Z" transform="translate(-196.719 -388.118)" fill="#483c8c"/>
      <path id="Trazado_193128" data-name="Trazado 193128" d="M432.45,386.11a4.923,4.923,0,1,1-3.481,6.029,4.923,4.923,0,0,1,3.481-6.029" transform="translate(-343.819 -309.79)" fill="#f18385"/>
      <path id="Trazado_193129" data-name="Trazado 193129" d="M363.759,526.223a6.722,6.722,0,1,1-4.753,8.233,6.722,6.722,0,0,1,4.753-8.233" transform="translate(-287.612 -422.205)" fill="#f18385"/>
      <path id="Trazado_193130" data-name="Trazado 193130" d="M541.175,544.311a3.344,3.344,0,1,1-2.365,4.1,3.344,3.344,0,0,1,2.365-4.1" transform="translate(-432.03 -436.818)" fill="#f18385"/>
      <path id="Trazado_193131" data-name="Trazado 193131" d="M647.676,461.312a3.344,3.344,0,1,1-2.365,4.1,3.344,3.344,0,0,1,2.365-4.1" transform="translate(-517.516 -370.196)" fill="#f18385"/>
      <path id="Trazado_193132" data-name="Trazado 193132" d="M533.79,332.7a3.344,3.344,0,1,1-2.365,4.1,3.344,3.344,0,0,1,2.365-4.1" transform="translate(-426.102 -266.96)" fill="#f18385"/>
      <path id="Trazado_193133" data-name="Trazado 193133" d="M562.213,436.831a1.672,1.672,0,1,1-1.182,2.048,1.672,1.672,0,0,1,1.182-2.048" transform="translate(-449.912 -350.592)" fill="#f4e474"/>
      <path id="Trazado_193134" data-name="Trazado 193134" d="M485.071,623.994a1.672,1.672,0,1,1-1.183,2.048,1.672,1.672,0,0,1,1.183-2.048" transform="translate(-387.992 -500.823)" fill="#f18385"/>
      <path id="Trazado_193135" data-name="Trazado 193135" d="M337.047,435.8a1.672,1.672,0,1,1-1.182,2.048,1.672,1.672,0,0,1,1.182-2.048" transform="translate(-269.177 -349.767)" fill="#f18385"/>
      <path id="Trazado_193136" data-name="Trazado 193136" d="M606.568,601.2a1.672,1.672,0,1,1-1.182,2.048,1.672,1.672,0,0,1,1.182-2.048" transform="translate(-485.515 -482.523)" fill="#f18385"/>
    </g>
  </g>
</svg>
