<svg xmlns="http://www.w3.org/2000/svg" width="80.04" height="89.317" viewBox="0 0 80.04 89.317">
  <g id="archivo" transform="translate(-0.5)">
    <path id="Trazado_193241" data-name="Trazado 193241" d="M54.576,7.5H8V94.182H70.784V23.707Zm0,0" transform="translate(-6.188 -6.192)" fill="#8ee5f6"/>
    <path id="Trazado_193242" data-name="Trazado 193242" d="M8,7.5h5.233V94.182H8Zm0,0" transform="translate(-6.188 -6.192)" fill="#f18385"/>
    <path id="Trazado_193243" data-name="Trazado 193243" d="M275.012,23.707H291.22L275.012,7.5Zm0,0" transform="translate(-226.624 -6.192)" fill="#bcffff"/>
    <path id="Trazado_193244" data-name="Trazado 193244" d="M275.012,7.5V23.707h5.233V12.732Zm0,0" transform="translate(-226.624 -6.192)" fill="#bcffff"/>
    <path id="Trazado_193245" data-name="Trazado 193245" d="M174.941,32.609h-2.616V29.992h2.616Zm-4.361,0h-2.616V29.992h2.616Zm0,0" transform="translate(-138.251 -24.76)" fill="#fff"/>
    <path id="Trazado_193246" data-name="Trazado 193246" d="M276.471,338.627l-6.553-6.553-16.432,16.431-6.859-6.859-6.553,6.553,13.412,13.411Zm0,0" transform="translate(-197.781 -274.145)" fill="#f18385"/>
    <path id="Trazado_193247" data-name="Trazado 193247" d="M245.307,393.5l3.937-3.937-2.616-2.617-6.553,6.553,13.412,13.411L256.1,404.3Zm0,0" transform="translate(-197.781 -319.447)" fill="#fde9e0"/>
    <path id="Trazado_193248" data-name="Trazado 193248" d="M280.671,43.032h-10.54V32.492h-2.616V45.648h13.156Zm0,0" transform="translate(-220.435 -26.824)"/>
    <path id="Trazado_193249" data-name="Trazado 193249" d="M63.288,86.682H58.34l22.2-22.2-8.4-8.4L55.705,72.512l-6.859-6.859-8.4,8.4L53.07,86.682H3.116V2.616H47.847L63.288,18.057v40.7H65.9V16.974L48.93,0H.5V89.3H55.687l.018.018.018-.018H65.9V84.065H63.288v2.617ZM48.847,69.353l6.859,6.859L72.137,59.779l4.7,4.7L55.705,85.617,44.143,74.056Zm0,0"/>
    <path id="Trazado_193250" data-name="Trazado 193250" d="M67.984,119.762H92.4v2.616H67.984Zm0,0" transform="translate(-55.712 -98.87)"/>
    <path id="Trazado_193251" data-name="Trazado 193251" d="M97.98,179.75h36.627v2.616H97.98Zm0,0" transform="translate(-80.475 -148.393)"/>
    <path id="Trazado_193252" data-name="Trazado 193252" d="M67.984,214.742h41.859v2.616H67.984Zm0,0" transform="translate(-55.712 -177.281)"/>
    <path id="Trazado_193253" data-name="Trazado 193253" d="M67.984,249.734h36.627v2.616H67.984Zm0,0" transform="translate(-55.712 -206.169)"/>
    <path id="Trazado_193254" data-name="Trazado 193254" d="M97.98,284.727h36.627v2.616H97.98Zm0,0" transform="translate(-80.475 -235.057)"/>
    <path id="Trazado_193255" data-name="Trazado 193255" d="M67.984,319.719h41.859v2.616H67.984Zm0,0" transform="translate(-55.712 -263.945)"/>
    <path id="Trazado_193256" data-name="Trazado 193256" d="M67.984,354.711h36.627v2.616H67.984Zm0,0" transform="translate(-55.712 -292.832)"/>
  </g>
</svg>
