<svg xmlns="http://www.w3.org/2000/svg" width="163.152" height="145.009" viewBox="0 0 163.152 145.009">
  <g id="Grupo_146094" data-name="Grupo 146094" transform="translate(-706.848 -5290.991)">
    <g id="Grupo_146000" data-name="Grupo 146000">
      <rect id="Rectángulo_44377" data-name="Rectángulo 44377" width="139" height="139" rx="69.5" transform="translate(731 5297)" fill="#b0f0fc"/>
      <g id="hamburguesa" transform="translate(752.106 5291.81)">
        <g id="Grupo_145976" data-name="Grupo 145976" transform="translate(1.418 33.842)">
          <path id="Trazado_194177" data-name="Trazado 194177" d="M87.928,111.792H81.361V86.3a1.159,1.159,0,0,1,1.159-1.159h5.409v26.648Z" transform="translate(-67.4 -76.595)" fill="#fee45a"/>
          <path id="Trazado_194178" data-name="Trazado 194178" d="M98.732,85.144h3.284v26.648H98.732Z" transform="translate(-81.487 -76.595)" fill="#fedf30"/>
          <path id="Trazado_194179" data-name="Trazado 194179" d="M122.67,75.118H116.1V41.081a1.159,1.159,0,0,1,1.159-1.159h4.249a1.159,1.159,0,0,1,1.159,1.159V75.118Z" transform="translate(-95.574 -39.922)" fill="#fee45a"/>
          <path id="Trazado_194180" data-name="Trazado 194180" d="M130.627,39.922h-3.284a1.159,1.159,0,0,1,1.159,1.159V75.118h3.284V41.081A1.159,1.159,0,0,0,130.627,39.922Z" transform="translate(-104.689 -39.922)" fill="#fedf30"/>
          <path id="Trazado_194181" data-name="Trazado 194181" d="M157.413,100.378h-6.567V71.07h5.409a1.159,1.159,0,0,1,1.159,1.159v28.149Z" transform="translate(-123.75 -65.182)" fill="#fee45a"/>
          <path id="Trazado_194182" data-name="Trazado 194182" d="M165.369,71.07h-3.284a1.159,1.159,0,0,1,1.159,1.159v28.149h3.284V72.229A1.159,1.159,0,0,0,165.369,71.07Z" transform="translate(-132.864 -65.182)" fill="#fedf30"/>
          <path id="Trazado_194183" data-name="Trazado 194183" d="M185.588,104.185h6.567v23.048h-6.567Z" transform="translate(-151.924 -92.037)" fill="#fee45a"/>
          <path id="Trazado_194184" data-name="Trazado 194184" d="M202.959,104.185h3.284v23.048h-3.284Z" transform="translate(-166.011 -92.037)" fill="#fedf30"/>
          <path id="Trazado_194185" data-name="Trazado 194185" d="M226.9,90.838H220.33V60.465a1.159,1.159,0,0,1,1.159-1.159h4.249a1.159,1.159,0,0,1,1.159,1.159Z" transform="translate(-180.099 -55.642)" fill="#fee45a"/>
          <path id="Trazado_194186" data-name="Trazado 194186" d="M234.854,59.306H231.57a1.159,1.159,0,0,1,1.159,1.159V90.838h3.284V60.465A1.159,1.159,0,0,0,234.854,59.306Z" transform="translate(-189.214 -55.642)" fill="#fedf30"/>
          <path id="Trazado_194187" data-name="Trazado 194187" d="M92.708,148.539,86.16,193.5l-.017.115H53.525L46.96,148.539a1.891,1.891,0,0,1,1.871-2.164h7.354a1.893,1.893,0,0,1,1.667,1c1.225,2.287,4.922,7.7,11.983,7.7a13.121,13.121,0,0,0,12.008-7.633,1.885,1.885,0,0,1,1.694-1.068h7.3A1.891,1.891,0,0,1,92.708,148.539Z" transform="translate(-39.485 -126.252)" fill="#f18385"/>
          <path id="Trazado_194188" data-name="Trazado 194188" d="M216.345,148.539,209.8,193.5a5.963,5.963,0,0,1-4.788-5.845V179.66h-.985a4.628,4.628,0,0,1-4.628-4.628v-1.095a4.628,4.628,0,0,1,4.628-4.628h.985V156.28a12.155,12.155,0,0,1,5.1-9.905h4.367A1.891,1.891,0,0,1,216.345,148.539Z" transform="translate(-163.122 -126.252)" fill="#f44545"/>
          <path id="Trazado_194189" data-name="Trazado 194189" d="M127.366,436.878H71.281a7.743,7.743,0,0,1-7.223-4.953L62.8,428.671h73.046l-1.257,3.255A7.743,7.743,0,0,1,127.366,436.878Z" transform="translate(-52.348 -355.183)" fill="#ddeafb"/>
          <path id="Trazado_194190" data-name="Trazado 194190" d="M383.241,428.671l-1.257,3.255a7.743,7.743,0,0,1-7.223,4.953h5.594a7.743,7.743,0,0,0,7.223-4.953l1.257-3.255Z" transform="translate(-305.337 -355.183)" fill="#cbe2ff"/>
          <path id="Trazado_194191" data-name="Trazado 194191" d="M100.41,396.26H8.552a1.045,1.045,0,0,0-.928,1.526,8.515,8.515,0,0,0,7.562,4.6h78.59a8.515,8.515,0,0,0,7.562-4.6A1.045,1.045,0,0,0,100.41,396.26Z" transform="translate(-7.506 -328.899)" fill="#ecf4ff"/>
          <path id="Trazado_194192" data-name="Trazado 194192" d="M446.514,396.26H440.92a1.045,1.045,0,0,1,.928,1.526,8.515,8.515,0,0,1-7.562,4.6h5.594a8.515,8.515,0,0,0,7.562-4.6A1.045,1.045,0,0,0,446.514,396.26Z" transform="translate(-353.609 -328.899)" fill="#ddeafb"/>
          <g id="Grupo_145975" data-name="Grupo 145975" transform="translate(40.614 17.862)">
            <path id="Trazado_194193" data-name="Trazado 194193" d="M285.9,336.4H258a5.959,5.959,0,0,1-5.959-5.959v-7.993h39.814v7.993A5.959,5.959,0,0,1,285.9,336.4Z" transform="translate(-246.431 -286.905)" fill="#fdb441"/>
            <path id="Trazado_194194" data-name="Trazado 194194" d="M414.142,322.451v7.993a5.959,5.959,0,0,1-5.959,5.959h4.339a5.959,5.959,0,0,0,5.959-5.959v-7.993Z" transform="translate(-373.055 -286.904)" fill="#fea613"/>
            <path id="Trazado_194195" data-name="Trazado 194195" d="M291.856,151.745H252.042v-5.167A12.168,12.168,0,0,1,264.21,134.41h15.478a12.168,12.168,0,0,1,12.168,12.168v5.167Z" transform="translate(-246.43 -134.41)" fill="#fdb441"/>
            <path id="Trazado_194196" data-name="Trazado 194196" d="M379.677,134.41h-4.339a12.168,12.168,0,0,1,12.168,12.168v5.167h4.339v-5.167A12.168,12.168,0,0,0,379.677,134.41Z" transform="translate(-346.418 -134.41)" fill="#fea613"/>
            <path id="Trazado_194197" data-name="Trazado 194197" d="M252.042,226.111h39.814v7.863H252.042Z" transform="translate(-246.43 -208.776)" fill="#18bab9"/>
            <path id="Trazado_194198" data-name="Trazado 194198" d="M439.707,226.111h4.339v7.863h-4.339Z" transform="translate(-398.619 -208.776)" fill="#017b4e"/>
            <path id="Trazado_194199" data-name="Trazado 194199" d="M268.766,267.706H226.981a4.627,4.627,0,0,0-4.627,4.627v1.095a4.627,4.627,0,0,0,4.627,4.627h41.784a4.627,4.627,0,0,0,4.627-4.627v-1.095A4.627,4.627,0,0,0,268.766,267.706Z" transform="translate(-222.354 -242.508)" fill="#f18385"/>
            <path id="Trazado_194200" data-name="Trazado 194200" d="M449.257,267.706h-4.339a4.627,4.627,0,0,1,4.627,4.627v1.095a4.627,4.627,0,0,1-4.627,4.627h4.339a4.627,4.627,0,0,0,4.627-4.627v-1.095A4.627,4.627,0,0,0,449.257,267.706Z" transform="translate(-402.845 -242.508)" fill="#c42d2d"/>
          </g>
          <ellipse id="Elipse_1257" data-name="Elipse 1257" cx="5.357" cy="9.107" rx="5.357" ry="9.107" transform="translate(24.991 39.149)" fill="#5f99d7"/>
          <path id="Trazado_194201" data-name="Trazado 194201" d="M161.15,247.023a3.389,3.389,0,0,0-1.609.418c2.173,1.161,3.749,4.612,3.749,8.689s-1.576,7.527-3.749,8.689a3.388,3.388,0,0,0,1.609.418c2.959,0,5.357-4.077,5.357-9.107s-2.4-9.107-5.357-9.107Z" transform="translate(-130.801 -207.873)" fill="#3c87d0"/>
        </g>
        <g id="Grupo_145977" data-name="Grupo 145977" transform="translate(-0.001 32.425)">
          <path id="Trazado_194202" data-name="Trazado 194202" d="M96.427,100.968a2.445,2.445,0,0,0-2.1-1.183H87.307a7.338,7.338,0,0,0,1.57-4.541V88.651a6.052,6.052,0,0,0,5.612-6.028V81.529A6.052,6.052,0,0,0,88.877,75.5V69.038a1.418,1.418,0,0,0-1.418-1.418h-38.4V63.872a10.762,10.762,0,0,1,10.75-10.75H75.291a10.8,10.8,0,0,1,10.635,9.17,1.418,1.418,0,1,0,2.805-.413,13.588,13.588,0,0,0-13.44-11.592H59.812a13.506,13.506,0,0,0-7.495,2.262H49.636V38.665a2.58,2.58,0,0,0-2.577-2.577H42.808a2.58,2.58,0,0,0-2.577,2.577v5.907H36.5V40.89a2.58,2.58,0,0,0-2.577-2.577h-3.99V35a2.58,2.58,0,0,0-2.577-2.577H23.107A2.58,2.58,0,0,0,20.53,35v5.971H16.538a2.58,2.58,0,0,0-2.577,2.577v9h-3.2A3.377,3.377,0,0,0,7.49,56.334l5.549,38.1a1.418,1.418,0,0,0,1.4,1.214,1.436,1.436,0,0,0,.206-.015,1.418,1.418,0,0,0,1.2-1.607L10.3,55.926c-.7-.98,6.912-.4,7.753-.542,2.995,4.071,7.4,8.981,13.72,8.7a14.466,14.466,0,0,0,13.283-8.432.466.466,0,0,1,.418-.27h3.747a13.517,13.517,0,0,0-2.989,8.488V75.5a6.052,6.052,0,0,0-5.612,6.028v1.095a6.052,6.052,0,0,0,5.612,6.028v6.593a7.806,7.806,0,0,0,1.568,4.541H2.465A2.463,2.463,0,0,0,.277,103.38,9.9,9.9,0,0,0,9.1,108.747h1.8l.907,2.348a9.218,9.218,0,0,0,8.545,5.86H76.436a9.218,9.218,0,0,0,8.545-5.86l.907-2.348h1.8a9.9,9.9,0,0,0,8.822-5.367,2.445,2.445,0,0,0-.083-2.412ZM18.118,52.548H16.8V43.809H20.53v9.784A3.3,3.3,0,0,0,18.118,52.548ZM29.932,61.1V57.256a1.418,1.418,0,0,0-2.836,0v2.992a12.156,12.156,0,0,1-3.732-2.719V35.261H27.1V50.608a1.418,1.418,0,1,0,2.836,0V41.149h3.732V61.112a12.986,12.986,0,0,1-1.9.137,11.637,11.637,0,0,1-1.836-.145Zm6.567-.787V47.408h3.732V57.694A11.278,11.278,0,0,1,36.5,60.317Zm6.567-6.72V38.924H46.8V52.548A4.532,4.532,0,0,0,43.067,53.6Zm6,41.647V88.668H86.041v6.576A4.547,4.547,0,0,1,81.5,99.785H53.6a4.547,4.547,0,0,1-4.542-4.541ZM86.041,70.456v5.027H49.062V70.456ZM43.45,82.623V81.529c-.037-2.117,2.106-3.515,4.194-3.209H87.459a3.484,3.484,0,0,1,4.194,3.209v1.095c.037,2.117-2.106,3.515-4.194,3.209H47.644A3.484,3.484,0,0,1,43.45,82.623Zm44.239,23.289H77.5a1.418,1.418,0,1,0,0,2.836h5.347a6.835,6.835,0,0,1-6.413,5.372H20.351c-3.089.08-5.632-2.433-6.413-5.372h56.9a1.418,1.418,0,0,0,0-2.836H9.1a7.069,7.069,0,0,1-5.991-3.291H93.679A7.069,7.069,0,0,1,87.689,105.912Z" transform="translate(0.001 -32.425)"/>
          <circle id="Elipse_1258" data-name="Elipse 1258" cx="1.479" cy="1.479" r="1.479" transform="translate(61.125 23.094)"/>
          <path id="Trazado_194203" data-name="Trazado 194203" d="M376.131,155.024a1.479,1.479,0,1,0,2.092,0A1.48,1.48,0,0,0,376.131,155.024Z" transform="translate(-304.677 -131.497)"/>
          <circle id="Elipse_1259" data-name="Elipse 1259" cx="1.479" cy="1.479" r="1.479" transform="translate(66.148 26.701)"/>
          <path id="Trazado_194204" data-name="Trazado 194204" d="M145.76,250.048c0-5.9-2.976-10.525-6.775-10.525s-6.775,4.623-6.775,10.525,2.976,10.525,6.775,10.525S145.76,255.95,145.76,250.048Zm-10.715,0c0-4.531,2.076-7.689,3.94-7.689s3.94,3.158,3.94,7.689-2.076,7.689-3.94,7.689S135.046,254.579,135.046,250.048Z" transform="translate(-107.217 -200.374)"/>
        </g>
      </g>
      <g id="espiritu" transform="translate(614.668 5297)">
        <path id="Trazado_194205" data-name="Trazado 194205" d="M120.562,73.741c-1-.8-4.322-2.769-4.322-2.769V55.609h-9.454V70.972l-4.321,2.769A9.454,9.454,0,0,0,99.7,80.426v36.634a4.727,4.727,0,0,0,4.727,4.727H118.6a4.727,4.727,0,0,0,4.727-4.727V80.426A8.475,8.475,0,0,0,120.562,73.741Z" transform="translate(-6.408 -47.41)" fill="#38c7c2"/>
        <path id="Trazado_194206" data-name="Trazado 194206" d="M103.24,118.242V81.608a8.474,8.474,0,0,1,2.769-6.685c1-.8,4.322-2.769,4.322-2.769V55.609h-3.545V70.972s-3.322,1.965-4.322,2.769A8.474,8.474,0,0,0,99.7,80.426v36.634a4.727,4.727,0,0,0,4.727,4.727h.42A4.715,4.715,0,0,1,103.24,118.242Z" transform="translate(-6.407 -47.41)" fill="#00b5b8"/>
        <rect id="Rectángulo_44550" data-name="Rectángulo 44550" width="23.635" height="23.635" transform="translate(93.288 41.288)" fill="#fdfab6"/>
        <rect id="Rectángulo_44551" data-name="Rectángulo 44551" width="3.545" height="23.635" transform="translate(93.288 41.288)" fill="#fcde76"/>
        <path id="Trazado_194207" data-name="Trazado 194207" d="M123.33,323.67h-4.236c-1.277-2.087-4.19-3.545-7.582-3.545s-6.305,1.459-7.582,3.545H99.695V328.4h4.236c1.277,2.087,4.19,3.545,7.582,3.545s6.305-1.459,7.582-3.545h4.236V323.67Z" transform="translate(-6.407 -272.929)" fill="#f59f3f"/>
        <rect id="Rectángulo_44552" data-name="Rectángulo 44552" width="3.545" height="4.727" transform="translate(93.288 50.742)" fill="#f2821c"/>
        <path id="Trazado_194208" data-name="Trazado 194208" d="M131.758,7.515v7.091l2.363,1.182V26.423h9.454V15.787l2.364-1.182V7.515Z" transform="translate(-33.743 -6.407)" fill="#f59f3f"/>
        <path id="Trazado_194209" data-name="Trazado 194209" d="M135.3,13.424V7.515h-3.545v7.091l2.363,1.182V26.423h3.545V14.606Z" transform="translate(-33.743 -6.407)" fill="#f2821c"/>
        <rect id="Rectángulo_44553" data-name="Rectángulo 44553" width="9.454" height="1.182" transform="translate(100.379 8.198)" fill="#e57712"/>
        <path id="Trazado_194210" data-name="Trazado 194210" d="M236.451,256a13,13,0,1,0,25.02,0Z" transform="translate(-122.584 -218.258)" fill="#f0f0f1"/>
        <path id="Trazado_194211" data-name="Trazado 194211" d="M269.463,289.5a9.465,9.465,0,0,1-9.454-9.454h18.908A9.465,9.465,0,0,1,269.463,289.5Z" transform="translate(-143.086 -238.759)" fill="#e6608d"/>
        <path id="Trazado_194212" data-name="Trazado 194212" d="M263.553,280.047h-3.545a9.447,9.447,0,0,0,11.227,9.285A9.468,9.468,0,0,1,263.553,280.047Z" transform="translate(-143.085 -238.759)" fill="#d4506f"/>
        <g id="Grupo_145978" data-name="Grupo 145978" transform="translate(120.468 70.832)">
          <path id="Trazado_194213" data-name="Trazado 194213" d="M295.873,483.983H284.055l5.909-3.545Z" transform="translate(-284.055 -480.438)" fill="#f0f0f1"/>
        </g>
        <circle id="Elipse_1260" data-name="Elipse 1260" cx="1.182" cy="1.182" r="1.182" transform="translate(128.741 44.833)" fill="#ffd9e4"/>
        <path id="Trazado_194214" data-name="Trazado 194214" d="M256.661,253.138a14.132,14.132,0,0,0-.531-3.847,1.108,1.108,0,0,0-1.066-.806h-4.139a1.108,1.108,0,1,0,0,2.216H254.2a11.891,11.891,0,1,1-23.283,0H246.2a1.108,1.108,0,1,0,0-2.216H230.044a1.108,1.108,0,0,0-1.066.806A14.118,14.118,0,0,0,241.452,267.2a1.131,1.131,0,0,0-.006.117v14.736l-5.371,3.223a1.108,1.108,0,0,0,.57,2.058h11.818a1.108,1.108,0,0,0,.57-2.058l-5.371-3.223V267.319a1.131,1.131,0,0,0-.006-.117A14.126,14.126,0,0,0,256.661,253.138ZM240.645,285.12l1.909-1.145,1.909,1.145Z" transform="translate(-116.177 -211.851)"/>
        <path id="Trazado_194215" data-name="Trazado 194215" d="M252.494,273.64a10.562,10.562,0,1,0,21.124,0,1.108,1.108,0,0,0-1.108-1.108H253.6A1.108,1.108,0,0,0,252.494,273.64Zm18.835,1.108a8.347,8.347,0,0,1-16.546,0Z" transform="translate(-136.679 -232.352)"/>
        <path id="Trazado_194216" data-name="Trazado 194216" d="M116.923,52.736a1.108,1.108,0,0,0-1.108,1.108v.517h-3.128a1.108,1.108,0,0,0-.945.53c-1.121,1.832-3.726,3.016-6.637,3.016s-5.516-1.184-6.637-3.016a1.108,1.108,0,0,0-.945-.53H94.4V51.85h3.128a1.108,1.108,0,0,0,.945-.53c1.121-1.832,3.726-3.016,6.637-3.016s5.516,1.184,6.637,3.016a1.108,1.108,0,0,0,.945.53h1.281a1.108,1.108,0,1,0,0-2.216h-.7a11.175,11.175,0,0,0-16.33,0H94.4V42.4h16.077a1.108,1.108,0,1,0,0-2.216H94.4V33.015a7.339,7.339,0,0,1,2.356-5.822c.769-.619,3.286-2.143,4.191-2.678a1.108,1.108,0,0,0,.544-.954V21.124h7.238v2.437a1.108,1.108,0,0,0,.544.954c.9.535,3.422,2.059,4.191,2.678a7.339,7.339,0,0,1,2.356,5.822v1.576a1.108,1.108,0,1,0,2.216,0V33.015a9.517,9.517,0,0,0-3.182-7.548c-.813-.654-2.892-1.925-3.908-2.535V10.065l1.751-.876A1.108,1.108,0,0,0,113.3,8.2V1.108A1.108,1.108,0,0,0,112.2,0H98.015a1.108,1.108,0,0,0-1.108,1.108V8.2a1.108,1.108,0,0,0,.612.991l1.751.876V22.932c-1.016.61-3.1,1.881-3.908,2.535a9.517,9.517,0,0,0-3.182,7.548V69.65a5.842,5.842,0,0,0,5.835,5.835H112.2a5.842,5.842,0,0,0,5.835-5.835V53.844A1.107,1.107,0,0,0,116.923,52.736ZM99.123,7.514v-5.3h11.965v5.3l-1.751.876a1.108,1.108,0,0,0-.612.991v9.528h-7.238V9.38a1.108,1.108,0,0,0-.612-.991ZM96.94,56.577a11.175,11.175,0,0,0,16.33,0h2.545v7.238H94.4V56.577ZM112.2,73.269H98.015A3.623,3.623,0,0,1,94.4,69.65V66.031h21.419V69.65A3.623,3.623,0,0,1,112.2,73.269Z"/>
      </g>
      <g id="cancelar" transform="translate(819 5290.991)">
        <path id="Trazado_194217" data-name="Trazado 194217" d="M50.056,28.759A21.278,21.278,0,1,0,28.778,50.019,21.269,21.269,0,0,0,50.056,28.759Zm0,0" transform="translate(-6.858 -6.858)" fill="#f18385"/>
        <path id="Trazado_194218" data-name="Trazado 194218" d="M238.248,7.5q-.839,0-1.662.064a21.259,21.259,0,0,1,0,42.39q.823.064,1.662.064a21.259,21.259,0,1,0,0-42.519Zm0,0" transform="translate(-216.328 -6.858)" fill="#c62430"/>
        <path id="Trazado_194219" data-name="Trazado 194219" d="M121.291,116.654l7.058-7.051a3.527,3.527,0,1,0-4.986-4.991l-7.062,7.056-7.062-7.056a3.527,3.527,0,0,0-4.986,4.991l7.058,7.051-7.058,7.051a3.527,3.527,0,0,0,4.986,4.99l7.062-7.056,7.062,7.056a3.527,3.527,0,0,0,4.986-4.991Zm0,0" transform="translate(-94.38 -94.711)" fill="#fff"/>
        <path id="Trazado_194220" data-name="Trazado 194220" d="M284.3,116.675l7.06-7.053a3.527,3.527,0,0,0-4.158-5.6,3.526,3.526,0,0,1,.833,5.6l-6.178,6.173a1.245,1.245,0,0,0,0,1.762l6.178,6.172a3.527,3.527,0,0,1-.833,5.6,3.527,3.527,0,0,0,4.158-5.6Zm0,0" transform="translate(-257.385 -94.732)" fill="#e6e6e6"/>
        <path id="Trazado_194221" data-name="Trazado 194221" d="M37.42,6.415a21.934,21.934,0,0,0-31,0A21.9,21.9,0,0,0,20.378,43.75a.642.642,0,1,0,.089-1.281,20.647,20.647,0,1,1,2.907,0,.642.642,0,0,0,.044,1.283l.045,0A21.9,21.9,0,0,0,37.42,6.415Zm0,0"/>
        <path id="Trazado_194222" data-name="Trazado 194222" d="M216.143,118.137l2.41-2.408,6.606,6.6a4.17,4.17,0,1,0,5.9-5.895l-6.6-6.6,6.6-6.6a4.17,4.17,0,0,0-5.9-5.895l-2.09,2.088a.642.642,0,0,0,.908.908l2.09-2.088a2.892,2.892,0,0,1,4.083,0,2.882,2.882,0,0,1,0,4.078l-7.06,7.053a.642.642,0,0,0,0,.908l7.06,7.053a2.882,2.882,0,0,1,0,4.078,2.892,2.892,0,0,1-4.083,0l-7.06-7.053a.643.643,0,0,0-.908,0l-2.864,2.862a.642.642,0,0,0,.908.908Zm0,0" transform="translate(-196.633 -87.891)"/>
        <path id="Trazado_194223" data-name="Trazado 194223" d="M101.908,98.249l7.06,7.053a.642.642,0,0,0,.908,0l2.863-2.861a.642.642,0,0,0-.908-.908l-2.41,2.408-6.606-6.6a4.17,4.17,0,1,0-5.9,5.895l6.6,6.6-6.6,6.6a4.169,4.169,0,0,0,5.9,5.895l2.083-2.081a.642.642,0,1,0-.908-.908l-2.083,2.081a2.892,2.892,0,0,1-4.083,0,2.881,2.881,0,0,1,0-4.078l7.06-7.053a.642.642,0,0,0,0-.908l-7.06-7.053a2.881,2.881,0,0,1,0-4.078A2.892,2.892,0,0,1,101.908,98.249Zm0,0" transform="translate(-87.501 -87.891)"/>
      </g>
    </g>
  </g>
</svg>
