<svg xmlns="http://www.w3.org/2000/svg" width="265.854" height="139" viewBox="0 0 265.854 139">
  <g id="Grupo_146094" data-name="Grupo 146094" transform="translate(10536.655 5976)">
    <g id="Grupo_145998" data-name="Grupo 145998" transform="translate(-11209 -12139)">
      <rect id="Rectángulo_44555" data-name="Rectángulo 44555" width="139" height="139" rx="69.5" transform="translate(731 6163)" fill="#b0f0fc"/>
      <g id="cofre" transform="translate(670.345 6155.569)">
        <g id="Grupo_145983" data-name="Grupo 145983" transform="translate(3.013 20.122)">
          <path id="Trazado_194254" data-name="Trazado 194254" d="M114.527,41.757a11.438,11.438,0,0,0-10.983-8.247H80.71v-12.4H52.919v12.4H30.086A11.438,11.438,0,0,0,19.1,41.757L4,93.744H25.213l8.019-18.488L35.785,129.4H97.843L100.4,75.257l8.02,18.488h21.213Z" transform="translate(-4 -21.109)" fill="#fde9e0"/>
        </g>
        <g id="Grupo_145984" data-name="Grupo 145984" transform="translate(97.491 32.523)">
          <path id="Trazado_194255" data-name="Trazado 194255" d="M206.554,53.836a11.438,11.438,0,0,0-10.983-8.247h-5.066a11.437,11.437,0,0,1,10.983,8.247l15.1,51.988h5.066Z" transform="translate(-190.505 -45.589)" fill="#f18385"/>
        </g>
        <g id="Grupo_145985" data-name="Grupo 145985" transform="translate(91.791 74.27)">
          <path id="Trazado_194256" data-name="Trazado 194256" d="M181.554,133.35l-2.3,48.8h5.066L186.872,128Z" transform="translate(-179.253 -128)" fill="#f18385"/>
        </g>
        <g id="Grupo_145986" data-name="Grupo 145986" transform="translate(3.013 32.523)">
          <path id="Trazado_194257" data-name="Trazado 194257" d="M19.1,53.836a11.438,11.438,0,0,1,10.983-8.247h5.066a11.438,11.438,0,0,0-10.984,8.247l-15.1,51.988H4Z" transform="translate(-4 -45.589)" fill="#f18385"/>
        </g>
        <g id="Grupo_145987" data-name="Grupo 145987" transform="translate(32.246 74.27)">
          <path id="Trazado_194258" data-name="Trazado 194258" d="M67.025,133.35l2.3,48.8H64.26L61.707,128Z" transform="translate(-61.707 -128)" fill="#f18385"/>
        </g>
        <g id="Grupo_145988" data-name="Grupo 145988" transform="translate(26.161 52.129)">
          <path id="Trazado_194259" data-name="Trazado 194259" d="M83.881,113.308H63.742C51.29,113.308,49.755,86.5,49.7,85.359a1.013,1.013,0,0,1,2.024-.105,73.884,73.884,0,0,0,2.129,13.312c1.555,5.8,4.533,12.716,9.893,12.716h20.14a4.472,4.472,0,0,0,4.467-4.467v-.38a1.013,1.013,0,0,1,2.026,0v.38a6.5,6.5,0,0,1-6.494,6.494Z" transform="translate(-49.695 -84.293)"/>
        </g>
        <g id="Grupo_145989" data-name="Grupo 145989" transform="translate(64.814 52.13)">
          <path id="Trazado_194260" data-name="Trazado 194260" d="M152.633,113.309h-20.14A6.5,6.5,0,0,1,126,106.815V90.536a1.013,1.013,0,1,1,2.026,0v16.28a4.472,4.472,0,0,0,4.467,4.467h20.14c8.754,0,11.646-18.788,12.022-26.027a1.013,1.013,0,1,1,2.024.1c-.059,1.141-1.594,27.949-14.046,27.949Z" transform="translate(-126 -84.295)"/>
        </g>
        <g id="Grupo_145990" data-name="Grupo 145990" transform="translate(2 19.109)">
          <path id="Trazado_194261" data-name="Trazado 194261" d="M96.856,129.43H34.8a1.013,1.013,0,0,1-1.012-.966l-2.347-49.79L25.156,93.16a1.013,1.013,0,0,1-.93.61H3.013a1.013,1.013,0,0,1-.973-1.3l15.1-51.987A12.513,12.513,0,0,1,29.1,31.51h21.82V20.122a1.014,1.014,0,0,1,1.013-1.013H79.723a1.013,1.013,0,0,1,1.013,1.013V31.51h21.82a12.514,12.514,0,0,1,11.957,8.977l15.1,51.987a1.013,1.013,0,0,1-.973,1.3H107.429a1.013,1.013,0,0,1-.93-.61l-6.283-14.485-2.347,49.79A1.013,1.013,0,0,1,96.856,129.43ZM35.765,127.4H95.889L98.4,74.222a1.013,1.013,0,0,1,1.942-.356l7.755,17.878h19.2L112.567,41.053a10.476,10.476,0,0,0-10.011-7.516H79.723a1.014,1.014,0,0,1-1.013-1.013V21.135H52.945V32.523a1.014,1.014,0,0,1-1.013,1.013H29.1a10.476,10.476,0,0,0-10.011,7.516L4.363,91.744h19.2l7.755-17.878a1.013,1.013,0,0,1,1.942.356Z" transform="translate(-2 -19.109)"/>
        </g>
        <g id="Grupo_145991" data-name="Grupo 145991" transform="translate(19.613 42.36)">
          <path id="Trazado_194262" data-name="Trazado 194262" d="M37.784,73.114a1.014,1.014,0,0,1-.974-1.3l1.766-6.079a1.013,1.013,0,0,1,1.946.566l-1.766,6.079A1.013,1.013,0,0,1,37.784,73.114Z" transform="translate(-36.77 -65.008)" fill="#690589"/>
        </g>
      </g>
      <g id="globulo" transform="translate(808 6113.338)">
        <ellipse id="Elipse_1266" data-name="Elipse 1266" cx="20.343" cy="12.206" rx="20.343" ry="12.206" transform="translate(32.55 74.406)" fill="#f18385"/>
        <g id="Grupo_145992" data-name="Grupo 145992" transform="translate(40.687 86.74)">
          <path id="Trazado_194263" data-name="Trazado 194263" d="M160,128.5h4.069v3.814H160Z" transform="translate(-160 -128.5)" fill="#fff"/>
        </g>
        <path id="Trazado_194264" data-name="Trazado 194264" d="M148.343,130.172c-10.08,0-18.442-4.4-20.057-10.172a7.53,7.53,0,0,0-.287,2.034c0,6.741,9.108,12.206,20.343,12.206s20.343-5.465,20.343-12.206A7.53,7.53,0,0,0,168.4,120C166.785,125.772,158.423,130.172,148.343,130.172Z" transform="translate(-95.45 -35.422)" fill="#de3052"/>
        <ellipse id="Elipse_1267" data-name="Elipse 1267" cx="20.343" cy="12.206" rx="20.343" ry="12.206" transform="translate(61.03 106.956)" fill="#f18385"/>
        <path id="Trazado_194265" data-name="Trazado 194265" d="M260.343,258.172c-10.08,0-18.442-4.4-20.057-10.172a7.53,7.53,0,0,0-.287,2.034c0,6.741,9.108,12.206,20.343,12.206s20.343-5.465,20.343-12.206A7.53,7.53,0,0,0,280.4,248C278.785,253.772,270.423,258.172,260.343,258.172Z" transform="translate(-178.97 -130.872)" fill="#de3052"/>
        <ellipse id="Elipse_1268" data-name="Elipse 1268" cx="20.343" cy="12.206" rx="20.343" ry="12.206" transform="translate(32.55 139.506)" fill="#f18385"/>
        <g id="Grupo_145993" data-name="Grupo 145993" transform="translate(40.687 151.839)">
          <path id="Trazado_194266" data-name="Trazado 194266" d="M160,384.5h4.069v3.814H160Z" transform="translate(-160 -384.5)" fill="#fff"/>
        </g>
        <path id="Trazado_194267" data-name="Trazado 194267" d="M148.343,386.172c-10.08,0-18.442-4.4-20.057-10.172a7.53,7.53,0,0,0-.287,2.034c0,6.741,9.108,12.206,20.343,12.206s20.343-5.465,20.343-12.206A7.53,7.53,0,0,0,168.4,376C166.785,381.772,158.423,386.172,148.343,386.172Z" transform="translate(-95.45 -226.323)" fill="#de3052"/>
        <g id="Grupo_145994" data-name="Grupo 145994" transform="translate(105.786 86.613)">
          <circle id="Elipse_1269" data-name="Elipse 1269" cx="8.137" cy="8.137" r="8.137" fill="#f18385"/>
          <path id="Trazado_194268" data-name="Trazado 194268" d="M424.763,128.085a6.612,6.612,0,1,1-8.678,8.678,8.136,8.136,0,1,0,8.678-8.678Z" transform="translate(-416.063 -128.063)" fill="#de3052"/>
        </g>
        <g id="Grupo_145995" data-name="Grupo 145995" transform="translate(8.137 123.231)">
          <circle id="Elipse_1270" data-name="Elipse 1270" cx="8.137" cy="8.137" r="8.137" fill="#f18385"/>
          <path id="Trazado_194269" data-name="Trazado 194269" d="M40.763,272.085a6.612,6.612,0,1,1-8.678,8.678,8.136,8.136,0,1,0,8.678-8.678Z" transform="translate(-32.063 -272.063)" fill="#de3052"/>
        </g>
        <circle id="Elipse_1271" data-name="Elipse 1271" cx="4.069" cy="4.069" r="4.069" transform="translate(40.687 111.025)" fill="#f94d66"/>
        <g id="Grupo_145997" data-name="Grupo 145997" transform="translate(0 72.499)">
          <circle id="Elipse_1272" data-name="Elipse 1272" cx="4.069" cy="4.069" r="4.069" transform="translate(85.443 71.075)" fill="#f94d66"/>
          <g id="Grupo_145996" data-name="Grupo 145996">
            <path id="Trazado_194270" data-name="Trazado 194270" d="M142.751,100.726a34.008,34.008,0,0,0,8.627-1.08l-.968-3.69a30.209,30.209,0,0,1-7.659.955c-9.993,0-18.436-4.716-18.436-10.3s8.443-10.3,18.436-10.3,18.436,4.716,18.436,10.3c0,3.047-2.622,6.048-7.014,8.027l1.567,3.478a18.751,18.751,0,0,0,6.59-4.723A10.45,10.45,0,0,0,165,86.612C165,78.7,155.228,72.5,142.751,72.5S120.5,78.7,120.5,86.612,130.274,100.726,142.751,100.726Z" transform="translate(-89.858 -72.499)"/>
            <path id="Trazado_194271" data-name="Trazado 194271" d="M178.545,106.161c-4.088,0-6.23-1.606-6.23-2.161H168.5c0,3.407,4.318,5.976,10.045,5.976s10.045-2.569,10.045-5.976h-3.814C184.775,104.556,182.633,106.161,178.545,106.161Z" transform="translate(-125.652 -95.99)"/>
            <path id="Trazado_194272" data-name="Trazado 194272" d="M272,256.5h4.069v3.814H272Z" transform="translate(-202.832 -209.71)"/>
            <path id="Trazado_194273" data-name="Trazado 194273" d="M254.751,200.5c-12.477,0-22.251,6.2-22.251,14.113s9.774,14.113,22.251,14.113S277,222.527,277,214.613,267.228,200.5,254.751,200.5Zm0,24.412c-9.993,0-18.436-4.716-18.436-10.3s8.443-10.3,18.436-10.3,18.436,4.716,18.436,10.3S264.744,224.912,254.751,224.912Z" transform="translate(-173.377 -167.95)"/>
            <path id="Trazado_194274" data-name="Trazado 194274" d="M290.545,234.161c-4.088,0-6.23-1.606-6.23-2.161H280.5c0,3.407,4.318,5.976,10.045,5.976s10.045-2.569,10.045-5.976h-3.814C296.775,232.556,294.633,234.161,290.545,234.161Z" transform="translate(-209.171 -191.44)"/>
            <path id="Trazado_194275" data-name="Trazado 194275" d="M142.751,328.5a32.633,32.633,0,0,0-11.891,2.144l1.4,3.547a28.786,28.786,0,0,1,10.487-1.876c9.993,0,18.436,4.716,18.436,10.3s-8.443,10.3-18.436,10.3-18.436-4.716-18.436-10.3c0-2.352,1.539-4.679,4.335-6.553l-2.124-3.168c-3.885,2.6-6.025,6.057-6.025,9.722,0,7.914,9.774,14.113,22.251,14.113S165,350.527,165,342.613,155.228,328.5,142.751,328.5Z" transform="translate(-89.858 -263.401)"/>
            <path id="Trazado_194276" data-name="Trazado 194276" d="M188.589,360h-3.814c0,.556-2.142,2.161-6.23,2.161s-6.23-1.606-6.23-2.161H168.5c0,3.407,4.318,5.976,10.045,5.976S188.589,363.407,188.589,360Z" transform="translate(-125.652 -286.89)"/>
            <path id="Trazado_194277" data-name="Trazado 194277" d="M416.55,114.182v-3.814h-6.414a9.989,9.989,0,0,0-1.541-3.715l4.537-4.537-2.7-2.7-4.537,4.537a9.989,9.989,0,0,0-3.715-1.541V96h-3.814v6.414a9.989,9.989,0,0,0-3.715,1.541l-4.537-4.537-2.7,2.7,4.537,4.537a9.991,9.991,0,0,0-1.541,3.715H384v3.814h6.414a9.989,9.989,0,0,0,1.541,3.715l-4.537,4.537,2.7,2.7,4.537-4.537a9.989,9.989,0,0,0,3.715,1.541v6.414h3.814v-6.414a9.989,9.989,0,0,0,3.715-1.541l4.537,4.537,2.7-2.7-4.537-4.537a9.991,9.991,0,0,0,1.541-3.715h6.414ZM400.275,118.5a6.23,6.23,0,1,1,6.23-6.23A6.237,6.237,0,0,1,400.275,118.5Z" transform="translate(-286.351 -90.024)"/>
            <path id="Trazado_194278" data-name="Trazado 194278" d="M440,152.5h4.069v3.814H440Z" transform="translate(-328.111 -132.156)"/>
            <path id="Trazado_194279" data-name="Trazado 194279" d="M26.136,258.182H32.55v-3.814H26.136a9.986,9.986,0,0,0-1.541-3.715l4.537-4.537-2.7-2.7L21.9,247.955a9.991,9.991,0,0,0-3.715-1.541V240H14.368v6.414a9.991,9.991,0,0,0-3.715,1.541l-4.537-4.537-2.7,2.7,4.537,4.537a9.986,9.986,0,0,0-1.541,3.715H0v3.814H6.414A9.99,9.99,0,0,0,7.955,261.9l-4.537,4.537,2.7,2.7,4.537-4.537a9.99,9.99,0,0,0,3.715,1.541v6.414h3.814v-6.414a9.99,9.99,0,0,0,3.715-1.541l4.537,4.537,2.7-2.7L24.594,261.9A9.991,9.991,0,0,0,26.136,258.182ZM16.275,262.5a6.23,6.23,0,1,1,6.23-6.23A6.237,6.237,0,0,1,16.275,262.5Z" transform="translate(0 -197.406)"/>
            <path id="Trazado_194280" data-name="Trazado 194280" d="M56,296.5h4.069v3.814H56Z" transform="translate(-41.76 -239.538)"/>
            <path id="Trazado_194281" data-name="Trazado 194281" d="M156.344,212.079v-3.814h-4.51a5.933,5.933,0,0,0-.31-.747l3.189-3.189-2.7-2.7-3.189,3.189a5.931,5.931,0,0,0-.747-.31V200h-3.814v4.51a5.93,5.93,0,0,0-.747.31l-3.189-3.189-2.7,2.7,3.189,3.189a5.933,5.933,0,0,0-.31.747H136v3.814h4.51a5.931,5.931,0,0,0,.31.747l-3.189,3.189,2.7,2.7,3.189-3.189a5.934,5.934,0,0,0,.747.31v4.51h3.814v-4.51a5.933,5.933,0,0,0,.747-.31l3.189,3.189,2.7-2.7-3.189-3.189a5.932,5.932,0,0,0,.31-.747h4.51Zm-10.172.254a2.161,2.161,0,1,1,2.161-2.161A2.164,2.164,0,0,1,146.172,212.333Z" transform="translate(-101.416 -167.577)"/>
            <path id="Trazado_194282" data-name="Trazado 194282" d="M327.524,335.517l3.189-3.189-2.7-2.7-3.189,3.189a5.938,5.938,0,0,0-.747-.31V328h-3.814v4.51a5.936,5.936,0,0,0-.747.31l-3.189-3.189-2.7,2.7,3.189,3.189a5.934,5.934,0,0,0-.31.747H312v3.814h4.51a5.932,5.932,0,0,0,.31.747l-3.189,3.189,2.7,2.7,3.189-3.189a5.936,5.936,0,0,0,.747.31v4.51h3.814v-4.51a5.933,5.933,0,0,0,.747-.31l3.189,3.189,2.7-2.7-3.189-3.189a5.931,5.931,0,0,0,.31-.747h4.51v-3.814h-4.51A5.924,5.924,0,0,0,327.524,335.517Zm-5.352,4.816a2.161,2.161,0,1,1,2.161-2.161A2.164,2.164,0,0,1,322.172,340.333Z" transform="translate(-232.66 -263.028)"/>
          </g>
        </g>
      </g>
    </g>
  </g>
</svg>
