<svg xmlns="http://www.w3.org/2000/svg" width="139" height="139" viewBox="0 0 139 139">
  <g id="Grupo_146094" data-name="Grupo 146094" transform="translate(10478 5487)">
    <g id="Grupo_146001" data-name="Grupo 146001" transform="translate(-11209 -12139)">
      <rect id="Rectángulo_44555" data-name="Rectángulo 44555" width="139" height="139" rx="69.5" transform="translate(731 6652)" fill="#b0f0fc"/>
      <g id="_48_Healthcare" data-name="48 Healthcare" transform="translate(743.599 6655.211)">
        <g id="_48_Healthcare-2" data-name="48 Healthcare" transform="translate(-0.001 -0.02)">
          <g id="Healthcare_flat" data-name="Healthcare flat" transform="translate(2.501 2.455)">
            <path id="Trazado_194283" data-name="Trazado 194283" d="M29.643,383.96l-17.8-6.87a2.865,2.865,0,0,0-.593,1.778v.118a2.976,2.976,0,0,0,1.334,2.478l1.131.756a40.709,40.709,0,0,0,14.29,6,45.324,45.324,0,0,1,18.724,8.831.834.834,0,0,1,.313.651v6.779a.834.834,0,0,0,.827.816h2.71c-.358-2.983,2.181-14.225,2.181-14.225Z" transform="translate(-11.249 -295.723)" fill="#ffbeaa"/>
            <path id="Trazado_194284" data-name="Trazado 194284" d="M62.338,397.784V387.67A19.173,19.173,0,0,0,43.169,368.5H40.477a3.112,3.112,0,0,0-3.141,2.9,3.058,3.058,0,0,0,3.052,3.21h5.866a.849.849,0,0,1,.84.667.836.836,0,0,1-.816,1.009H39.328a38.418,38.418,0,0,1-21.156-6.344l-.267-.176a2.945,2.945,0,0,0-3.058-.153,2.9,2.9,0,0,0-.927.787,2.127,2.127,0,0,0,.809,1l1.5,1a40.71,40.71,0,0,0,14.29,6,53.616,53.616,0,0,1,19.038,7.906,4.312,4.312,0,0,1,1.778,3.01c.336,2.814.974,6.384,1.323,9.291H61.5a.833.833,0,0,0,.834-.833Z" transform="translate(-13.326 -289.042)" fill="#ffcdbe"/>
            <path id="Trazado_194285" data-name="Trazado 194285" d="M337.116,383.96l17.8-6.87a2.865,2.865,0,0,1,.593,1.778v.118a2.976,2.976,0,0,1-1.334,2.478l-1.131.756a40.71,40.71,0,0,1-14.29,6,45.324,45.324,0,0,0-18.724,8.831.834.834,0,0,0-.313.651v6.779a.834.834,0,0,1-.827.816h-2.71c.358-2.983-2.181-14.225-2.181-14.225Z" transform="translate(-246.706 -295.723)" fill="#ffbeaa"/>
            <path id="Trazado_194286" data-name="Trazado 194286" d="M280.25,397.784V387.67A19.173,19.173,0,0,1,299.419,368.5h2.692a3.112,3.112,0,0,1,3.141,2.9,3.059,3.059,0,0,1-3.052,3.21h-5.866a.849.849,0,0,0-.84.667.836.836,0,0,0,.816,1.009h6.95a38.417,38.417,0,0,0,21.167-6.344l.267-.176a2.945,2.945,0,0,1,3.058-.153,2.9,2.9,0,0,1,.927.787,2.127,2.127,0,0,1-.809,1l-1.5,1a40.71,40.71,0,0,1-14.29,6,53.7,53.7,0,0,0-19.038,7.906,4.312,4.312,0,0,0-1.778,3.01c-.336,2.814-.974,6.384-1.323,9.291h-8.858a.834.834,0,0,1-.834-.833Z" transform="translate(-220.458 -289.042)" fill="#ffcdbe"/>
            <path id="Trazado_194287" data-name="Trazado 194287" d="M230.989,22.2A21.561,21.561,0,0,0,221,16.7L167.63,74.669l18.5,18.1a1.654,1.654,0,0,0,2.285,0l42.579-41.009a20.5,20.5,0,0,0,0-29.56Z" transform="translate(-132.871 -15.439)" fill="#e54c7f"/>
            <path id="Trazado_194288" data-name="Trazado 194288" d="M176.838,14.53a22.272,22.272,0,0,0-5.237-.62,21.829,21.829,0,0,0-12.165,3.65L143.328,44.212,110.84,60.147,123.463,72.5l8.771,2.641a15.792,15.792,0,0,0,15.472-3.683l28.776-27.722a20.494,20.494,0,0,0,.356-29.2Z" transform="translate(-88.704 -13.268)" fill="#f36e90"/>
            <path id="Trazado_194289" data-name="Trazado 194289" d="M99.507,27.225a33.265,33.265,0,0,0-2.194-11.909,21.561,21.561,0,0,0-3.045,2.458L81.009,30.357l-13.3-13.221a22.022,22.022,0,0,0-30.451,0,20.5,20.5,0,0,0,0,29.562L48.713,57.908a35.953,35.953,0,0,0,15.559,3.519c19.467,0,35.235-15.317,35.235-34.2Z" transform="translate(-26.581 -11.025)" fill="#f58ba6"/>
          </g>
          <g id="Healthcare_line" data-name="Healthcare line" transform="translate(0 0)">
            <g id="Healthcare">
              <path id="Trazado_194290" data-name="Trazado 194290" d="M75.366,82.671a1.656,1.656,0,0,1-1.182-.493L30.244,37.9A22.216,22.216,0,0,1,61.669,6.491L75.392,20.534,89.075,7.169A22.218,22.218,0,1,1,120.487,38.6L76.539,82.186A1.651,1.651,0,0,1,75.366,82.671ZM45.968,3.319a18.873,18.873,0,0,0-13.354,32.23l42.752,43.1,42.748-42.41a18.878,18.878,0,1,0-26.7-26.7L76.526,24.086a1.667,1.667,0,0,1-2.356-.029L59.3,8.836A18.8,18.8,0,0,0,45.968,3.319Z" transform="translate(-18.463 0.02)"/>
              <g id="Cardiogram" transform="translate(27.34 22.565)">
                <path id="Trazado_194291" data-name="Trazado 194291" d="M141.782,137.508a1.608,1.608,0,0,1-.353-.038,1.667,1.667,0,0,1-1.314-1.629V110.229l-4.621,9.242a1.669,1.669,0,0,1-1.491.922h-9.335a1.667,1.667,0,1,1,0-3.334h8.3l7.319-14.637a1.667,1.667,0,0,1,3.159.745v24.979l4.594-10.109a1.669,1.669,0,0,1,1.518-.978h5.861l7.317-14.637a1.667,1.667,0,0,1,3.159.745v23.212l2.99-8.224a1.667,1.667,0,0,1,1.567-1.1h7.335a1.667,1.667,0,0,1,0,3.334h-6.168L165.8,136.408a1.667,1.667,0,0,1-3.234-.567V110.229l-4.621,9.242a1.669,1.669,0,0,1-1.491.922h-5.817L143.3,136.53a1.669,1.669,0,0,1-1.518.978Z" transform="translate(-123 -101.5)"/>
              </g>
              <path id="Trazado_194292" data-name="Trazado 194292" d="M52.345,391.452H37.453a1.667,1.667,0,0,1-1.667-1.667v-2.667a1.667,1.667,0,1,1,3.334,0v1H50.678v-9.447A18.358,18.358,0,0,0,32.34,360.334H29.562a2.223,2.223,0,1,0,0,4.445h5.89a1.667,1.667,0,0,1,0,3.334H28.5A39.256,39.256,0,0,1,6.89,361.648l-.267-.176a2.132,2.132,0,0,0-2.2-.116,2.04,2.04,0,0,0-1.085,1.82v.118a2.143,2.143,0,0,0,.956,1.778l1.131.756a39.847,39.847,0,0,0,14,5.872,45.477,45.477,0,0,1,16.659,7.206,1.667,1.667,0,1,1-1.9,2.738,42.168,42.168,0,0,0-15.444-6.682A43.214,43.214,0,0,1,3.576,368.6l-1.131-.749A5.466,5.466,0,0,1,0,363.295v-.118a5.335,5.335,0,0,1,2.834-4.754,5.412,5.412,0,0,1,5.612.265l.267.176a35.919,35.919,0,0,0,15.653,5.681,5.557,5.557,0,0,1,5.2-7.544H32.34a21.7,21.7,0,0,1,21.672,21.672v11.114A1.667,1.667,0,0,1,52.345,391.452Z" transform="translate(0.001 -277.644)"/>
              <path id="Trazado_194293" data-name="Trazado 194293" d="M285.559,391.452H270.667A1.667,1.667,0,0,1,269,389.785V378.672A21.7,21.7,0,0,1,290.672,357h2.778a5.557,5.557,0,0,1,5.19,7.544,35.919,35.919,0,0,0,15.653-5.681l.264-.176a5.417,5.417,0,0,1,5.621-.264,5.335,5.335,0,0,1,2.834,4.754v.118a5.466,5.466,0,0,1-2.445,4.559l-1.131.756a43.215,43.215,0,0,1-15.164,6.361,42.167,42.167,0,0,0-15.444,6.682,1.667,1.667,0,1,1-1.9-2.738,45.477,45.477,0,0,1,16.659-7.206,39.847,39.847,0,0,0,14-5.872l1.131-.756a2.143,2.143,0,0,0,.956-1.778v-.118a2.041,2.041,0,0,0-1.082-1.82,2.127,2.127,0,0,0-2.2.118l-.267.173a39.251,39.251,0,0,1-21.614,6.459H287.56a1.667,1.667,0,0,1,0-3.334h5.89a2.223,2.223,0,1,0,0-4.445h-2.778a18.358,18.358,0,0,0-18.338,18.338v9.447h11.558v-1a1.667,1.667,0,0,1,3.334,0v2.667a1.667,1.667,0,0,1-1.667,1.667Z" transform="translate(-209.208 -277.644)"/>
              <circle id="Elipse_1275" data-name="Elipse 1275" cx="1.667" cy="1.667" r="1.667" transform="translate(87.131 37.955)"/>
            </g>
          </g>
        </g>
      </g>
    </g>
  </g>
</svg>
