<svg xmlns="http://www.w3.org/2000/svg" width="760" height="119" viewBox="0 0 760 119">
  <g id="Grupo_146094" data-name="Grupo 146094" transform="translate(10796 4377)">
    <g id="Grupo_146018" data-name="Grupo 146018">
      <path id="Trazado_194318" data-name="Trazado 194318" d="M59.5,0A59.5,59.5,0,1,1,0,59.5,59.5,59.5,0,0,1,59.5,0Z" transform="translate(-10796 -4377)" fill="#8ee5f6" opacity="0.723"/>
      <path id="Trazado_194321" data-name="Trazado 194321" d="M11.461,0H9.246V-5.687H3.524V0H1.3V-12.8H3.524v5.326H9.246V-12.8h2.215ZM18.07.176A4.419,4.419,0,0,1,14.779-1.1a4.639,4.639,0,0,1-1.261-3.406v-.264a5.706,5.706,0,0,1,.549-2.544,4.181,4.181,0,0,1,1.542-1.745,4.078,4.078,0,0,1,2.215-.624,3.733,3.733,0,0,1,3,1.239,5.24,5.24,0,0,1,1.059,3.507v.861H15.671a2.856,2.856,0,0,0,.787,1.863,2.362,2.362,0,0,0,1.736.686,2.892,2.892,0,0,0,2.391-1.187l1.151,1.1A3.845,3.845,0,0,1,20.21-.294,4.774,4.774,0,0,1,18.07.176Zm-.255-8.147a1.8,1.8,0,0,0-1.419.615,3.189,3.189,0,0,0-.69,1.714h4.069V-5.8A2.6,2.6,0,0,0,19.2-7.422,1.785,1.785,0,0,0,17.815-7.972ZM31.869-4.658a5.662,5.662,0,0,1-1,3.52A3.209,3.209,0,0,1,28.178.176a3.23,3.23,0,0,1-2.5-1.028V3.656H23.537V-9.51h1.969l.088.967a3.137,3.137,0,0,1,2.558-1.143,3.242,3.242,0,0,1,2.729,1.3,5.813,5.813,0,0,1,.989,3.6Zm-2.127-.185A3.966,3.966,0,0,0,29.175-7.1a1.843,1.843,0,0,0-1.622-.835,1.965,1.965,0,0,0-1.881,1.081v4.219a1.983,1.983,0,0,0,1.9,1.107,1.841,1.841,0,0,0,1.6-.822A4.366,4.366,0,0,0,29.742-4.843ZM39.357,0a3.3,3.3,0,0,1-.246-.888,3.325,3.325,0,0,1-2.5,1.063,3.355,3.355,0,0,1-2.338-.817,2.615,2.615,0,0,1-.905-2.021A2.7,2.7,0,0,1,34.5-5a5.473,5.473,0,0,1,3.23-.813h1.31v-.624a1.666,1.666,0,0,0-.413-1.182,1.638,1.638,0,0,0-1.257-.444,1.881,1.881,0,0,0-1.2.365,1.129,1.129,0,0,0-.466.927H33.574a2.37,2.37,0,0,1,.519-1.463A3.455,3.455,0,0,1,35.5-9.3a4.955,4.955,0,0,1,1.991-.387,3.99,3.99,0,0,1,2.663.839,2.993,2.993,0,0,1,1.02,2.36V-2.2a4.861,4.861,0,0,0,.36,2.048V0ZM37.011-1.538A2.429,2.429,0,0,0,38.2-1.846a2.055,2.055,0,0,0,.839-.826V-4.465H37.89a3.148,3.148,0,0,0-1.784.413,1.338,1.338,0,0,0-.6,1.169,1.248,1.248,0,0,0,.409.98A1.583,1.583,0,0,0,37.011-1.538ZM46.09-11.821V-9.51h1.679v1.582H46.09v5.309a1.169,1.169,0,0,0,.215.787,1,1,0,0,0,.769.242,3.29,3.29,0,0,0,.747-.088V-.026a5.26,5.26,0,0,1-1.406.2q-2.461,0-2.461-2.716V-7.928H42.39V-9.51h1.564v-2.312ZM51.671,0H49.535V-9.51h2.136ZM49.4-11.979a1.133,1.133,0,0,1,.312-.817,1.179,1.179,0,0,1,.892-.325,1.193,1.193,0,0,1,.9.325,1.125,1.125,0,0,1,.316.817,1.1,1.1,0,0,1-.316.8,1.2,1.2,0,0,1-.9.321,1.188,1.188,0,0,1-.892-.321A1.107,1.107,0,0,1,49.4-11.979Zm7.269.158V-9.51h1.679v1.582H56.672v5.309a1.169,1.169,0,0,0,.215.787,1,1,0,0,0,.769.242,3.29,3.29,0,0,0,.747-.088V-.026A5.26,5.26,0,0,1,57,.176q-2.461,0-2.461-2.716V-7.928H52.972V-9.51h1.564v-2.312ZM62.253,0H60.117V-9.51h2.136ZM59.985-11.979A1.133,1.133,0,0,1,60.3-12.8a1.179,1.179,0,0,1,.892-.325,1.193,1.193,0,0,1,.9.325,1.125,1.125,0,0,1,.316.817,1.1,1.1,0,0,1-.316.8,1.2,1.2,0,0,1-.9.321,1.188,1.188,0,0,1-.892-.321A1.107,1.107,0,0,1,59.985-11.979Zm9.923,9.4a.968.968,0,0,0-.47-.87,5,5,0,0,0-1.56-.527,8.02,8.02,0,0,1-1.819-.58,2.428,2.428,0,0,1-1.6-2.241A2.531,2.531,0,0,1,65.5-8.859a4.1,4.1,0,0,1,2.637-.826,4.266,4.266,0,0,1,2.755.844,2.677,2.677,0,0,1,1.05,2.188H69.8a1.316,1.316,0,0,0-.457-1.024,1.752,1.752,0,0,0-1.213-.409,1.893,1.893,0,0,0-1.147.325,1.025,1.025,0,0,0-.444.87.866.866,0,0,0,.413.765,5.68,5.68,0,0,0,1.67.549,7.9,7.9,0,0,1,1.973.659A2.794,2.794,0,0,1,71.662-4a2.342,2.342,0,0,1,.347,1.3A2.478,2.478,0,0,1,70.945-.62a4.535,4.535,0,0,1-2.786.8,4.917,4.917,0,0,1-2.083-.422,3.428,3.428,0,0,1-1.424-1.16A2.746,2.746,0,0,1,64.143-3h2.074a1.5,1.5,0,0,0,.571,1.165,2.22,2.22,0,0,0,1.4.409,2.16,2.16,0,0,0,1.283-.321A.993.993,0,0,0,69.908-2.584ZM78.557,0V-12.8h4.386a5.354,5.354,0,0,1,3.3.87,3.065,3.065,0,0,1,1.134,2.593,2.763,2.763,0,0,1-.475,1.582,3.055,3.055,0,0,1-1.389,1.09,2.825,2.825,0,0,1,1.6,1.059,3.085,3.085,0,0,1,.567,1.868A3.407,3.407,0,0,1,86.533-.967,5.025,5.025,0,0,1,83.224,0ZM80.78-5.774v4h2.47a2.39,2.39,0,0,0,1.635-.519,1.82,1.82,0,0,0,.589-1.441,1.826,1.826,0,0,0-2.039-2.039Zm0-1.635h2.18a2.521,2.521,0,0,0,1.622-.47,1.611,1.611,0,0,0,.584-1.332,1.633,1.633,0,0,0-.541-1.371A2.73,2.73,0,0,0,82.942-11H80.78Z" transform="translate(-10781 -4311)" fill="#12263f"/>
      <path id="Trazado_194319" data-name="Trazado 194319" d="M59.5,0A59.5,59.5,0,1,1,0,59.5,59.5,59.5,0,0,1,59.5,0Z" transform="translate(-10695 -4377)" fill="#8ee5f6" opacity="0.672"/>
      <path id="Trazado_194322" data-name="Trazado 194322" d="M10.547-11H6.557V0H4.351V-11H.4V-12.8H10.547ZM15.425.176A4.419,4.419,0,0,1,12.133-1.1a4.639,4.639,0,0,1-1.261-3.406v-.264a5.706,5.706,0,0,1,.549-2.544,4.181,4.181,0,0,1,1.542-1.745,4.078,4.078,0,0,1,2.215-.624,3.733,3.733,0,0,1,3,1.239,5.24,5.24,0,0,1,1.059,3.507v.861H13.025a2.856,2.856,0,0,0,.787,1.863,2.362,2.362,0,0,0,1.736.686,2.892,2.892,0,0,0,2.391-1.187l1.151,1.1A3.845,3.845,0,0,1,17.565-.294,4.774,4.774,0,0,1,15.425.176ZM15.17-7.972a1.8,1.8,0,0,0-1.419.615,3.189,3.189,0,0,0-.69,1.714H17.13V-5.8a2.6,2.6,0,0,0-.571-1.622A1.785,1.785,0,0,0,15.17-7.972Zm.483-5.528h2.435l-2.435,2.663H13.939Zm7.919,1.679V-9.51h1.679v1.582H23.572v5.309a1.169,1.169,0,0,0,.215.787,1,1,0,0,0,.769.242,3.29,3.29,0,0,0,.747-.088V-.026a5.26,5.26,0,0,1-1.406.2q-2.461,0-2.461-2.716V-7.928H19.872V-9.51h1.564v-2.312ZM32.563,0a3.3,3.3,0,0,1-.246-.888,3.325,3.325,0,0,1-2.5,1.063,3.355,3.355,0,0,1-2.338-.817,2.615,2.615,0,0,1-.905-2.021A2.7,2.7,0,0,1,27.708-5a5.473,5.473,0,0,1,3.23-.813h1.31v-.624a1.666,1.666,0,0,0-.413-1.182,1.638,1.638,0,0,0-1.257-.444,1.881,1.881,0,0,0-1.2.365,1.129,1.129,0,0,0-.466.927H26.78A2.37,2.37,0,0,1,27.3-8.231,3.455,3.455,0,0,1,28.709-9.3,4.955,4.955,0,0,1,30.7-9.686a3.99,3.99,0,0,1,2.663.839,2.993,2.993,0,0,1,1.02,2.36V-2.2a4.861,4.861,0,0,0,.36,2.048V0ZM30.217-1.538a2.429,2.429,0,0,0,1.191-.308,2.055,2.055,0,0,0,.839-.826V-4.465H31.1a3.148,3.148,0,0,0-1.784.413,1.338,1.338,0,0,0-.6,1.169,1.248,1.248,0,0,0,.409.98A1.583,1.583,0,0,0,30.217-1.538ZM38.6-9.51l.062,1.1a3.419,3.419,0,0,1,2.769-1.274q2.971,0,3.023,3.4V0H42.319V-6.161a1.958,1.958,0,0,0-.391-1.34,1.645,1.645,0,0,0-1.279-.435,2.058,2.058,0,0,0-1.925,1.169V0H36.589V-9.51ZM46.23-4.843a5.607,5.607,0,0,1,.554-2.518A4.044,4.044,0,0,1,48.34-9.083a4.383,4.383,0,0,1,2.3-.6,4.154,4.154,0,0,1,3.125,1.239,4.874,4.874,0,0,1,1.3,3.287l.009.5a5.658,5.658,0,0,1-.541,2.514A4,4,0,0,1,52.985-.431,4.415,4.415,0,0,1,50.66.176a4.125,4.125,0,0,1-3.221-1.34A5.133,5.133,0,0,1,46.23-4.737Zm2.136.185a3.832,3.832,0,0,0,.606,2.3,1.971,1.971,0,0,0,1.688.831,1.95,1.95,0,0,0,1.683-.844,4.232,4.232,0,0,0,.6-2.47,3.782,3.782,0,0,0-.62-2.285,1.979,1.979,0,0,0-1.683-.844,1.96,1.96,0,0,0-1.661.831A4.152,4.152,0,0,0,48.366-4.658Z" transform="translate(-10663 -4311)" fill="#12263f"/>
      <path id="Trazado_194320" data-name="Trazado 194320" d="M59.5,0A59.5,59.5,0,1,1,0,59.5,59.5,59.5,0,0,1,59.5,0Z" transform="translate(-10591 -4377)" fill="#8ee5f6" opacity="0.672"/>
      <path id="Trazado_194323" data-name="Trazado 194323" d="M11.065-4.166A4.621,4.621,0,0,1,9.554-.971,5.154,5.154,0,0,1,6.047.176,4.99,4.99,0,0,1,3.353-.549a4.759,4.759,0,0,1-1.8-2.061A7.438,7.438,0,0,1,.9-5.713v-1.2a7.491,7.491,0,0,1,.642-3.19,4.835,4.835,0,0,1,1.841-2.127,5.136,5.136,0,0,1,2.773-.747,4.934,4.934,0,0,1,3.41,1.151,4.81,4.81,0,0,1,1.5,3.252H8.851a3.161,3.161,0,0,0-.8-1.991,2.658,2.658,0,0,0-1.894-.611,2.6,2.6,0,0,0-2.228,1.059A5.289,5.289,0,0,0,3.129-7v1.134a5.611,5.611,0,0,0,.743,3.164,2.465,2.465,0,0,0,2.175,1.09,2.875,2.875,0,0,0,1.969-.589,3.071,3.071,0,0,0,.835-1.96Zm1.38-.677A5.607,5.607,0,0,1,13-7.361a4.044,4.044,0,0,1,1.556-1.723,4.383,4.383,0,0,1,2.3-.6,4.154,4.154,0,0,1,3.125,1.239,4.874,4.874,0,0,1,1.3,3.287l.009.5a5.658,5.658,0,0,1-.541,2.514A4,4,0,0,1,19.2-.431a4.415,4.415,0,0,1-2.325.606,4.125,4.125,0,0,1-3.221-1.34,5.133,5.133,0,0,1-1.208-3.573Zm2.136.185a3.832,3.832,0,0,0,.606,2.3,1.971,1.971,0,0,0,1.688.831,1.95,1.95,0,0,0,1.683-.844,4.232,4.232,0,0,0,.6-2.47,3.782,3.782,0,0,0-.62-2.285,1.979,1.979,0,0,0-1.683-.844,1.96,1.96,0,0,0-1.661.831A4.152,4.152,0,0,0,14.581-4.658ZM26.314-2.707l2.013-6.8h2.206L27.237,0H25.383L22.061-9.51h2.215ZM34.137,0H32V-9.51h2.136ZM31.869-11.979a1.133,1.133,0,0,1,.312-.817,1.179,1.179,0,0,1,.892-.325,1.193,1.193,0,0,1,.9.325,1.125,1.125,0,0,1,.316.817,1.1,1.1,0,0,1-.316.8,1.2,1.2,0,0,1-.9.321,1.188,1.188,0,0,1-.892-.321A1.107,1.107,0,0,1,31.869-11.979Zm4.192,7.154a5.654,5.654,0,0,1,1.02-3.529,3.267,3.267,0,0,1,2.733-1.332,3.1,3.1,0,0,1,2.443,1.055V-13.5h2.136V0H42.46l-.105-.984A3.148,3.148,0,0,1,39.8.176a3.248,3.248,0,0,1-2.7-1.345A5.861,5.861,0,0,1,36.062-4.825Zm2.136.185a3.958,3.958,0,0,0,.558,2.263,1.811,1.811,0,0,0,1.586.813,2.017,2.017,0,0,0,1.916-1.169V-6.794a1.986,1.986,0,0,0-1.9-1.143,1.824,1.824,0,0,0-1.6.822A4.408,4.408,0,0,0,38.2-4.641Zm17.051.062H50.634V-6.3h4.614ZM67.14,0H65.013V-10.274L61.875-9.2V-11l4.992-1.837h.272Zm10.5-5.353a3.345,3.345,0,0,1-2.5,1.134A3.345,3.345,0,0,1,72.448-5.4a4.642,4.642,0,0,1-1-3.107,5.094,5.094,0,0,1,.51-2.294,3.8,3.8,0,0,1,1.45-1.6,4.115,4.115,0,0,1,2.18-.571,3.7,3.7,0,0,1,3.067,1.441,6.071,6.071,0,0,1,1.134,3.858v.6a7.885,7.885,0,0,1-1.564,5.282A5.889,5.889,0,0,1,73.556.053H73.3V-1.714h.308a4.373,4.373,0,0,0,2.9-.91A3.792,3.792,0,0,0,77.643-5.353Zm-2.057-.536a2.155,2.155,0,0,0,1.2-.369,2.432,2.432,0,0,0,.87-1.02v-.835a4.009,4.009,0,0,0-.58-2.276,1.748,1.748,0,0,0-1.5-.861,1.727,1.727,0,0,0-1.472.76,3.2,3.2,0,0,0-.549,1.92,3.156,3.156,0,0,0,.554,1.942A1.754,1.754,0,0,0,75.586-5.889Z" transform="translate(-10570 -4311)" fill="#12263f"/>
      <path id="Trazado_194324" data-name="Trazado 194324" d="M59.5,0A59.5,59.5,0,1,1,0,59.5,59.5,59.5,0,0,1,59.5,0Z" transform="translate(-10483 -4377)" fill="#8ee5f6" opacity="0.672"/>
      <path id="Trazado_194325" data-name="Trazado 194325" d="M-32.849-11h-3.99V0h-2.206V-11H-43V-12.8h10.151Zm5.88,3.445a5.285,5.285,0,0,0-.87-.07A1.959,1.959,0,0,0-29.817-6.5V0h-2.136V-9.51h2.039l.053,1.063a2.406,2.406,0,0,1,2.145-1.239,2,2,0,0,1,.756.123ZM-23.348,0h-2.136V-9.51h2.136Zm-2.268-11.979A1.133,1.133,0,0,1-25.3-12.8a1.179,1.179,0,0,1,.892-.325,1.193,1.193,0,0,1,.9.325,1.125,1.125,0,0,1,.316.817,1.1,1.1,0,0,1-.316.8,1.2,1.2,0,0,1-.9.321,1.188,1.188,0,0,1-.892-.321A1.107,1.107,0,0,1-25.616-11.979ZM-12.7-4.658a5.662,5.662,0,0,1-1,3.52A3.209,3.209,0,0,1-16.387.176a3.23,3.23,0,0,1-2.5-1.028V3.656h-2.136V-9.51h1.969l.088.967a3.137,3.137,0,0,1,2.558-1.143,3.242,3.242,0,0,1,2.729,1.3,5.813,5.813,0,0,1,.989,3.6Zm-2.127-.185A3.966,3.966,0,0,0-15.39-7.1a1.843,1.843,0,0,0-1.622-.835,1.965,1.965,0,0,0-1.881,1.081v4.219a1.983,1.983,0,0,0,1.9,1.107,1.841,1.841,0,0,0,1.6-.822A4.366,4.366,0,0,0-14.823-4.843ZM-8.618,0h-2.136V-13.5h2.136ZM-2.1.176A4.419,4.419,0,0,1-5.4-1.1,4.639,4.639,0,0,1-6.658-4.509v-.264a5.706,5.706,0,0,1,.549-2.544A4.181,4.181,0,0,1-4.566-9.062a4.078,4.078,0,0,1,2.215-.624,3.733,3.733,0,0,1,3,1.239A5.24,5.24,0,0,1,1.709-4.939v.861H-4.5a2.856,2.856,0,0,0,.787,1.863,2.362,2.362,0,0,0,1.736.686A2.892,2.892,0,0,0,.409-2.716l1.151,1.1A3.845,3.845,0,0,1,.035-.294,4.774,4.774,0,0,1-2.1.176ZM-2.36-7.972a1.8,1.8,0,0,0-1.419.615,3.189,3.189,0,0,0-.69,1.714H-.4V-5.8A2.6,2.6,0,0,0-.971-7.422,1.785,1.785,0,0,0-2.36-7.972ZM12.564-2.786,15.816-12.8h2.443L13.654,0H11.5L6.913-12.8H9.347ZM21.766,0H19.63V-9.51h2.136ZM19.5-11.979a1.133,1.133,0,0,1,.312-.817,1.179,1.179,0,0,1,.892-.325,1.193,1.193,0,0,1,.9.325,1.125,1.125,0,0,1,.316.817,1.1,1.1,0,0,1-.316.8,1.2,1.2,0,0,1-.9.321,1.188,1.188,0,0,1-.892-.321A1.107,1.107,0,0,1,19.5-11.979ZM29.07-7.559a5.285,5.285,0,0,0-.87-.07A1.959,1.959,0,0,0,26.222-6.5V0H24.086V-9.51h2.039l.053,1.063a2.406,2.406,0,0,1,2.145-1.239,2,2,0,0,1,.756.123ZM35.837,0a3.3,3.3,0,0,1-.246-.888A3.325,3.325,0,0,1,33.1.176a3.355,3.355,0,0,1-2.338-.817,2.615,2.615,0,0,1-.905-2.021A2.7,2.7,0,0,1,30.981-5a5.473,5.473,0,0,1,3.23-.813h1.31v-.624a1.666,1.666,0,0,0-.413-1.182,1.638,1.638,0,0,0-1.257-.444,1.881,1.881,0,0,0-1.2.365,1.129,1.129,0,0,0-.466.927H30.054a2.37,2.37,0,0,1,.519-1.463A3.455,3.455,0,0,1,31.983-9.3a4.955,4.955,0,0,1,1.991-.387,3.99,3.99,0,0,1,2.663.839,2.993,2.993,0,0,1,1.02,2.36V-2.2a4.861,4.861,0,0,0,.36,2.048V0ZM33.491-1.538a2.429,2.429,0,0,0,1.191-.308,2.055,2.055,0,0,0,.839-.826V-4.465H34.37a3.148,3.148,0,0,0-1.784.413,1.338,1.338,0,0,0-.6,1.169,1.248,1.248,0,0,0,.409.98A1.583,1.583,0,0,0,33.491-1.538ZM42.166,0H40.03V-13.5h2.136ZM-8.811,21.7A1.545,1.545,0,0,0-9.4,20.4a7.138,7.138,0,0,0-2.14-.923,10.335,10.335,0,0,1-2.461-1.037,3.284,3.284,0,0,1-1.749-2.865,3.118,3.118,0,0,1,1.261-2.549,5.1,5.1,0,0,1,3.274-1,5.53,5.53,0,0,1,2.382.492,3.909,3.909,0,0,1,1.644,1.4,3.6,3.6,0,0,1,.6,2.017H-8.811a2.005,2.005,0,0,0-.628-1.569,2.594,2.594,0,0,0-1.8-.567,2.709,2.709,0,0,0-1.692.466,1.551,1.551,0,0,0-.6,1.3,1.4,1.4,0,0,0,.65,1.173,7.493,7.493,0,0,0,2.145.914,9.865,9.865,0,0,1,2.4,1.011,3.816,3.816,0,0,1,1.327,1.3,3.388,3.388,0,0,1,.422,1.718,3.045,3.045,0,0,1-1.226,2.544,5.318,5.318,0,0,1-3.327.945,6.251,6.251,0,0,1-2.553-.514A4.289,4.289,0,0,1-15.5,23.242a3.537,3.537,0,0,1-.646-2.109h2.224a2.07,2.07,0,0,0,.721,1.688,3.156,3.156,0,0,0,2.065.6,2.742,2.742,0,0,0,1.745-.47A1.517,1.517,0,0,0-8.811,21.7ZM.066,20.069H-2.413V25H-4.636V12.2h4.5a5.238,5.238,0,0,1,3.419.993,3.512,3.512,0,0,1,1.2,2.874,3.6,3.6,0,0,1-.62,2.149A3.942,3.942,0,0,1,2.14,19.551l2.874,5.335V25H2.632Zm-2.479-1.784H-.127a2.541,2.541,0,0,0,1.758-.567,1.977,1.977,0,0,0,.633-1.551,2.1,2.1,0,0,0-.584-1.591A2.483,2.483,0,0,0-.066,14H-2.413ZM8.82,20.245V25H6.6V12.2h4.9A4.954,4.954,0,0,1,14.9,13.319a3.751,3.751,0,0,1,1.261,2.953A3.627,3.627,0,0,1,14.924,19.2a5.194,5.194,0,0,1-3.458,1.046Zm0-1.784h2.672A2.632,2.632,0,0,0,13.3,17.9a2.051,2.051,0,0,0,.624-1.613,2.213,2.213,0,0,0-.633-1.657A2.439,2.439,0,0,0,11.553,14H8.82Z" transform="translate(-10422 -4317)" fill="#12263f"/>
      <path id="Trazado_194326" data-name="Trazado 194326" d="M59.5,0A59.5,59.5,0,1,1,0,59.5,59.5,59.5,0,0,1,59.5,0Z" transform="translate(-10377 -4377)" fill="#8ee5f6" opacity="0.672"/>
      <path id="Trazado_194327" data-name="Trazado 194327" d="M-26.851-2.786-23.6-12.8h2.443L-25.761,0h-2.153L-32.5-12.8h2.435ZM-14.643,0a3.3,3.3,0,0,1-.246-.888,3.325,3.325,0,0,1-2.5,1.063,3.355,3.355,0,0,1-2.338-.817,2.615,2.615,0,0,1-.905-2.021A2.7,2.7,0,0,1-19.5-5a5.473,5.473,0,0,1,3.23-.813h1.31v-.624a1.666,1.666,0,0,0-.413-1.182,1.638,1.638,0,0,0-1.257-.444,1.881,1.881,0,0,0-1.2.365,1.129,1.129,0,0,0-.466.927h-2.136a2.37,2.37,0,0,1,.519-1.463A3.455,3.455,0,0,1-18.5-9.3a4.955,4.955,0,0,1,1.991-.387,3.99,3.99,0,0,1,2.663.839,2.993,2.993,0,0,1,1.02,2.36V-2.2a4.861,4.861,0,0,0,.36,2.048V0Zm-2.347-1.538A2.429,2.429,0,0,0-15.8-1.846a2.055,2.055,0,0,0,.839-.826V-4.465H-16.11a3.148,3.148,0,0,0-1.784.413,1.338,1.338,0,0,0-.6,1.169,1.248,1.248,0,0,0,.409.98A1.583,1.583,0,0,0-16.989-1.538ZM-5.607-7.559a5.285,5.285,0,0,0-.87-.07A1.959,1.959,0,0,0-8.455-6.5V0h-2.136V-9.51h2.039L-8.5-8.446A2.406,2.406,0,0,1-6.354-9.686a2,2,0,0,1,.756.123ZM-1.986,0H-4.122V-9.51h2.136ZM-4.254-11.979a1.133,1.133,0,0,1,.312-.817,1.179,1.179,0,0,1,.892-.325,1.193,1.193,0,0,1,.9.325,1.125,1.125,0,0,1,.316.817,1.1,1.1,0,0,1-.316.8,1.2,1.2,0,0,1-.9.321,1.188,1.188,0,0,1-.892-.321A1.107,1.107,0,0,1-4.254-11.979Zm8.5,10.45A1.931,1.931,0,0,0,5.572-2a1.591,1.591,0,0,0,.563-1.151H8.147A3.137,3.137,0,0,1,7.594-1.49,3.632,3.632,0,0,1,6.188-.272,4.191,4.191,0,0,1,4.271.176,4.055,4.055,0,0,1,1.107-1.116,5.124,5.124,0,0,1-.062-4.685V-4.9A5.039,5.039,0,0,1,1.1-8.38,4.018,4.018,0,0,1,4.263-9.686,3.907,3.907,0,0,1,7.027-8.7,3.542,3.542,0,0,1,8.147-6.1H6.135a1.956,1.956,0,0,0-.558-1.345,1.8,1.8,0,0,0-1.332-.527,1.879,1.879,0,0,0-1.6.751,3.834,3.834,0,0,0-.571,2.281V-4.6A3.9,3.9,0,0,0,2.632-2.29,1.878,1.878,0,0,0,4.245-1.529Zm9.7,1.705A4.419,4.419,0,0,1,10.657-1.1,4.639,4.639,0,0,1,9.4-4.509v-.264a5.706,5.706,0,0,1,.549-2.544,4.181,4.181,0,0,1,1.542-1.745A4.078,4.078,0,0,1,13.7-9.686a3.733,3.733,0,0,1,3,1.239,5.24,5.24,0,0,1,1.059,3.507v.861H11.549a2.856,2.856,0,0,0,.787,1.863,2.362,2.362,0,0,0,1.736.686,2.892,2.892,0,0,0,2.391-1.187l1.151,1.1A3.845,3.845,0,0,1,16.088-.294,4.774,4.774,0,0,1,13.948.176Zm-.255-8.147a1.8,1.8,0,0,0-1.419.615,3.189,3.189,0,0,0-.69,1.714h4.069V-5.8a2.6,2.6,0,0,0-.571-1.622A1.785,1.785,0,0,0,13.693-7.972Zm8,7.972H19.556V-13.5h2.136ZM29.7,0a3.3,3.3,0,0,1-.246-.888,3.325,3.325,0,0,1-2.5,1.063,3.355,3.355,0,0,1-2.338-.817,2.615,2.615,0,0,1-.905-2.021A2.7,2.7,0,0,1,24.842-5a5.473,5.473,0,0,1,3.23-.813h1.31v-.624a1.666,1.666,0,0,0-.413-1.182,1.638,1.638,0,0,0-1.257-.444,1.881,1.881,0,0,0-1.2.365,1.129,1.129,0,0,0-.466.927H23.915a2.37,2.37,0,0,1,.519-1.463A3.455,3.455,0,0,1,25.844-9.3a4.955,4.955,0,0,1,1.991-.387,3.99,3.99,0,0,1,2.663.839,2.993,2.993,0,0,1,1.02,2.36V-2.2a4.861,4.861,0,0,0,.36,2.048V0ZM27.352-1.538a2.429,2.429,0,0,0,1.191-.308,2.055,2.055,0,0,0,.839-.826V-4.465H28.23a3.148,3.148,0,0,0-1.784.413,1.338,1.338,0,0,0-.6,1.169,1.248,1.248,0,0,0,.409.98A1.583,1.583,0,0,0,27.352-1.538Z" transform="translate(-10314 -4311)" fill="#12263f"/>
      <path id="Trazado_194328" data-name="Trazado 194328" d="M59.5,0A59.5,59.5,0,1,1,0,59.5,59.5,59.5,0,0,1,59.5,0Z" transform="translate(-10265 -4377)" fill="#8ee5f6" opacity="0.672"/>
      <path id="Trazado_194329" data-name="Trazado 194329" d="M-18.615-5.423h-5.15V0h-2.224V-12.8h8.13V-11h-5.906V-7.2h5.15ZM-14.036,0h-2.136V-9.51h2.136ZM-16.3-11.979a1.133,1.133,0,0,1,.312-.817,1.179,1.179,0,0,1,.892-.325,1.193,1.193,0,0,1,.9.325,1.125,1.125,0,0,1,.316.817,1.1,1.1,0,0,1-.316.8,1.2,1.2,0,0,1-.9.321,1.188,1.188,0,0,1-.892-.321A1.107,1.107,0,0,1-16.3-11.979ZM-7.523.176A4.419,4.419,0,0,1-10.815-1.1a4.639,4.639,0,0,1-1.261-3.406v-.264a5.706,5.706,0,0,1,.549-2.544A4.181,4.181,0,0,1-9.984-9.062,4.078,4.078,0,0,1-7.77-9.686a3.733,3.733,0,0,1,3,1.239A5.24,5.24,0,0,1-3.709-4.939v.861H-9.923a2.856,2.856,0,0,0,.787,1.863A2.362,2.362,0,0,0-7.4-1.529,2.892,2.892,0,0,0-5.01-2.716l1.151,1.1A3.845,3.845,0,0,1-5.383-.294,4.774,4.774,0,0,1-7.523.176Zm-.255-8.147A1.8,1.8,0,0,0-9.2-7.356a3.189,3.189,0,0,0-.69,1.714h4.069V-5.8A2.6,2.6,0,0,0-6.39-7.422,1.785,1.785,0,0,0-7.778-7.972ZM6.293-4.658A5.712,5.712,0,0,1,5.3-1.134,3.221,3.221,0,0,1,2.584.176a3.1,3.1,0,0,1-2.6-1.2L-.123,0H-2.057V-13.5H.079v4.9a3.091,3.091,0,0,1,2.487-1.09A3.258,3.258,0,0,1,5.3-8.394a5.807,5.807,0,0,1,.993,3.612ZM4.157-4.843a4.037,4.037,0,0,0-.545-2.32A1.815,1.815,0,0,0,2.03-7.937,1.983,1.983,0,0,0,.079-6.724V-2.8A2,2,0,0,0,2.048-1.564a1.8,1.8,0,0,0,1.547-.747A3.912,3.912,0,0,0,4.157-4.57Zm8.9-2.716a5.285,5.285,0,0,0-.87-.07A1.959,1.959,0,0,0,10.213-6.5V0H8.077V-9.51h2.039l.053,1.063a2.406,2.406,0,0,1,2.145-1.239,2,2,0,0,1,.756.123ZM18.431.176A4.419,4.419,0,0,1,15.139-1.1a4.639,4.639,0,0,1-1.261-3.406v-.264a5.706,5.706,0,0,1,.549-2.544A4.181,4.181,0,0,1,15.97-9.062a4.078,4.078,0,0,1,2.215-.624,3.733,3.733,0,0,1,3,1.239,5.24,5.24,0,0,1,1.059,3.507v.861H16.031a2.856,2.856,0,0,0,.787,1.863,2.362,2.362,0,0,0,1.736.686,2.892,2.892,0,0,0,2.391-1.187l1.151,1.1A3.845,3.845,0,0,1,20.571-.294,4.774,4.774,0,0,1,18.431.176Zm-.255-8.147a1.8,1.8,0,0,0-1.419.615,3.189,3.189,0,0,0-.69,1.714h4.069V-5.8a2.6,2.6,0,0,0-.571-1.622A1.785,1.785,0,0,0,18.176-7.972ZM-24.943,22.021H-29.9L-30.937,25h-2.312l4.834-12.8h2L-21.577,25H-23.9Zm-4.333-1.793h3.709l-1.854-5.309Zm10.529-4.737.062.993a3.422,3.422,0,0,1,2.742-1.169,2.629,2.629,0,0,1,2.61,1.459,3.373,3.373,0,0,1,2.918-1.459,2.965,2.965,0,0,1,2.342.87,3.831,3.831,0,0,1,.787,2.566V25H-9.422V18.813a1.891,1.891,0,0,0-.4-1.327,1.731,1.731,0,0,0-1.31-.422,1.778,1.778,0,0,0-1.191.391,2.063,2.063,0,0,0-.646,1.024L-12.955,25h-2.136V18.742A1.523,1.523,0,0,0-16.8,17.063a1.88,1.88,0,0,0-1.819,1.046V25H-20.76V15.49ZM.589,25a3.3,3.3,0,0,1-.246-.888,3.325,3.325,0,0,1-2.5,1.063,3.355,3.355,0,0,1-2.338-.817A2.615,2.615,0,0,1-5.4,22.337,2.7,2.7,0,0,1-4.267,20a5.473,5.473,0,0,1,3.23-.813H.272v-.624a1.666,1.666,0,0,0-.413-1.182A1.638,1.638,0,0,0-1.4,16.94a1.881,1.881,0,0,0-1.2.365,1.129,1.129,0,0,0-.466.927H-5.194a2.37,2.37,0,0,1,.519-1.463A3.455,3.455,0,0,1-3.265,15.7a4.955,4.955,0,0,1,1.991-.387,3.99,3.99,0,0,1,2.663.839,2.993,2.993,0,0,1,1.02,2.36V22.8a4.861,4.861,0,0,0,.36,2.048V25Zm-2.347-1.538a2.429,2.429,0,0,0,1.191-.308,2.055,2.055,0,0,0,.839-.826V20.535H-.879a3.148,3.148,0,0,0-1.784.413,1.338,1.338,0,0,0-.6,1.169,1.248,1.248,0,0,0,.409.98A1.583,1.583,0,0,0-1.758,23.462ZM9.624,17.441a5.285,5.285,0,0,0-.87-.07A1.959,1.959,0,0,0,6.776,18.5V25H4.641V15.49H6.68l.053,1.063a2.406,2.406,0,0,1,2.145-1.239,2,2,0,0,1,.756.123ZM13.245,25H11.109V15.49h2.136ZM10.978,13.021a1.133,1.133,0,0,1,.312-.817,1.179,1.179,0,0,1,.892-.325,1.193,1.193,0,0,1,.9.325,1.125,1.125,0,0,1,.316.817,1.1,1.1,0,0,1-.316.8,1.2,1.2,0,0,1-.9.321,1.188,1.188,0,0,1-.892-.321A1.107,1.107,0,0,1,10.978,13.021ZM17.842,25H15.706V11.5h2.136Zm4.6,0H20.3V11.5h2.136Zm8.007,0a3.3,3.3,0,0,1-.246-.888,3.593,3.593,0,0,1-4.834.246,2.615,2.615,0,0,1-.905-2.021A2.7,2.7,0,0,1,25.589,20a5.473,5.473,0,0,1,3.23-.813h1.31v-.624a1.666,1.666,0,0,0-.413-1.182,1.638,1.638,0,0,0-1.257-.444,1.881,1.881,0,0,0-1.2.365,1.129,1.129,0,0,0-.466.927H24.662a2.37,2.37,0,0,1,.519-1.463A3.455,3.455,0,0,1,26.591,15.7a4.955,4.955,0,0,1,1.991-.387,3.99,3.99,0,0,1,2.663.839,2.993,2.993,0,0,1,1.02,2.36V22.8a4.861,4.861,0,0,0,.36,2.048V25ZM28.1,23.462a2.429,2.429,0,0,0,1.191-.308,2.055,2.055,0,0,0,.839-.826V20.535H28.978a3.148,3.148,0,0,0-1.784.413,1.338,1.338,0,0,0-.6,1.169A1.248,1.248,0,0,0,27,23.1,1.583,1.583,0,0,0,28.1,23.462Z" transform="translate(-10204 -4322)" fill="#12263f"/>
      <path id="Trazado_194330" data-name="Trazado 194330" d="M59.5,0A59.5,59.5,0,1,1,0,59.5,59.5,59.5,0,0,1,59.5,0Z" transform="translate(-10155 -4377)" fill="#8ee5f6" opacity="0.672"/>
      <path id="Trazado_194331" data-name="Trazado 194331" d="M-18.615-5.423h-5.15V0h-2.224V-12.8h8.13V-11h-5.906V-7.2h5.15ZM-14.036,0h-2.136V-9.51h2.136ZM-16.3-11.979a1.133,1.133,0,0,1,.312-.817,1.179,1.179,0,0,1,.892-.325,1.193,1.193,0,0,1,.9.325,1.125,1.125,0,0,1,.316.817,1.1,1.1,0,0,1-.316.8,1.2,1.2,0,0,1-.9.321,1.188,1.188,0,0,1-.892-.321A1.107,1.107,0,0,1-16.3-11.979ZM-7.523.176A4.419,4.419,0,0,1-10.815-1.1a4.639,4.639,0,0,1-1.261-3.406v-.264a5.706,5.706,0,0,1,.549-2.544A4.181,4.181,0,0,1-9.984-9.062,4.078,4.078,0,0,1-7.77-9.686a3.733,3.733,0,0,1,3,1.239A5.24,5.24,0,0,1-3.709-4.939v.861H-9.923a2.856,2.856,0,0,0,.787,1.863A2.362,2.362,0,0,0-7.4-1.529,2.892,2.892,0,0,0-5.01-2.716l1.151,1.1A3.845,3.845,0,0,1-5.383-.294,4.774,4.774,0,0,1-7.523.176Zm-.255-8.147A1.8,1.8,0,0,0-9.2-7.356a3.189,3.189,0,0,0-.69,1.714h4.069V-5.8A2.6,2.6,0,0,0-6.39-7.422,1.785,1.785,0,0,0-7.778-7.972ZM6.293-4.658A5.712,5.712,0,0,1,5.3-1.134,3.221,3.221,0,0,1,2.584.176a3.1,3.1,0,0,1-2.6-1.2L-.123,0H-2.057V-13.5H.079v4.9a3.091,3.091,0,0,1,2.487-1.09A3.258,3.258,0,0,1,5.3-8.394a5.807,5.807,0,0,1,.993,3.612ZM4.157-4.843a4.037,4.037,0,0,0-.545-2.32A1.815,1.815,0,0,0,2.03-7.937,1.983,1.983,0,0,0,.079-6.724V-2.8A2,2,0,0,0,2.048-1.564a1.8,1.8,0,0,0,1.547-.747A3.912,3.912,0,0,0,4.157-4.57Zm8.9-2.716a5.285,5.285,0,0,0-.87-.07A1.959,1.959,0,0,0,10.213-6.5V0H8.077V-9.51h2.039l.053,1.063a2.406,2.406,0,0,1,2.145-1.239,2,2,0,0,1,.756.123ZM18.431.176A4.419,4.419,0,0,1,15.139-1.1a4.639,4.639,0,0,1-1.261-3.406v-.264a5.706,5.706,0,0,1,.549-2.544A4.181,4.181,0,0,1,15.97-9.062a4.078,4.078,0,0,1,2.215-.624,3.733,3.733,0,0,1,3,1.239,5.24,5.24,0,0,1,1.059,3.507v.861H16.031a2.856,2.856,0,0,0,.787,1.863,2.362,2.362,0,0,0,1.736.686,2.892,2.892,0,0,0,2.391-1.187l1.151,1.1A3.845,3.845,0,0,1,20.571-.294,4.774,4.774,0,0,1,18.431.176Zm-.255-8.147a1.8,1.8,0,0,0-1.419.615,3.189,3.189,0,0,0-.69,1.714h4.069V-5.8a2.6,2.6,0,0,0-.571-1.622A1.785,1.785,0,0,0,18.176-7.972ZM-22.605,14H-26.6V25H-28.8V14h-3.955V12.2h10.151Zm3.744,11H-21V15.49h2.136Zm-2.268-11.979a1.133,1.133,0,0,1,.312-.817,1.179,1.179,0,0,1,.892-.325,1.193,1.193,0,0,1,.9.325,1.125,1.125,0,0,1,.316.817,1.1,1.1,0,0,1-.316.8,1.2,1.2,0,0,1-.9.321,1.188,1.188,0,0,1-.892-.321A1.107,1.107,0,0,1-21.129,13.021ZM-15.785,25V17.072h-1.45V15.49h1.45v-.87a3.266,3.266,0,0,1,.879-2.443,3.367,3.367,0,0,1,2.461-.861,4.936,4.936,0,0,1,1.2.158l-.053,1.67a4.207,4.207,0,0,0-.817-.07,1.371,1.371,0,0,0-1.529,1.573v.844h1.934v1.582h-1.934V25Zm5.229-4.843A5.607,5.607,0,0,1-10,17.639a4.044,4.044,0,0,1,1.556-1.723,4.383,4.383,0,0,1,2.3-.6,4.154,4.154,0,0,1,3.125,1.239,4.874,4.874,0,0,1,1.3,3.287l.009.5a5.658,5.658,0,0,1-.541,2.514A4,4,0,0,1-3.8,24.569a4.415,4.415,0,0,1-2.325.606,4.125,4.125,0,0,1-3.221-1.34,5.133,5.133,0,0,1-1.208-3.573Zm2.136.185a3.832,3.832,0,0,0,.606,2.3,1.971,1.971,0,0,0,1.688.831,1.95,1.95,0,0,0,1.683-.844,4.232,4.232,0,0,0,.6-2.47,3.782,3.782,0,0,0-.62-2.285,1.979,1.979,0,0,0-1.683-.844,1.96,1.96,0,0,0-1.661.831A4.152,4.152,0,0,0-8.42,20.342ZM2.364,25H.229V15.49H2.364ZM.1,13.021A1.133,1.133,0,0,1,.409,12.2a1.179,1.179,0,0,1,.892-.325,1.193,1.193,0,0,1,.9.325,1.125,1.125,0,0,1,.316.817,1.1,1.1,0,0,1-.316.8,1.2,1.2,0,0,1-.9.321,1.188,1.188,0,0,1-.892-.321A1.107,1.107,0,0,1,.1,13.021Zm4.192,7.154a5.654,5.654,0,0,1,1.02-3.529,3.267,3.267,0,0,1,2.733-1.332,3.1,3.1,0,0,1,2.443,1.055V11.5h2.136V25H10.688l-.105-.984a3.148,3.148,0,0,1-2.558,1.16,3.248,3.248,0,0,1-2.7-1.345A5.861,5.861,0,0,1,4.289,20.175Zm2.136.185a3.958,3.958,0,0,0,.558,2.263,1.811,1.811,0,0,0,1.586.813,2.017,2.017,0,0,0,1.916-1.169V18.206a1.986,1.986,0,0,0-1.9-1.143,1.824,1.824,0,0,0-1.6.822A4.408,4.408,0,0,0,6.425,20.359Zm12.612,4.816A4.419,4.419,0,0,1,15.746,23.9a4.639,4.639,0,0,1-1.261-3.406v-.264a5.706,5.706,0,0,1,.549-2.544,4.181,4.181,0,0,1,1.542-1.745,4.078,4.078,0,0,1,2.215-.624,3.733,3.733,0,0,1,3,1.239,5.24,5.24,0,0,1,1.059,3.507v.861H16.638a2.856,2.856,0,0,0,.787,1.863,2.362,2.362,0,0,0,1.736.686,2.892,2.892,0,0,0,2.391-1.187l1.151,1.1a3.845,3.845,0,0,1-1.525,1.323A4.774,4.774,0,0,1,19.037,25.176Zm-.255-8.147a1.8,1.8,0,0,0-1.419.615,3.189,3.189,0,0,0-.69,1.714h4.069V19.2a2.6,2.6,0,0,0-.571-1.622A1.785,1.785,0,0,0,18.782,17.028ZM30.19,25a3.3,3.3,0,0,1-.246-.888,3.593,3.593,0,0,1-4.834.246,2.615,2.615,0,0,1-.905-2.021A2.7,2.7,0,0,1,25.334,20a5.473,5.473,0,0,1,3.23-.813h1.31v-.624a1.666,1.666,0,0,0-.413-1.182A1.638,1.638,0,0,0,28.2,16.94a1.881,1.881,0,0,0-1.2.365,1.129,1.129,0,0,0-.466.927H24.407a2.37,2.37,0,0,1,.519-1.463A3.455,3.455,0,0,1,26.336,15.7a4.955,4.955,0,0,1,1.991-.387,3.99,3.99,0,0,1,2.663.839,2.993,2.993,0,0,1,1.02,2.36V22.8a4.861,4.861,0,0,0,.36,2.048V25Zm-2.347-1.538a2.429,2.429,0,0,0,1.191-.308,2.055,2.055,0,0,0,.839-.826V20.535H28.723a3.148,3.148,0,0,0-1.784.413,1.338,1.338,0,0,0-.6,1.169,1.248,1.248,0,0,0,.409.98A1.583,1.583,0,0,0,27.844,23.462Z" transform="translate(-10094 -4322)" fill="#12263f"/>
    </g>
  </g>
</svg>
