<svg xmlns="http://www.w3.org/2000/svg" xmlns:xlink="http://www.w3.org/1999/xlink" width="1600" height="220" viewBox="0 0 1600 220">
  <defs>
    <clipPath id="clip-path">
      <rect id="Rectángulo_44635" data-name="Rectángulo 44635" width="1600" height="220" transform="translate(-12588 -12547)" fill="#fff" stroke="#707070" stroke-width="1"/>
    </clipPath>
    <linearGradient id="linear-gradient" x1="0.586" y1="0.42" x2="0.033" y2="0.048" gradientUnits="objectBoundingBox">
      <stop offset="0" stop-color="#fde9e0" stop-opacity="0"/>
      <stop offset="1" stop-color="#f18385"/>
    </linearGradient>
    <linearGradient id="linear-gradient-2" x1="0.369" y1="0.633" x2="-0.03" y2="-0.016" gradientUnits="objectBoundingBox">
      <stop offset="0" stop-color="#fff" stop-opacity="0"/>
      <stop offset="1" stop-color="#f18385"/>
    </linearGradient>
  </defs>
  <g id="Enmascarar_grupo_143953" data-name="Enmascarar grupo 143953" transform="translate(12588 12547)" clip-path="url(#clip-path)">
    <g id="Grupo_146157" data-name="Grupo 146157" transform="translate(-12728.333 -12915.772)">
      <g id="Grupo_146156" data-name="Grupo 146156" transform="translate(140.333 70)">
        <g id="Grupo_146155" data-name="Grupo 146155">
          <rect id="Rectángulo_44631" data-name="Rectángulo 44631" width="1600" height="615" rx="20" transform="translate(0 -0.227)" fill="#fde9e0"/>
          <rect id="Rectángulo_44632" data-name="Rectángulo 44632" width="667" height="615" rx="20" transform="translate(0 -0.227)" fill="url(#linear-gradient)"/>
          <rect id="Rectángulo_44633" data-name="Rectángulo 44633" width="572.905" height="455.94" rx="20" transform="translate(1600 614.545) rotate(180)" fill="url(#linear-gradient-2)"/>
        </g>
        <path id="Intersección_8" data-name="Intersección 8" d="M0,270V60.634C62.469,27.047,188.217,2.971,435.021,73.508c228.12,65.2,351.962,22.612,457.5-19.974,94.243-38.026,173.89-76.055,300.162-37.332C1460.356,98.285,1324.3,195.22,1579.4,99.456q10.533-3.954,20.6-7.148V270Z" transform="translate(0 342.773)" fill="rgba(255,255,255,0.44)"/>
        <path id="Polígono_100" data-name="Polígono 100" d="M13.939,0,27.879,24.242H0Z" transform="translate(89.091 68.485) rotate(90)" fill="#483c8c"/>
        <path id="Polígono_101" data-name="Polígono 101" d="M13.939,0,27.879,24.242H0Z" transform="translate(60 136.97) rotate(180)" fill="#f18385"/>
        <path id="Polígono_102" data-name="Polígono 102" d="M26.558,0,53.117,46.188H0Z" transform="translate(85.238 570.936) rotate(180)" fill="#f18385"/>
      </g>
    </g>
  </g>
</svg>
